<?xml version="1.0" standalone="no"?>
<!DOCTYPE svg PUBLIC "-//W3C//DTD SVG 20010904//EN"
 "http://www.w3.org/TR/2001/REC-SVG-20010904/DTD/svg10.dtd">
<svg version="1.0" xmlns="http://www.w3.org/2000/svg"
 width="700.000000pt" height="700.000000pt" viewBox="0 0 700.000000 700.000000"
 preserveAspectRatio="xMidYMid meet">
<metadata>
Created by potrace 1.14, written by Peter Selinger 2001-2017
</metadata>
<g transform="translate(0.000000,700.000000) scale(0.100000,-0.100000)"
fill="#000000" stroke="none">
<path d="M1997 6774 c-1 -1 -29 -4 -62 -7 -208 -21 -401 -133 -509 -295 -68
-103 -106 -209 -132 -367 -11 -62 -11 -4728 0 -4742 5 -7 5 -13 0 -13 -11 0
-10 -332 1 -415 24 -193 88 -342 197 -455 128 -133 324 -223 536 -246 64 -7
2955 -8 2987 -1 11 3 40 8 65 13 25 4 47 8 50 9 290 75 479 260 561 550 l23
80 2 2593 c1 1665 -1 2620 -8 2665 -44 317 -254 535 -593 612 -16 4 -39 9 -50
12 -17 5 -3062 12 -3068 7z"/>
</g>
</svg>
