<svg version="1.1" id="Layer_1" xmlns="http://www.w3.org/2000/svg" x="0" y="0" viewBox="0 0 48.9 34.1" style="enable-background:new 0 0 48.9 34.1" xml:space="preserve"><style>.st0{fill:#f79146}.st1{fill:#f58533}</style><path class="st0" d="M1.3 24.7 4.3.6h4l-3 24.1h-4zM25.3 24.7l3-24.1h4l-3 24.1h-4zM9.3 24.7l3-24.1h4l-3 24.1h-4zM33.3 24.7l3-24.1h4l-3 24.1h-4zM17.3 24.7l3-24.1h4l-3 24.1h-4zM41.3 24.7l3-24.1h4l-3 24.1h-4z"/><path class="st1" d="M1 28.3h4.3l-.4 5.3H.6l.4-5.3zM16.5 28.3h4.3l-.4 5.3h-4.3l.4-5.3zM8.8 28.3h4.3l-.4 5.3H8.4l.4-5.3zM24.3 28.3h4.3l-.4 5.3h-4.3l.4-5.3zM32.1 28.3h4.3l-.4 5.3h-4.3l.4-5.3zM39.9 28.3h4.3l-.4 5.3h-4.3l.4-5.3z"/></svg>