<svg width="32" height="31" fill="none" xmlns="http://www.w3.org/2000/svg"><path d="M8.684 8.895c-1.211 0-1.733.786-1.875 1.066-.143.28-.414 1.084-.414 4.612 0 1.883.031 3.433.078 3.675.138.702.306 1.168.812 1.674s.782.578 1.6.578c.76 0 6.098.119 6.098.032 0-.064-.648-1.283-.672-1.306-.008-.016-1.012-.238-2.23-.5-2.84-.616-2.963-.535-3.196-.82V11.47c.237-.285.228-.18 3.196-.735l2.23-.499c.024-.016.339-1.314.339-1.373 0-.076-5.154.033-5.584.033h-.382Zm5.609 5.812c0 .038-.003.081-.005.125-.004.097.076.166.173.163.174-.005.56-.011 1.84.005l1.792.014a.2.2 0 0 0 .202-.2v-.152a.2.2 0 0 0-.2-.2H14.493a.2.2 0 0 0-.2.2v.045Z" fill="#000"/><path d="M23.88 8.895c1.212 0 1.733.786 1.876 1.066.143.28.414 1.084.414 4.612 0 1.883-.032 3.433-.079 3.675-.137.702-.306 1.168-.812 1.674-.505.506-.782.578-1.6.578-.759 0-6.098.119-6.098.032 0-.064.648-1.283.672-1.306.008-.016 1.013-.238 2.231-.5 2.84-.616 2.962-.535 3.196-.82V11.47c-.238-.285-.229-.18-3.196-.735l-2.23-.499c-.025-.016-.34-1.314-.34-1.373 0-.076 5.154.033 5.584.033h.383Z" fill="#000"/></svg>