<svg width="31" height="31" fill="none" xmlns="http://www.w3.org/2000/svg"><path d="M10.645 13.679c0 .274.03.496.082.659.059.163.133.34.236.533.038.059.052.118.052.17 0 .074-.044.148-.14.222l-.466.31a.355.355 0 0 1-.193.067c-.074 0-.148-.037-.222-.104a2.29 2.29 0 0 1-.266-.347 5.732 5.732 0 0 1-.23-.437c-.577.68-1.302 1.021-2.175 1.021-.622 0-1.118-.177-1.48-.532-.363-.356-.548-.83-.548-1.421 0-.63.222-1.14.673-1.525.452-.385 1.051-.577 1.813-.577.252 0 .511.022.785.06.274.036.555.095.85.162v-.54c0-.563-.118-.955-.347-1.184-.237-.23-.636-.34-1.206-.34-.26 0-.526.029-.8.096-.273.066-.54.148-.799.251a2.123 2.123 0 0 1-.259.096.454.454 0 0 1-.118.022c-.104 0-.155-.073-.155-.229V9.75c0-.119.014-.208.051-.26a.554.554 0 0 1 .208-.155 4.26 4.26 0 0 1 .932-.333c.363-.096.747-.14 1.154-.14.881 0 1.525.2 1.94.599.406.4.614 1.006.614 1.82v2.398h.014Zm-3.004 1.125c.244 0 .496-.045.762-.133.266-.09.503-.252.703-.474.118-.14.207-.296.252-.474.044-.177.074-.392.074-.643v-.311a6.18 6.18 0 0 0-.681-.126 5.576 5.576 0 0 0-.696-.044c-.496 0-.858.096-1.102.296-.245.2-.363.48-.363.85 0 .348.089.607.274.785.177.185.436.274.777.274Zm5.942.8c-.133 0-.222-.023-.281-.075-.06-.044-.111-.148-.155-.288l-1.74-5.72a1.296 1.296 0 0 1-.066-.297c0-.118.06-.185.178-.185h.725c.14 0 .236.022.288.074.06.044.104.148.148.289l1.244 4.899 1.154-4.9c.037-.147.081-.244.14-.288a.509.509 0 0 1 .297-.074h.592c.14 0 .236.022.296.074.059.044.11.148.14.289l1.17 4.958 1.28-4.958c.044-.148.096-.245.148-.289a.483.483 0 0 1 .288-.074h.689c.118 0 .185.06.185.185 0 .037-.008.074-.015.118a1.053 1.053 0 0 1-.052.185l-1.784 5.72c-.044.149-.096.245-.155.29a.473.473 0 0 1-.281.073h-.636c-.141 0-.237-.022-.296-.073-.06-.052-.111-.149-.141-.296l-1.147-4.774-1.14 4.766c-.037.148-.081.244-.14.296-.06.052-.163.074-.296.074h-.637Zm9.51.199c-.385 0-.77-.045-1.14-.133-.37-.09-.659-.185-.851-.296-.119-.067-.2-.14-.23-.208a.522.522 0 0 1-.044-.207v-.377c0-.155.06-.23.17-.23.045 0 .089.008.133.023.045.014.111.044.185.074.252.11.526.2.815.259.296.059.584.088.88.088.466 0 .829-.08 1.08-.244a.797.797 0 0 0 .385-.703.72.72 0 0 0-.2-.518c-.133-.14-.384-.266-.747-.385l-1.073-.333c-.54-.17-.94-.421-1.184-.754a1.763 1.763 0 0 1-.37-1.073c0-.311.067-.585.2-.822s.31-.444.533-.607a2.35 2.35 0 0 1 .77-.385c.295-.088.606-.125.932-.125.163 0 .333.007.495.03.17.021.326.051.482.08.148.038.288.075.421.12.134.043.237.088.311.132a.64.64 0 0 1 .222.185c.045.06.067.14.067.245v.347c0 .156-.06.237-.17.237a.77.77 0 0 1-.282-.089 3.386 3.386 0 0 0-1.42-.288c-.422 0-.755.066-.985.207-.23.14-.348.355-.348.658 0 .208.075.385.223.526.147.14.421.281.813.407l1.051.333c.533.17.918.407 1.147.71.23.304.34.652.34 1.036 0 .319-.066.607-.192.859a1.99 1.99 0 0 1-.54.651c-.23.185-.503.318-.821.415-.333.103-.681.155-1.058.155Z" fill="#000"/><path fill-rule="evenodd" clip-rule="evenodd" d="M24.491 19.4c-2.434 1.799-5.972 2.753-9.013 2.753-4.263 0-8.104-1.576-11.004-4.196-.23-.207-.023-.488.251-.325 3.138 1.82 7.008 2.923 11.012 2.923 2.7 0 5.668-.563 8.399-1.717.407-.185.755.266.355.562Z" fill="#000"/><path fill-rule="evenodd" clip-rule="evenodd" d="M25.505 18.246c-.31-.4-2.057-.193-2.85-.096-.236.03-.273-.178-.058-.333 1.39-.977 3.678-.696 3.944-.37.266.333-.074 2.62-1.376 3.715-.2.17-.393.08-.304-.141.296-.733.955-2.383.644-2.775Z" fill="#000"/></svg>