<svg width="60" height="61" viewBox="0 0 60 61" fill="none" xmlns="http://www.w3.org/2000/svg">
<path d="M23.1 18.3189C23.3386 18.3189 23.5676 18.2241 23.7363 18.0553C23.9051 17.8866 24 17.6576 24 17.4189V13.8189C24 13.5803 23.9051 13.3513 23.7363 13.1825C23.5676 13.0138 23.3386 12.9189 23.1 12.9189C22.8613 12.9189 22.6323 13.0138 22.4636 13.1825C22.2948 13.3513 22.2 13.5803 22.2 13.8189V17.4189C22.2 17.6576 22.2948 17.8866 22.4636 18.0553C22.6323 18.2241 22.8613 18.3189 23.1 18.3189Z" fill="#5AA3DA"/>
<path d="M30.9 18.3189C31.1387 18.3189 31.3676 18.2241 31.5364 18.0553C31.7052 17.8866 31.8 17.6576 31.8 17.4189V13.8189C31.8 13.5803 31.7052 13.3513 31.5364 13.1825C31.3676 13.0138 31.1387 12.9189 30.9 12.9189C30.6613 12.9189 30.4324 13.0138 30.2636 13.1825C30.0948 13.3513 30 13.5803 30 13.8189V17.4189C30 17.6576 30.0948 17.8866 30.2636 18.0553C30.4324 18.2241 30.6613 18.3189 30.9 18.3189Z" fill="#FF9C42"/>
<path d="M22.2 31.8188C22.2 32.0575 22.2948 32.2865 22.4636 32.4552C22.6323 32.624 22.8613 32.7188 23.1 32.7188C23.3386 32.7188 23.5676 32.624 23.7363 32.4552C23.9051 32.2865 24 32.0575 24 31.8188V28.2188C24 27.9802 23.9051 27.7512 23.7363 27.5825C23.5676 27.4137 23.3386 27.3188 23.1 27.3188C22.8613 27.3188 22.6323 27.4137 22.4636 27.5825C22.2948 27.7512 22.2 27.9802 22.2 28.2188V31.8188Z" fill="#FF9C42"/>
<path d="M30 31.8188C30 32.0575 30.0948 32.2865 30.2636 32.4552C30.4324 32.624 30.6613 32.7188 30.9 32.7188C31.1387 32.7188 31.3676 32.624 31.5364 32.4552C31.7052 32.2865 31.8 32.0575 31.8 31.8188V28.2188C31.8 27.9802 31.7052 27.7512 31.5364 27.5825C31.3676 27.4137 31.1387 27.3188 30.9 27.3188C30.6613 27.3188 30.4324 27.4137 30.2636 27.5825C30.0948 27.7512 30 27.9802 30 28.2188V31.8188Z" fill="#5AA3DA"/>
<path d="M22.2 46.2187C22.2 46.4574 22.2948 46.6864 22.4636 46.8551C22.6323 47.0239 22.8613 47.1187 23.1 47.1187C23.3386 47.1187 23.5676 47.0239 23.7363 46.8551C23.9051 46.6864 24 46.4574 24 46.2187V42.6187C24 42.3801 23.9051 42.1511 23.7363 41.9824C23.5676 41.8136 23.3386 41.7188 23.1 41.7188C22.8613 41.7188 22.6323 41.8136 22.4636 41.9824C22.2948 42.1511 22.2 42.3801 22.2 42.6187V46.2187Z" fill="#FF9C42"/>
<path d="M30 46.2187C30 46.4574 30.0948 46.6864 30.2636 46.8551C30.4324 47.0239 30.6613 47.1187 30.9 47.1187C31.1387 47.1187 31.3676 47.0239 31.5364 46.8551C31.7052 46.6864 31.8 46.4574 31.8 46.2187V42.6187C31.8 42.3801 31.7052 42.1511 31.5364 41.9824C31.3676 41.8136 31.1387 41.7188 30.9 41.7188C30.6613 41.7188 30.4324 41.8136 30.2636 41.9824C30.0948 42.1511 30 42.3801 30 42.6187V46.2187Z" fill="#FF9C42"/>
<path d="M8.70005 27.9189C8.46135 27.9189 8.23244 28.0138 8.06365 28.1825C7.89487 28.3513 7.80005 28.5803 7.80005 28.8189V32.4189C7.80005 32.6576 7.89487 32.8866 8.06365 33.0553C8.23244 33.2241 8.46135 33.3189 8.70005 33.3189C8.93874 33.3189 9.16766 33.2241 9.33644 33.0553C9.50523 32.8866 9.60005 32.6576 9.60005 32.4189V28.8189C9.60005 28.5803 9.50523 28.3513 9.33644 28.1825C9.16766 28.0138 8.93874 27.9189 8.70005 27.9189Z" fill="#FF9C42"/>
<path d="M42.6001 33.6187V37.2187C42.6001 37.4574 42.6949 37.6864 42.8637 37.8551C43.0325 38.0239 43.2614 38.1187 43.5001 38.1187C43.7388 38.1187 43.9677 38.0239 44.1365 37.8551C44.3053 37.6864 44.4001 37.4574 44.4001 37.2187V33.6187C44.4001 33.3801 44.3053 33.1511 44.1365 32.9824C43.9677 32.8136 43.7388 32.7188 43.5001 32.7188C43.2614 32.7188 43.0325 32.8136 42.8637 32.9824C42.6949 33.1511 42.6001 33.3801 42.6001 33.6187Z" fill="#FF9C42"/>
<path d="M51.2999 32.7188C51.0612 32.7188 50.8323 32.8136 50.6635 32.9824C50.4947 33.1511 50.3999 33.3801 50.3999 33.6187V37.2187C50.3999 37.4574 50.4947 37.6864 50.6635 37.8551C50.8323 38.0239 51.0612 38.1187 51.2999 38.1187C51.5386 38.1187 51.7675 38.0239 51.9363 37.8551C52.1051 37.6864 52.1999 37.4574 52.1999 37.2187V33.6187C52.1999 33.3801 52.1051 33.1511 51.9363 32.9824C51.7675 32.8136 51.5386 32.7188 51.2999 32.7188Z" fill="#5AA3DA"/>
<path d="M57.954 25.9869L47.886 15.2769C47.8027 15.1887 47.7023 15.1181 47.5909 15.0697C47.4795 15.0212 47.3595 14.9958 47.2381 14.9949C46.9947 15.0035 46.7626 15.0993 46.584 15.2649L37.8 24.3189V7.81895C37.8 7.58025 37.7052 7.35133 37.5364 7.18255C37.3677 7.01377 37.1387 6.91895 36.9001 6.91895H16.5C16.2614 6.91895 16.0324 7.01377 15.8637 7.18255C15.6949 7.35133 15.6 7.58025 15.6 7.81895V20.1189H2.70005C2.46135 20.1189 2.23244 20.2138 2.06365 20.3826C1.89487 20.5513 1.80005 20.7803 1.80005 21.0189L1.80005 48.1502C1.80005 48.3889 1.89487 48.6178 2.06365 48.7866C2.23244 48.9554 2.46135 49.0502 2.70005 49.0502C2.93874 49.0502 3.16766 48.9554 3.33645 48.7866C3.50523 48.6178 3.60005 48.3889 3.60005 48.1502V21.9189H15.6V34.2189C15.6 34.4576 15.6949 34.6866 15.8637 34.8553C16.0324 35.0241 16.2614 35.1189 16.5 35.1189C16.7387 35.1189 16.9677 35.0241 17.1364 34.8553C17.3052 34.6866 17.4 34.4576 17.4 34.2189V8.71895H36V53.1189H11.7C11.4614 53.1189 11.2324 53.2138 11.0637 53.3825C10.8949 53.5513 10.8 53.7803 10.8 54.0189C10.8 54.2576 10.8949 54.4866 11.0637 54.6553C11.2324 54.8241 11.4614 54.9189 11.7 54.9189H47.7001C47.9387 54.9189 48.1677 54.8241 48.3364 54.6553C48.5052 54.4866 48.6001 54.2576 48.6001 54.0189C48.6001 53.7803 48.5052 53.5513 48.3364 53.3825C48.1677 53.2138 47.9387 53.1189 47.7001 53.1189H37.8V26.8689L47.22 17.1969L56.4001 26.9589V39.6189C56.4001 39.8576 56.4949 40.0866 56.6637 40.2553C56.8324 40.4241 57.0614 40.5189 57.3001 40.5189C57.5387 40.5189 57.7677 40.4241 57.9364 40.2553C58.1052 40.0866 58.2001 39.8576 58.2001 39.6189V26.5989C58.1985 26.3712 58.1105 26.1525 57.954 25.9869Z" fill="#5AA3DA"/>
</svg>
