<svg width="56" height="56" viewBox="0 0 56 56" fill="none" xmlns="http://www.w3.org/2000/svg">
<path d="M36.2198 20.5391L18.0998 34.9391C17.7398 35.2391 17.6198 35.8391 17.9798 36.1991C18.1598 36.4391 18.3998 36.5591 18.6998 36.5591C18.8798 36.5591 19.1198 36.4991 19.2398 36.3791L37.3598 21.9791C37.7198 21.6791 37.8398 21.0791 37.4798 20.7191C37.1798 20.2991 36.6398 20.2391 36.2198 20.5391Z" fill="#FF9C42"/>
<path d="M22.96 26.9586C23.2 26.9586 23.44 26.9586 23.68 26.8986C26.14 26.5386 27.88 24.1986 27.46 21.6786C27.28 20.4786 26.62 19.3986 25.66 18.6786C24.7 17.9586 23.5 17.6586 22.3 17.8386C21.1 18.0186 20.02 18.6786 19.3 19.6386C18.58 20.5986 18.28 21.7986 18.46 22.9986C18.82 25.3386 20.8 26.9586 22.96 26.9586ZM22.54 19.6986C22.66 19.6986 22.84 19.6386 22.96 19.6386C24.28 19.6386 25.48 20.5986 25.66 21.9786C25.9 23.4786 24.88 24.8586 23.38 25.0986C21.88 25.3386 20.5 24.3186 20.26 22.8186C20.02 21.3186 21.1 19.9386 22.54 19.6986Z" fill="#FF9C42"/>
<path d="M32.56 29.959C30.04 29.959 28 31.999 28 34.519C28 37.039 30.04 39.079 32.56 39.079C35.08 39.079 37.12 37.039 37.12 34.519C37.06 31.999 35.02 29.959 32.56 29.959ZM32.56 37.219C31.06 37.219 29.8 35.959 29.8 34.459C29.8 32.959 31.06 31.699 32.56 31.699C34.06 31.699 35.32 32.959 35.32 34.459C35.26 36.019 34.06 37.219 32.56 37.219Z" fill="#FF9C42"/>
<path d="M54.9999 27.8588C54.9999 27.7988 55.0599 27.6788 55.0599 27.6188C55.0599 25.0388 52.3599 23.7188 50.0199 22.5788C48.3399 21.7388 46.5399 20.8388 46.0599 19.7588C45.5799 18.6188 46.2399 16.7588 46.8999 15.0188C47.7999 12.5588 48.6999 10.0388 47.0199 8.35885C45.3399 6.67885 42.9399 7.27885 40.5399 7.81885C38.8599 8.17885 37.1199 8.59885 35.9799 8.11885C34.8399 7.63885 33.8799 6.13885 32.9799 4.69885C31.6599 2.65885 30.2199 0.318848 27.6999 0.318848C25.1799 0.318848 23.7399 2.65885 22.4799 4.75885C21.5799 6.25885 20.6799 7.75885 19.5399 8.23885C18.3999 8.71885 16.5999 8.29885 14.9199 7.87885C12.5199 7.27885 10.0599 6.67885 8.4399 8.29885C6.7599 9.97885 7.5999 12.4988 8.3799 14.9588C8.9799 16.7588 9.5199 18.5588 9.0399 19.7588C8.5599 20.8988 6.8799 21.7388 5.2599 22.5788C2.9799 23.7788 0.399902 25.0988 0.399902 27.6188C0.399902 27.6788 0.399902 27.7988 0.459902 27.8588C0.459902 27.9188 0.399902 28.0388 0.399902 28.0988C0.399902 30.6188 2.9799 31.9988 5.2599 33.1388C6.8799 33.9788 8.5599 34.8188 9.0399 35.9588C9.5199 37.0988 8.9199 38.9589 8.3799 40.7589C7.5999 43.2188 6.7599 45.7388 8.4399 47.4188C10.1199 49.0989 12.5799 48.4388 14.9199 47.8388C16.5999 47.4188 18.3999 46.9988 19.5399 47.4788C20.6799 47.9588 21.5799 49.4589 22.4799 50.9589C23.7399 53.0588 25.1799 55.3988 27.6999 55.3988C30.2199 55.3988 31.7199 53.0588 32.9799 51.0188C33.8799 49.5788 34.8399 48.0788 35.9799 47.5988C37.1799 47.1188 38.8599 47.4788 40.5399 47.8988C42.8799 48.4388 45.3399 49.0388 47.0199 47.3588C48.6999 45.6789 47.7999 43.1588 46.8999 40.6988C46.2399 38.8988 45.5799 37.0988 46.0599 35.9588C46.5399 34.8188 48.2799 33.9788 50.0199 33.1388C52.3599 31.9388 55.0599 30.6188 55.0599 28.0988C55.0599 27.9788 54.9999 27.9188 54.9999 27.8588ZM49.1799 31.5188C47.1999 32.5388 45.0999 33.5588 44.3799 35.2988C43.5999 37.0989 44.4399 39.2589 45.1599 41.3588C45.8799 43.3389 46.5999 45.2588 45.6999 46.0988C44.7399 47.0588 42.8799 46.6389 40.8999 46.1589C38.9199 45.6789 36.9399 45.2589 35.1999 45.9788C33.5199 46.6988 32.4399 48.3788 31.4199 50.0588C30.2799 51.8589 29.1999 53.5988 27.6399 53.5988C26.1399 53.5988 25.0599 51.8588 23.9199 49.9988C22.8999 48.2588 21.8199 46.5188 20.1399 45.7988C18.3999 45.0788 16.3599 45.5588 14.3799 46.0988C12.3999 46.5788 10.5399 47.0588 9.5799 46.1589C8.6799 45.2589 9.2799 43.3389 9.9399 41.3588C10.5999 39.2589 11.3199 37.0988 10.5399 35.3588C9.8199 33.6188 7.8399 32.5988 5.9199 31.6388C3.9399 30.6188 2.0799 29.6588 2.0799 28.1588C2.0799 28.0988 2.0799 27.9788 2.0199 27.9188C2.0199 27.8588 2.0799 27.7388 2.0799 27.6788C2.0799 26.2388 3.9399 25.2788 5.9199 24.1988C7.8399 23.2388 9.8199 22.2188 10.5399 20.4788C11.2599 18.6788 10.5999 16.5188 9.9399 14.4788C9.2799 12.4388 8.6799 10.5188 9.5799 9.67885C10.5399 8.71885 12.3999 9.19885 14.3799 9.73885C16.3599 10.2188 18.3999 10.7588 20.1399 10.0388C21.8199 9.31885 22.8999 7.57885 23.9199 5.83885C25.0599 3.97885 26.0799 2.23885 27.6399 2.23885C29.1999 2.23885 30.2799 3.97885 31.4199 5.77885C32.4999 7.45885 33.5799 9.13885 35.1999 9.85885C36.9399 10.5788 38.9199 10.0988 40.8999 9.67885C42.8799 9.19885 44.7399 8.77885 45.6999 9.73885C46.5999 10.5788 45.8799 12.4988 45.1599 14.4788C44.3799 16.5788 43.5999 18.7388 44.3799 20.5388C45.0999 22.2788 47.1999 23.2988 49.1799 24.3188C51.2799 25.3388 53.1999 26.3588 53.1999 27.7988C53.1999 27.8588 53.1999 27.9788 53.2599 28.0388C53.2599 28.0988 53.1999 28.2188 53.1999 28.2788C53.2599 29.4788 51.2799 30.4988 49.1799 31.5188Z" fill="#5AA3DA"/>
</svg>
