<svg width="51" height="51" viewBox="0 0 51 51" fill="none" xmlns="http://www.w3.org/2000/svg">
<path d="M30.8737 22.4109L26.5189 26.7657V11.2761C26.5189 10.6785 26.0341 10.1943 25.4365 10.1943C24.8389 10.1943 24.3547 10.6785 24.3547 11.2761V29.3775C24.3547 29.4489 24.3619 29.5203 24.3763 29.5905C24.3823 29.6211 24.3937 29.6493 24.4027 29.6793C24.4135 29.7171 24.4225 29.7555 24.4381 29.7927C24.4531 29.8287 24.4735 29.8611 24.4921 29.8953C24.5071 29.9235 24.5197 29.9523 24.5377 29.9793C24.6169 30.0981 24.7195 30.2001 24.8383 30.2799C24.8605 30.2949 24.8845 30.3045 24.9073 30.3171C24.9457 30.3387 24.9829 30.3615 25.0243 30.3789C25.0567 30.3921 25.0909 30.3999 25.1239 30.4101C25.1581 30.4203 25.1905 30.4335 25.2259 30.4401C25.2955 30.4539 25.3663 30.4617 25.4371 30.4617C25.5079 30.4617 25.5787 30.4545 25.6483 30.4401C25.6837 30.4329 25.7167 30.4203 25.7509 30.4095C25.7839 30.3993 25.8175 30.3921 25.8499 30.3789C25.8919 30.3615 25.9303 30.3381 25.9693 30.3159C25.9915 30.3033 26.0143 30.2943 26.0359 30.2799C26.0965 30.2397 26.1529 30.1941 26.2033 30.1425L32.4043 23.9415C32.8267 23.5191 32.8267 22.8339 32.4043 22.4115C31.9813 21.9879 31.2967 21.9879 30.8737 22.4109Z" fill="#FF9C42"/>
<path d="M25.7726 0.71875C12.0026 0.71875 0.800049 11.9214 0.800049 25.6919C0.800049 39.4625 12.0026 50.6646 25.7726 50.6646C39.5426 50.6646 50.7458 39.4619 50.7458 25.6919C50.7458 11.9219 39.5426 0.71875 25.7726 0.71875ZM25.7726 48.4997C13.196 48.4997 2.96365 38.2679 2.96365 25.6913C2.96365 13.1147 13.1954 2.88235 25.7726 2.88235C38.3498 2.88235 48.581 13.1147 48.581 25.6913C48.581 38.2679 38.3492 48.4997 25.7726 48.4997Z" fill="#5AA3DA"/>
</svg>
