<svg width="56" height="51" viewBox="0 0 56 51" fill="none" xmlns="http://www.w3.org/2000/svg">
<path d="M28.207 7.39258C21.8962 7.39258 16.762 12.6924 16.762 19.2072C16.762 25.722 21.8962 31.0218 28.207 31.0218C34.5178 31.0218 39.652 25.7214 39.652 19.2072C39.652 12.693 34.5178 7.39258 28.207 7.39258ZM37.8112 18.3666L33.6082 18.3552C33.4906 14.6568 32.6152 11.5584 31.2874 9.72478C34.8526 10.9776 37.486 14.3334 37.8112 18.3666ZM28.3648 28.6842C26.8252 28.6842 25.1146 25.0848 24.922 20.1324L31.807 20.151C31.6108 25.0944 29.9026 28.6842 28.3648 28.6842ZM24.9208 18.3324C25.1038 13.3536 26.8198 9.72958 28.3648 9.72958C29.9116 9.72958 31.6294 13.3632 31.8088 18.351L24.9208 18.3324ZM25.5502 9.58738C24.1666 11.3958 23.2468 14.5434 23.122 18.3276L18.6052 18.3156C18.9616 14.1462 21.787 10.7106 25.5502 9.58738ZM18.6064 20.1156L23.1232 20.1276C23.2528 23.8938 24.1714 27.0252 25.5508 28.8264C21.7924 27.7056 18.9688 24.2772 18.6064 20.1156ZM31.2868 28.689C32.6032 26.8716 33.4756 23.8122 33.6058 20.1558L37.8052 20.1672C37.4386 24.1476 34.8172 27.4488 31.2868 28.689Z" fill="#FF9C42"/>
<path d="M50.0775 0.71875H5.7663C2.8071 0.71875 0.399902 3.12835 0.399902 6.08935V32.7257C0.399902 35.6849 2.8071 38.0921 5.7663 38.0921H11.7111V49.6625C11.7111 50.0189 11.9211 50.3417 12.2469 50.4857C12.3639 50.5373 12.4875 50.5625 12.6105 50.5625C12.8301 50.5625 13.0473 50.4821 13.2159 50.3285L26.6841 38.0915H50.0769C53.0385 38.0915 55.4475 35.6837 55.4475 32.7251V6.08935C55.4481 3.12775 53.0385 0.71875 50.0775 0.71875ZM53.6481 32.7257C53.6481 34.6919 52.0461 36.2921 50.0775 36.2921H26.3367C26.1129 36.2921 25.8975 36.3755 25.7313 36.5261L13.5111 47.6291V37.1921C13.5111 36.6953 13.1085 36.2921 12.6111 36.2921H5.7663C3.8001 36.2921 2.1999 34.6919 2.1999 32.7257V6.08935C2.1999 4.12075 3.8001 2.51875 5.7663 2.51875H50.0775C52.0461 2.51875 53.6481 4.12075 53.6481 6.08935V32.7257Z" fill="#5AA3DA"/>
</svg>
