<svg version="1.1" id="Layer_1" xmlns="http://www.w3.org/2000/svg" x="0" y="0" viewBox="0 0 31 31" style="enable-background:new 0 0 31 31" xml:space="preserve"><style>.st0{fill-rule:evenodd;clip-rule:evenodd}</style><g id="IBM_DB2_1_"><path d="M2 21.6c.2-1.1.3-2.1.5-3.1 0-.2.1-.2.2-.2h.5c.2 0 .2 0 .3.2.2 1 .3 2 .5 3.1.1-.4.1-.7.2-1.1.1-.6.2-1.3.3-1.9 0-.2.1-.2.3-.2h.5c.2 0 .2.1.2.2-.2 1-.4 2-.5 3-.1.4-.1.8-.2 1.2-.1.2-.2.2-.5.2h-.5c-.2 0-.3-.1-.3-.2-.1-.8-.2-1.6-.4-2.4 0-.2-.1-.4-.1-.6-.1.4-.1.7-.2 1.1-.1.7-.2 1.3-.3 2 0 .2-.1.2-.2.2h-.6c-.2 0-.3-.1-.3-.3-.2-1.1-.4-2.3-.6-3.4 0-.3-.1-.5-.2-.8 0-.1 0-.2.1-.2h.6c.1 0 .2.1.2.2.1.9.3 1.8.4 2.6.1.1.1.2.1.4zM13.3 18.2h.6c.7.1 1.2.5 1.2 1.2 0 .2 0 .2-.2.2h-.4c-.2 0-.3-.1-.3-.3-.1-.4-.3-.5-.6-.4-.2 0-.3.1-.4.4-.1.3 0 .5.3.7.3.2.7.3 1 .4.4.2.7.4.8.8.2 1-.2 1.7-1.2 1.8-.4.1-.8 0-1.1-.1-.5-.2-.9-.8-.8-1.3 0-.1.1-.1.2-.1h.7c.2 0 .2.1.2.3 0 .4.3.7.7.6.2 0 .4-.2.5-.4.1-.3 0-.5-.2-.6-.1-.1-.3-.2-.5-.2-.3-.1-.6-.2-.8-.4-.5-.3-.7-.9-.5-1.6-.2-.6.2-.9.8-1zM20 19.8c.3-.3.6-.4 1-.4s.7.3.8.8v2.6c0 .2-.1.2-.2.2h-.5c-.2 0-.2-.1-.2-.2v-2.2c0-.3-.1-.4-.3-.4-.3 0-.5.1-.5.4v2.2c0 .3 0 .3-.3.3h-.3c-.2 0-.3 0-.3-.2v-4.2c0-.2.1-.3.2-.2h.5c.2 0 .2.1.2.2-.1.2-.1.6-.1 1.1zM26.5 19.8c.2-.2.4-.4.7-.5.2 0 .3 0 .3.3v.5c-.1.2-.3 0-.5.1-.3.1-.5.3-.5.7v1.8c0 .2-.1.3-.3.2h-.4c-.2 0-.2-.1-.2-.2v-3c0-.3 0-.3.3-.3h.1c.4 0 .4 0 .5.4zM18.3 19.9c-.1-.4-.4-.6-.8-.6-.3 0-.6.1-.9.4.1-.3-.1-.3-.3-.3h-.4c-.2 0-.3.1-.3.3v4.4h.9v-1.3h.1v.1c.6.5 1.4.3 1.6-.4.4-.9.4-1.7.1-2.6zm-.8 2.1c-.1.2-.2.3-.4.3s-.3-.1-.4-.3c-.1-.5-.1-1 0-1.6 0-.2.1-.4.4-.4.2 0 .3.1.4.3.1.3.1.5.1.8 0 .4 0 .7-.1.9zM28.8 21.4h1.6v-.9c-.1-.1-.1-.2-.1-.3-.1-.4-.4-.7-.8-.7H29c-.7 0-1 .3-1.2 1-.1.6-.1 1.2 0 1.8.1.5.4.8.9.9h.7c.4-.1.7-.3.9-.7 0-.1.1-.3.1-.4 0-.1-.1-.2-.2-.2h-.4c-.2 0-.3.1-.3.2 0 .2-.1.3-.2.4-.2.1-.4 0-.5-.2-.1-.2-.1-.5-.1-.7-.1-.3 0-.2.1-.2zM29 20c.2-.1.4 0 .4.2.1.1.1.3.1.4 0 .1 0 .2-.2.2h-.4c-.1 0-.3.1-.3-.1 0-.4.2-.6.4-.7zM11.5 20.1c-.2-.5-.6-.8-1.1-.7-.2 0-.4.2-.6.4v-.7c0-.2.1-.5 0-.6-.1-.2-.4 0-.6-.1-.2 0-.2.1-.2.2v3.9c0 .6 0 .5.5.6.2 0 .4 0 .4-.3 0 0 .1 0 .1.1.6.6 1.5.4 1.7-.5.1-.3.1-.6.1-.9-.1-.6-.1-1-.3-1.4zm-.8 1.9c0 .2-.2.3-.4.3s-.4-.1-.4-.3c-.1-.6-.1-1.1 0-1.7 0-.2.2-.3.4-.3s.3.1.4.3c.1.3.1.5.1.8 0 .4-.1.6-.1.9zM23.4 21.4h1.4c.1 0 .2-.1.2-.2 0-.3 0-.5-.1-.8-.1-.6-.4-.9-1-1h-.5c-.6 0-1.1.4-1.2 1-.1.6-.1 1.2 0 1.8.1.6.5.9 1 .9h.3c.7 0 1.1-.4 1.2-1.1 0-.1 0-.2-.1-.2-.2-.1-.5-.1-.7 0-.2 0-.1.2-.2.3-.1.2-.2.3-.4.3s-.3-.1-.4-.3c-.1-.2-.1-.4-.1-.6.4-.1.5-.1.6-.1zm-.1-1.1c.1-.2.2-.4.4-.4s.3.1.4.3c.1.4.1.5-.5.5-.4.1-.4.1-.3-.4zM8.2 21.4c.1 0 .2 0 .2-.2 0-.3 0-.7-.1-1-.1-.5-.5-.8-1-.9h-.4c-.7 0-1.1.4-1.2 1-.1.5-.1 1 0 1.5.1.7.4 1 1 1.1h.5c.7 0 1.1-.4 1.2-1.1 0-.1 0-.2-.1-.2H7.7c-.2.1-.1.2-.2.4s-.2.3-.4.3-.3-.1-.4-.3c-.1-.2-.1-.4-.1-.6 0-.1.1-.1.2-.1h.7c.2.1.5.1.7.1zm-1-.6H7c-.1 0-.3.1-.4-.1-.1-.3.1-.6.4-.7.2-.1.4 0 .5.3 0 .1 0 .1.1.2-.1.2-.1.3-.4.3z"/><g id="IBM_1_"><path class="st0" d="M25.7 10.4v-.7h-3.2l-.2.7zM16.8 15.8H20v.6h-3.2zM16.8 14.6H20v.6h-3.2zM21.5 10.4l-.2-.7h-3.2v.7zM18.1 12.2H20v.6h-1.9zM20 11.6v-.5l.2.5h3.4l.2-.5v.5h1.9V11h-3.6l-.2.4-.2-.4h-3.6v.6zM18.1 13.4H20v.6h-1.9zM23.2 12.8l.2-.6h-3l.2.6zM22.8 14l.2-.6h-2.2l.2.6zM22.3 15.3l.2-.7h-1.3l.2.7zM21.6 15.8l.2.7h.1l.2-.7zM16.8 8.5v.7h4.3l-.2-.7zM20.7 7.9l-.3-.6h-3.6v.6zM9.1 8.5v.6h7.1c0-.2-.2-.6-.2-.6H9.1zM16.1 10.4s.1-.4.1-.6h-2v.6h1.9zM15.8 12.8s-.3-.4-.6-.6h-4.9v.6h5.5zM9.1 14.6v.6H16c.1-.2.2-.4.2-.6H9.1zM9.1 15.8v.6h4.5c1.5 0 1.9-.6 1.9-.6H9.1zM15.2 11.6c.2-.2.5-.4.6-.6h-5.5v.6h4.9zM16.3 14c0-.2 0-.4-.1-.6h-1.9v.6h2zM10.4 13.4h1.9v.6h-1.9zM10.4 9.7v.7h1.9v-.7zM15.5 7.9c-.5-.4-1.2-.6-1.8-.6H9.1v.6h6.4zM5.3 13.4h1.9v.6H5.3zM4 14.6h4.5v.6H4zM4 15.8h4.5v.6H4zM4 7.3h4.5v.6H4zM4 8.5h4.5v.6H4zM5.3 9.7h1.9v.6H5.3zM5.3 11h1.9v.6H5.3zM5.3 12.2h1.9v.6H5.3zM23.8 12.2h1.9v.6h-1.9zM23.8 13.4h1.9v.6h-1.9zM23.8 14.6H27v.6h-3.2zM23.8 15.8H27v.6h-3.2zM27 9.2v-.7h-4.1l-.2.7zM27 7.9v-.6h-3.6l-.3.6z"/></g></g></svg>