<svg xmlns="http://www.w3.org/2000/svg" viewBox="0 0 50 31" style="enable-background:new 0 0 50 31" xml:space="preserve"><path d="M32.5 17c.2-.2.2-.5.3-.8.6-1.8 1.2-3.6 1.7-5.4.1-.3.2-.4.5-.3h2.3c.2 0 .3.1.3.3v9c0 .2-.1.3-.3.3h-1.2c-.3 0-.4-.1-.4-.4v-6.2h-.1c-.1.1-.1.3-.2.4-.7 2-1.4 3.9-2 5.9-.1.3-.2.4-.5.4-.4 0-.9.2-1.2-.1-.3-.2-.3-.7-.4-1.1l-1.8-5.1c0-.1-.1-.2-.2-.3v6.2c0 .3-.1.4-.4.4h-1.3c-.3 0-.3-.1-.3-.3V11c0-.3.1-.3.3-.3h2.3c.3 0 .4.1.5.4.6 1.9 1.3 3.7 1.9 5.6 0-.1.1.1.2.3zM17.7 18.8c.6-1.5 1.1-2.8 1.7-4.2.5-1.3 1-2.5 1.5-3.8.1-.3.2-.4.5-.4 1 0 1 0 1 1v8.1c0 .2.1.4-.1.5-.2.1-.5.1-.7 0-.2 0-.1-.2-.1-.4v-7.7h-.1c-.1.2-.1.3-.2.5-1 2.4-1.9 4.8-2.9 7.3-.2.3-.3.3-.6.3s-.5-.1-.6-.4c-.9-2.4-1.9-4.9-2.9-7.3-.1-.2-.1-.3-.3-.5v7.7c0 .4-.2.4-.5.4s-.4-.1-.4-.4v-8.7c0-.3.1-.5.4-.4.9 0 .9 0 1.3.9.9 2.4 1.9 4.8 2.8 7.1.1.1.1.2.2.4zM1.2 15.2v-4.4c0-.4.2-.4.5-.4s.5.1.5.4v8.8c-.1.4-.2.4-.5.4s-.5-.1-.5-.4v-4.4zM47.7 19.5c-.2-.2-.4-.4-.6-.5-.1-.1-.2-.2 0-.4 1.1-1.5 1.3-3.1.9-4.8-1-4.1-5.5-4.3-7.6-2.5-1.2 1.1-1.6 2.4-1.7 4-.1 3.5 3 5.8 6.3 4.7.7-.2 1-.1 1.5.4.6.6.6.6 1.2 0 .4-.5.4-.5 0-.9zm-2-2.3c-.1.2-.2.3-.4.1l-.6-.6c-.2-.2-.3-.1-.4 0l-.1.1c-.2.2-.5.4-.6.7 0 .3.4.4.6.6.1.1.2.1.1.2 0 .1-.2.1-.3.1-1.6.2-2.8-.7-3-2.5-.1-.9-.1-1.8.3-2.7.5-1 1.3-1.4 2.4-1.3 1.1.1 1.8.7 2.2 1.6.2.6.3 1.1.3 1.6-.2.9-.2 1.5-.5 2.1zM11.5 16.6c-.3-.9-.9-1.4-1.9-1.6.1-.1.2-.1.3-.1 1.4-.6 1.8-2.4.8-3.5-.6-.6-1.4-.8-2.2-.9H4.4c-.3 0-.4.1-.3.4v8.9c0 .2.1.2.4.2h3.8c.4 0 .9-.1 1.3-.2 1.6-.3 2.3-1.7 1.9-3.2zM5 11.5c0-.3.1-.3.3-.3H7c.6 0 1.2-.1 1.9.1.9.2 1.4.7 1.4 1.7 0 .8-.5 1.4-1.3 1.6-.2.1-.5.1-.7.1H5.4c-.2 0-.3 0-.3-.3-.1-1-.1-1.9-.1-2.9zm5 7.3c-.5.3-1 .4-1.5.5H5.4c-.3 0-.3-.1-.3-.3v-3.2c0-.2 0-.3.2-.3 1.3 0 2.5-.1 3.8.1.8.1 1.4.5 1.6 1.3.1.6-.1 1.5-.7 1.9z"/></svg>