<svg width="31" height="31" fill="none" xmlns="http://www.w3.org/2000/svg"><path d="M17.672 3.825c.452 1.9.361 2.805-2.262 4.976-2.624 2.172-2.986 2.172-2.986 3.53 0 1.356 1.99 3.528 2.986 4.07 0 0-.181-.361-.543-.995-.362-.543-1.448-1.538-1.267-3.076.181-1.538 3.348-3.438 4.252-4.886.815-1.357.634-2.533-.18-3.619Z" fill="#000" stroke="#000" stroke-width=".2"/><path d="M20.567 8.62c-2.262.724-5.067 1.9-5.067 4.162s1.448 1.81 1.448 3.076c0 1.177-.815 1.538-.815 1.538s2.081-.814 1.99-2.352c-.09-1.538-1.356-1.357-1.356-2.805.09-1.81 3.8-3.619 3.8-3.619Z" fill="#000" stroke="#000" stroke-width=".2"/><path d="M12.605 16.673c-2.262 0-3.8.815-3.8 1.267 0 .452 2.805.905 5.79.724 2.986-.181 4.615-.453 5.79-1.177 0 0-2.08.453-3.709.453-1.628 0-6.243.271-6.152-.362.09-.724 2.805-.905 2.805-.905h-.724Zm-.815 2.624c-1.176.453-1.538.814-.814 1.267.724.452 2.081.543 3.981.543s4.524-.634 4.524-.634l-.814-.633s-1.176.452-3.438.452c-2.262 0-4.524.09-3.438-.995Zm.543 2.534c-1.176.361-1.447.904-.362 1.447.996.453 2.986.543 4.524.362a12.425 12.425 0 0 0 2.715-.633s-.815-.272-1.177-.634c0 0-1.719.362-3.347.362-1.629 0-2.986-.271-2.353-.904Zm8.686-5.067s.543-.724 1.99-.181c1.448.543 1.358 2.171.091 3.076-1.267.905-2.805 1.267-2.805 1.267s2.896-1.267 2.805-2.805c-.09-1.538-1.357-1.448-2.08-1.357Z" fill="#000" stroke="#000" stroke-width=".2"/><path d="M9.528 24.996c4.434.815 11.22 0 12.396-.271 1.176-.272.724-.905.724-.905.27.181.452.453.27.724-.633 1.357-6.875 1.538-8.685 1.538-1.81 0-7.329-.09-7.329-1.086 0-.995 2.624-1.628 3.62-1.357-1.9.453-2.986.995-.996 1.357Z" fill="#000" stroke="#000" stroke-width=".2"/><path d="M10.07 26.445s1.538 1.176 9.41.543c3.167-.271 4.433-.995 4.614-1.9 0 0-1.447.814-3.166 1.176-1.9.271-4.796.814-10.858.181Z" fill="#000" stroke="#000" stroke-width=".2"/></svg>