<svg xmlns="http://www.w3.org/2000/svg" viewBox="0 0 31 31" style="enable-background:new 0 0 31 31" xml:space="preserve"><path d="M19.1 25.5c0-.4-.2-.8-.6-1-.9-.4-1.8-.2-2.7.1-.1 0-.1.1-.1.2s.1.3.1.4c.3-.1.6-.2.9-.2.9-.1 1.6 0 1.4 1.2h-.8c-.6.1-1.2.2-1.6.7-.6.7-.4 2 .5 2.2.4.1.8 0 1.2 0 .3-.1.5-.3.8-.4.1.5.3.6.8.4.1-1.2.1-2.4.1-3.6zm-1 2.6c-.1.2-.8.5-1.2.5-.4-.1-.5-.3-.5-.6 0-.5.2-.8.7-.9.3-.1.7-.1 1.1-.1v.9c0 .1 0 .1-.1.2zM10.3 25.5c0-.5-.4-1-1-1.1-.8-.2-1.6 0-2.3.2-.1 0-.1.2-.2.3 0 .1 0 .2.1.3.3-.1.6-.2.9-.2.9-.1 1.6 0 1.4 1.2h-.7c-.4.1-.9.2-1.3.3-.6.3-.9 1-.7 1.8.3.7.8 1 1.5 1 .6 0 1-.2 1.5-.6.1.5.3.6.9.4-.1-1.2 0-2.4-.1-3.6zm-.9 2.4v.1c-.1.2-.8.6-1.2.5-.3 0-.5-.2-.6-.6 0-.5.1-.8.6-.9h1.2v.9zM15.1 24.4c-.3 1.6-.7 3.1-1.4 4.5-.1.2-.2.3-.4.3-.9 0-.9 0-1.2-.8-.4-1.2-.7-2.4-1.1-3.7 0-.1 0-.2-.1-.3h.9c.1 0 .2.2.2.3.3 1 .6 2.1.9 3.1 0 .1.1.1.2.2l.6-2.1c.1-.4.2-.8.2-1.3 0-.2.1-.3.3-.3.4.1.6.1.9.1zM4.7 22.8h1v5.7c0 .7-.1 1.4-.6 1.9-.4.5-.5.5-1 0 .4-.5.5-1.1.5-1.7v-5.4c.1-.2.1-.3.1-.5zM23.2 25.4c-.2-.1-.3-.1-.4-.2-.5-.3-.9-.7-1-1.3 0-.7.2-1.3.8-1.6 1-.5 2-.5 3.1 0 .6.3.9.8.8 1.5-.1.6-.4 1.1-.9 1.3-.1 0-.2.1-.4.2.1.1.2.1.2.1.9.4 1.3.9 1.3 1.8 0 1-.5 1.8-1.4 2.1-.8.3-1.6.3-2.5 0-.8-.3-1.3-.9-1.3-1.9 0-1 .4-1.6 1.2-2 .2.1.3.1.5 0zm-.1 2c.1.4.1.8.2 1.1.1.4.4.7.8.7s.7-.2.8-.6c.3-.8.3-1.7 0-2.5-.2-.4-.4-.6-.9-.6-.4 0-.7.3-.8.6 0 .5 0 .9-.1 1.3zm.1-3.6c.1.3.1.5.2.8.1.4.4.6.8.6s.7-.3.8-.6c.2-.6.2-1.1 0-1.7-.1-.3-.4-.5-.7-.5-.4 0-.7.2-.8.5-.2.3-.2.6-.3.9z"/><g><path d="M17.2.2c.4 1.7.3 2.5-2 4.5s-2.7 2-2.7 3.2 1.8 3.1 2.6 3.6c0 0-.1-.3-.5-.9s-1.3-1.4-1.1-2.7 3-3.1 3.7-4.4c.9-1.3.7-2.4 0-3.3z"/><path d="M19.8 4.5c-2 .7-4.5 1.7-4.5 3.7s1.3 1.6 1.3 2.7-.7 1.4-.7 1.4 1.8-.7 1.8-2.1c-.1-1.4-1.2-1.2-1.2-2.5 0-1.6 3.3-3.2 3.3-3.2z"/><path d="M12.7 11.6c-2 0-3.4.7-3.4 1.2 0 .4 2.5.8 5.1.6s4.1-.4 5.1-1c0 0-1.9.4-3.3.4s-5.6.3-5.5-.4c.1-.6 2.5-.8 2.5-.8h-.5zM12 14c-1.1.4-1.3.8-.7 1.2.6.4 1.8.5 3.5.5s4-.6 4-.6l-.8-.6s-1 .4-3 .4-4 0-3-.9zM12.5 16.2c-1 .4-1.3.8-.3 1.3.9.4 2.7.5 4 .3 1.3-.2 2.4-.6 2.4-.6s-.7-.3-1-.6c0 0-1.5.3-3 .3s-2.7-.1-2.1-.7zM20.2 11.8s.5-.7 1.8-.2c1.3.5 1.2 1.9.1 2.8-1.1.8-2.5 1.1-2.5 1.1s2.6-1.1 2.5-2.5c-.1-1.4-1.3-1.4-1.9-1.2z"/><path d="M10 19.1c3.9.7 10 0 11-.3 1.1-.3.7-.8.7-.8.3.2.4.4.3.6-.6 1.2-6.1 1.4-7.7 1.4s-6.6-.1-6.6-1 2.3-1.4 3.2-1.2c-1.7.4-2.7.9-.9 1.3z"/><path d="M10.4 20.3s1.4 1.1 8.4.5c2.8-.2 3.9-.9 4.1-1.7 0 0-1.3.7-2.9 1-1.6.3-4.2.8-9.6.2z"/></g></svg>