<svg width="32" height="31" fill="none" xmlns="http://www.w3.org/2000/svg"><path fill-rule="evenodd" clip-rule="evenodd" d="M25.197 10.367c.007.025.01.05.01.076v4.025a.293.293 0 0 1-.147.255l-3.378 1.944v3.855a.294.294 0 0 1-.146.255l-7.052 4.059c-.016.01-.033.015-.051.021l-.02.008a.297.297 0 0 1-.15 0c-.008-.002-.016-.006-.023-.01-.016-.005-.033-.01-.049-.02l-7.05-4.058a.294.294 0 0 1-.147-.255V8.448a.3.3 0 0 1 .01-.077c.003-.008.008-.016.01-.024.006-.016.011-.031.02-.046.005-.01.013-.017.02-.026.008-.012.016-.024.026-.034.008-.008.02-.015.029-.022.01-.009.02-.018.032-.025l3.525-2.03a.294.294 0 0 1 .294 0l3.525 2.03c.012.007.022.016.033.025.01.007.02.014.028.022.01.01.018.022.027.034l.02.026c.008.015.013.03.019.046.003.008.008.016.01.025.007.025.01.05.01.076v7.542l2.938-1.692v-3.855c0-.026.003-.052.01-.076l.01-.025c.006-.016.011-.031.02-.046.005-.01.013-.017.02-.026.008-.011.015-.024.026-.034.008-.008.018-.014.028-.022.011-.009.02-.018.032-.025l3.526-2.03a.294.294 0 0 1 .294 0l3.525 2.03c.012.007.022.016.033.025.009.007.02.014.028.022.01.01.018.022.026.034.007.01.015.017.02.026.009.015.013.03.02.046l.01.025Zm-.577 3.931v-3.347l-1.233.71-1.705.982v3.347l2.939-1.692Zm-3.525 6.054v-3.349l-1.676.958-4.787 2.732v3.38l6.463-3.72ZM7.582 8.956v11.396l6.462 3.721v-3.38l-3.376-1.91-.001-.001-.002-.001-.031-.024c-.01-.008-.02-.013-.028-.022-.01-.01-.017-.021-.025-.031-.007-.01-.016-.019-.022-.029v-.001c-.007-.011-.01-.024-.016-.037-.004-.01-.01-.021-.013-.033-.004-.014-.005-.029-.006-.043-.002-.011-.005-.022-.005-.033v-7.88l-1.704-.982-1.233-.71Zm3.231-2.198-2.937 1.69 2.937 1.691 2.936-1.691-2.936-1.69Zm1.528 10.55 1.704-.98V8.956l-1.234.71-1.704.982v7.371l1.234-.71Zm9.048-8.555-2.937 1.69 2.937 1.691 2.936-1.691-2.936-1.69Zm-.294 3.89-1.704-.981-1.234-.71v3.346l1.704.981 1.234.71v-3.346Zm-6.757 7.542 4.307-2.46 2.153-1.228-2.934-1.69-3.379 1.946-3.08 1.772 2.933 1.66Z" fill="#000" stroke="#000" stroke-width=".3"/></svg>