<svg width="60" height="61" viewBox="0 0 60 61" fill="none" xmlns="http://www.w3.org/2000/svg">
<path d="M49.7478 12.71C49.6848 12.6884 49.6188 12.671 49.5498 12.6644C42.4362 11.9528 36.7242 10.3778 30.24 4.73301C29.8764 4.41741 29.3262 4.45521 29.01 4.81821C28.992 4.83861 28.9866 4.86501 28.971 4.88661C22.539 10.4438 16.854 12.0068 9.786 12.713C9.7692 12.7148 9.7542 12.7202 9.738 12.7226C9.7104 12.7268 9.6834 12.7322 9.657 12.7388C9.6276 12.7466 9.5994 12.755 9.5712 12.7652C9.5454 12.7748 9.5208 12.785 9.4962 12.797C9.4698 12.8096 9.444 12.8234 9.4194 12.839C9.396 12.8534 9.3738 12.8684 9.3522 12.8846C9.3294 12.9014 9.3084 12.9194 9.2874 12.938C9.2664 12.9572 9.2466 12.977 9.2274 12.9986C9.21 13.0184 9.1932 13.0382 9.177 13.0592C9.159 13.0832 9.1422 13.1084 9.1266 13.1342C9.1134 13.1558 9.102 13.1774 9.0906 13.2002C9.0768 13.2284 9.0648 13.2566 9.0546 13.286C9.0462 13.31 9.0384 13.334 9.0324 13.3586C9.0246 13.3892 9.018 13.4198 9.0132 13.4516C9.0096 13.4774 9.0066 13.5032 9.0054 13.5296C9.0042 13.547 9 13.5632 9 13.5806V35.9942C9 36.0716 9.0102 36.1478 9.0306 36.2222C12.93 50.6012 28.6608 57.4346 29.3286 57.7178C29.4378 57.764 29.5536 57.7874 29.6694 57.7874C29.784 57.7874 29.8992 57.7646 30.0072 57.7196C30.6822 57.4352 46.5942 50.603 50.493 36.2222C50.5056 36.1766 50.514 36.1304 50.5188 36.083L50.595 35.3366C50.598 35.3072 50.5998 35.2772 50.5998 35.2484V13.58C50.5998 13.1054 50.22 12.7208 49.7478 12.71ZM48.7914 35.8346C45.3912 48.2222 31.9854 54.8912 29.6712 55.9598C27.3774 54.89 14.1672 48.2492 10.7436 35.8772V14.3618C17.6406 13.5992 23.3298 11.9192 29.6964 6.5528C36.1218 11.9474 41.8608 13.5938 48.8562 14.3426V35.2034L48.7914 35.8346Z" fill="#5AA3DA"/>
<path d="M33.7349 21.8531C33.7349 21.3557 33.3317 20.9531 32.8349 20.9531H26.6669C26.1695 20.9531 25.7669 21.3557 25.7669 21.8531V27.3767H20.5001C20.0027 27.3767 19.6001 27.7793 19.6001 28.2767V34.4447C19.6001 34.9415 20.0027 35.3447 20.5001 35.3447H25.7669V40.3541C25.7669 40.8509 26.1695 41.2541 26.6669 41.2541H32.8349C33.3317 41.2541 33.7349 40.8509 33.7349 40.3541V35.3447H39.0023C39.4991 35.3447 39.9023 34.9415 39.9023 34.4447V28.2767C39.9023 27.7793 39.4991 27.3767 39.0023 27.3767H33.7349V21.8531ZM38.1023 29.1767V33.5447H32.8349C32.3381 33.5447 31.9349 33.9479 31.9349 34.4447V39.4541H27.5669V34.4447C27.5669 33.9479 27.1643 33.5447 26.6669 33.5447H21.4001V29.1767H26.6669C27.1643 29.1767 27.5669 28.7741 27.5669 28.2767V22.7531H31.9349V28.2767C31.9349 28.7741 32.3381 29.1767 32.8349 29.1767H38.1023Z" fill="#FF9C42"/>
</svg>
