<svg width="31" height="31" fill="none" xmlns="http://www.w3.org/2000/svg"><path fill-rule="evenodd" clip-rule="evenodd" d="M14.73 6.037h-.702v18.929h.702a.5.5 0 0 0 .5-.5V6.537a.5.5 0 0 0-.5-.5Zm-2.682 18.72c.625.134 1.26.203 1.895.209h.085v-1.113c-.463 0-.925-.039-1.383-.115l-.34-1.859a2.224 2.224 0 0 0-2.939-1.697l-1.778.636a8.34 8.34 0 0 1-1.386-2.396L7.643 17.2a2.224 2.224 0 0 0 0-3.396l-1.44-1.222a8.34 8.34 0 0 1 1.385-2.396l1.777.635a2.226 2.226 0 0 0 2.94-1.697l.34-1.858a8.41 8.41 0 0 1 1.382-.115V6.038c-.663 0-1.326.07-1.979.208a.557.557 0 0 0-.43.445l-.41 2.234a1.113 1.113 0 0 1-1.469.848L7.604 9.01a.557.557 0 0 0-.601.152 9.453 9.453 0 0 0-1.982 3.428.557.557 0 0 0 .17.595l1.73 1.47a1.114 1.114 0 0 1 0 1.696l-1.73 1.47a.557.557 0 0 0-.17.596 9.453 9.453 0 0 0 1.982 3.428.557.557 0 0 0 .601.15l2.135-.763a1.116 1.116 0 0 1 1.47.848l.408 2.235a.557.557 0 0 0 .431.444Zm1.979-6.472v-1.113a1.67 1.67 0 1 1 0-3.34V12.72a2.784 2.784 0 0 0 0 5.566Z" fill="#000"/><mask id="a" fill="#fff"><path d="M24.53 20.89c-.492 1.284-1.986 2.103-3.58 2.103a.081.081 0 0 0-.079.06c-.157.58-.537 1.1-1.083 1.478a3.534 3.534 0 0 1-2 .603c-.52 0-1.006-.11-1.436-.302a1.066 1.066 0 0 1-.432-.356.845.845 0 0 1-.154-.493V6.854a.872.872 0 0 1 .248-.608c.162-.172.39-.292.645-.339a3.078 3.078 0 0 1 1.683.194c.847.343 1.343 1.109 1.343 1.906 0 .027.025.048.052.044a3.692 3.692 0 0 1 1.834.174 3.07 3.07 0 0 1 1.435 1.048c.34.466.503 1.009.468 1.555a2.418 2.418 0 0 1-.54 1.357c-.05.063-.015.161.064.175.817.145 1.557.515 2.102 1.054.587.582.909 1.32.908 2.085 0 1.101-.654 2.07-1.65 2.656a.105.105 0 0 0-.037.145c.444.728.577 1.631.209 2.59Z"/></mask><path d="m24.53 20.89-.934-.357.934.358Zm-6.742 4.244v1-1Zm-1.436-.302-.421.907.008.004.007.004.406-.915Zm-.586-.85 1 .015v-.014h-1Zm0-17.128h1v-.01l-1 .01Zm.893-.947-.162-.986-.01.001-.01.002.182.983Zm1.683.194-.388.922.013.005.375-.927Zm5.132 4.727-.998-.064.998.064Zm2.534 4.671h-1 1Zm-1.65 2.656-.507-.862.507.862Zm-.037.145-.853.52.853-.52ZM19.737 8.051l-.156-.988.156.988Zm3.197 4.133-.78-.625.78.626Zm-2.063 10.87-.965-.261.965.26Zm2.725-2.52c-.3.782-1.33 1.46-2.646 1.46v2c1.871 0 3.83-.961 4.514-2.745l-1.868-.716Zm-3.69 2.259c-.089.328-.314.658-.687.915l1.137 1.646c.72-.497 1.256-1.207 1.48-2.039l-1.93-.523Zm-.687.915a2.536 2.536 0 0 1-1.431.426v2c.919 0 1.826-.268 2.568-.78l-1.137-1.646Zm-1.431.426c-.377 0-.725-.08-1.03-.216l-.812 1.829a4.536 4.536 0 0 0 1.842.387v-2Zm-1.015-.209a.141.141 0 0 1-.03-.018c-.005-.003-.004-.004 0 .002l-1.646 1.135c.213.31.507.544.834.695l.842-1.814Zm-.03-.017a.157.157 0 0 1 .023.09l-2-.03c-.006.392.115.764.33 1.076l1.647-1.136Zm.023.075V6.854h-2v17.129h2Zm0-17.14c0 .027-.005.05-.012.067-.007.016-.014.023-.013.023L15.286 5.56a1.871 1.871 0 0 0-.52 1.305l2-.021Zm-.025.09a.196.196 0 0 1 .1-.042l-.363-1.967c-.444.082-.87.295-1.192.636l1.455 1.373Zm.08-.039c.39-.064.79-.016 1.133.128l.777-1.843a4.077 4.077 0 0 0-2.234-.258l.324 1.973Zm1.146.134c.484.196.718.605.718.979h2c0-1.22-.758-2.343-1.967-2.833l-.751 1.854Zm1.927 2.01c.452-.07.919-.026 1.333.126l.687-1.878a4.692 4.692 0 0 0-2.333-.223l.313 1.976Zm1.333.126c.427.156.759.409.971.7l1.615-1.18a4.07 4.07 0 0 0-1.9-1.398l-.686 1.878Zm.971.7c.21.287.298.6.278.9l1.996.129a3.365 3.365 0 0 0-.66-2.21l-1.614 1.18Zm.278.9a1.419 1.419 0 0 1-.323.795l1.561 1.25c.442-.55.713-1.212.758-1.916l-1.996-.13Zm.348 2.58c.635.114 1.185.397 1.572.781l1.407-1.421c-.702-.695-1.631-1.151-2.63-1.329l-.35 1.97Zm1.572.781c.414.41.613.9.612 1.374l2 .001c.001-1.054-.445-2.044-1.205-2.796l-1.407 1.421Zm.612 1.374c0 .678-.402 1.35-1.157 1.794l1.013 1.724c1.238-.727 2.144-1.994 2.144-3.518h-2Zm-1.54 3.321c.287.472.382 1.052.128 1.713l1.867.716c.483-1.258.312-2.486-.288-3.47l-1.707 1.041Zm.383-1.527a1.105 1.105 0 0 0-.383 1.527l1.707-1.04a.895.895 0 0 1-.31 1.237l-1.014-1.724Zm-5.166-9.286c0 .652.584 1.13 1.209 1.032l-.313-1.976a.955.955 0 0 1 1.104.944h-2Zm3.468 3.552c-.511.639-.178 1.635.67 1.786l.35-1.97a.89.89 0 0 1 .541 1.435l-1.56-1.25ZM20.95 21.993c-.505 0-.92.344-1.044.8l1.93.522a.919.919 0 0 1-.886.678v-2Z" fill="#000" mask="url(#a)"/><path fill-rule="evenodd" clip-rule="evenodd" d="M18.972 10.34a1.09 1.09 0 0 0-.672 1.95c-.124.217-.326.44-.591.644-.208.16-.431.289-.632.374-.212.09-.358.116-.422.114l-.028 1c.271.007.572-.078.842-.194.282-.12.577-.292.85-.502.396-.304.806-.738 1.002-1.262a1.091 1.091 0 0 0-.349-2.124Zm.009 1.343a.252.252 0 1 0 0-.505.252.252 0 0 0 0 .505ZM18.955 17.4a1.09 1.09 0 0 0-.674 1.949 2.324 2.324 0 0 1-.604.653c-.212.163-.44.294-.643.382-.216.092-.363.118-.426.116l-.028 1c.273.008.576-.08.848-.197.284-.122.582-.296.858-.507.4-.307.817-.745 1.016-1.272a1.091 1.091 0 0 0-.347-2.125Zm-.004 1.346a.255.255 0 1 0 0-.51.255.255 0 0 0 0 .51Z" fill="#000"/><path fill-rule="evenodd" clip-rule="evenodd" d="M19.968 16.67a1.028 1.028 0 0 1-1.02-1.45 8.947 8.947 0 0 0-1.816-.719 2.485 2.485 0 0 0-.476-.095v-1c.196 0 .468.057.736.129.284.076.616.184.951.312.515.197 1.096.463 1.525.771a1.028 1.028 0 0 1 .1 2.052Zm-.052-.767a.252.252 0 1 0 0-.504.252.252 0 0 0 0 .504Z" fill="#000"/></svg>