<svg width="31" height="31" fill="none" xmlns="http://www.w3.org/2000/svg"><path d="M25.383 21.01c-.885 0-1.77.08-2.576.322-.242.08-.644.161-.725.403-.08.242.403.805.564.966.564.644 1.369 1.127 2.174 1.53.402.241.805.402 1.207.724.323.242.645.645 1.047.806 0-.322-.402-.645-.644-.886a9.733 9.733 0 0 0-1.288-1.288c-.322-.242-.725-.483-1.127-.725-.322-.241-.483-.483-.725-.724.483-.081.966-.242 1.45-.323.402-.08.805-.08 1.207-.241.644-.161.403-.322 0-.805a4.236 4.236 0 0 0-1.127-.966c-.725-.564-1.53-1.128-2.416-1.53-.322-.161-.644-.242-.966-.403-.402-.241-.563-.644-.724-1.046-.886-1.772-1.53-3.704-2.657-5.314-.886-1.288-1.933-2.335-3.22-3.301-.645-.483-1.37-.967-2.094-1.289-.403-.16-.805-.322-1.289-.402-.563-.08-1.046.08-1.53-.322-.804-.564-2.093-1.45-3.14-1.127-1.77.644-.08 2.657.564 3.462.564.724.725 1.69 1.047 2.496.161.402.322.885.564 1.288.16.241.644.644.644.886 0 .08-.161.483-.242.644-.08.241-.16.563-.16.805-.081.483-.162.966-.162 1.53 0 .885.161 1.77.483 2.576.322.564.886 1.53 1.691 1.208.886-.403.322-1.61.805-2.174 0 .322.403.966.564 1.207.241.403.563.806.966 1.128.322.322.725.563 1.047.885.322.242.483.564.885.725 0-.161-.805-.805-.966-.966-.402-.483-.725-1.047-1.047-1.53-.322-.564-.644-1.127-.885-1.69-.161-.323-.322-1.289-.644-1.45-.403.644-.806 1.047-.886 1.852-.08.483 0 1.852-.644.966-.805-1.047-.805-2.899-.564-4.106.08-.483.403-.966.483-1.45.161-.644-.322-.885-.724-1.449-.483-.563-.725-1.288-.966-2.093-.242-.805-.645-1.53-1.208-2.254-.242-.323-1.208-1.289-.483-1.691.483-.242 1.369.322 1.771.483.242.16.564.402.805.644.322.241.644.241.966.241.886.081 1.61.242 2.496.725 1.369.725 2.577 1.771 3.543 2.98 1.047 1.287 1.61 2.737 2.335 4.186.402.805.724 1.69 1.208 2.496.402.724.805.885 1.61 1.127.805.241 1.53.644 2.174 1.127.402.242 1.449.725 1.53 1.127Z" fill="#000" stroke="#000" stroke-width=".3"/><path fill-rule="evenodd" clip-rule="evenodd" d="M11.456 9.096c-.274 0-.457 0-.64.091.092.274.366.457.548.64.092.273.183.547.366.821.274-.182.365-.456.365-.822-.091-.091-.091-.274-.183-.365-.09-.183-.365-.274-.456-.365Z" fill="#000"/></svg>