<svg width="31" height="31" fill="none" xmlns="http://www.w3.org/2000/svg"><path d="M13.542 23.708c.01-.1.017-.203.034-.303.012-.079-.012-.118-.086-.147-.903-.367-1.806-.737-2.71-1.107-.944-.386-1.887-.776-2.831-1.167-.086-.037-.142-.035-.21.041-.703.779-1.927.864-2.723.191-.538-.457-.736-1.045-.675-1.745.07-.805.712-1.503 1.463-1.667a2.19 2.19 0 0 1 1.038.025c.088.024.145.012.203-.074.52-.741 1.043-1.478 1.567-2.215.04-.054.049-.088.005-.147-.534-.739-1.065-1.48-1.591-2.227-.054-.076-.105-.054-.167-.04-.443.116-.878.11-1.304-.065-.61-.255-1.006-.703-1.15-1.344-.14-.622-.037-1.207.379-1.714.362-.44.832-.68 1.405-.707.53-.024 1.006.115 1.41.47.078.069.156.144.22.228.046.06.083.053.142.029 1.187-.512 2.377-1.02 3.564-1.532l1.95-.84c.084-.034.11-.07.103-.171-.058-.85.274-1.505 1.014-1.924.45-.255.947-.294 1.444-.162.869.228 1.422.953 1.444 1.85a.35.35 0 0 0 .083.204c.24.262.487.514.735.771l2.087 2.164a936.493 936.493 0 0 1 3.231 3.373c.057.059.09.07.172.03 1.211-.615 2.685.08 2.863 1.453.113.86-.266 1.64-1.027 2.027a1.926 1.926 0 0 1-1.62.078c-.187-.073-.29-.066-.437.088-.741.786-1.503 1.552-2.256 2.326-.52.533-1.038 1.072-1.557 1.605-.548.566-1.097 1.129-1.643 1.694-.195.2-.391.404-.582.61a.291.291 0 0 0-.078.168c-.03.901-.732 1.64-1.55 1.807-.96.196-1.982-.365-2.264-1.297-.061-.204-.08-.421-.12-.632.012 0 .02-.003.025-.005Zm-.04-11.203c.013-.037.022-.059.027-.083.184-.994 1.102-1.74 2.27-1.547.927.154 1.544.871 1.605 1.814.005.073.032.11.1.13.218.068.434.139.65.21.942.31 1.884.624 2.824.935.624.205 1.25.411 1.875.621.083.027.124.023.176-.058.08-.13.174-.257.279-.367.069-.071.069-.11.002-.18-.215-.217-.425-.437-.636-.658-.519-.54-1.035-1.081-1.554-1.62-.69-.717-1.38-1.43-2.071-2.146-.453-.47-.903-.94-1.354-1.413-.085-.09-.164-.188-.264-.303-.277.746-.751 1.219-1.493 1.358-.732.137-1.378-.051-1.9-.626-.822 1.162-1.637 2.31-2.462 3.478.661.156 1.292.303 1.926.455Zm.583 9.842c.548-.524 1.19-.695 1.91-.521.736.176 1.182.67 1.419 1.388.04-.037.069-.061.095-.09l.852-.877c.51-.526 1.018-1.055 1.53-1.581a1011.752 1011.752 0 0 1 3.483-3.581c.054-.057.052-.093-.005-.15a1.429 1.429 0 0 1-.245-.286c-.068-.113-.14-.11-.25-.071-.907.316-1.82.624-2.73.935-.85.291-1.7.58-2.551.866-.076.027-.108.064-.118.145a1.847 1.847 0 0 1-.676 1.246c-.447.372-.964.494-1.54.43-.758-.085-1.465-.702-1.624-1.439-.025-.11-.04-.22-.062-.342-.658.154-1.304.303-1.97.457.832 1.168 1.655 2.313 2.482 3.471Zm-2.051-6.846c.03.032.044.054.063.069.6.482 1.2.966 1.797 1.448.056.045.088.035.13-.017.392-.462.888-.685 1.498-.692.925-.01 1.703.582 1.914 1.48l.049.213c.274-.092.536-.183.795-.271 1.036-.353 2.071-.705 3.107-1.06.457-.157.915-.313 1.373-.468.07-.024.11-.049.085-.137a2.116 2.116 0 0 1-.031-.966c.017-.098-.013-.123-.096-.15-.658-.213-1.314-.43-1.97-.648-1.009-.333-2.015-.669-3.02-1.002-.11-.036-.224-.068-.344-.105-.198.793-.67 1.33-1.466 1.51-.788.18-1.47-.046-2.007-.67-.634.49-1.253.976-1.877 1.466Zm1.79 7.177c-.02-.035-.04-.071-.062-.103l-.654-.916-1.867-2.611c-.037-.052-.069-.074-.14-.06-.92.219-1.843.432-2.766.642-.063.015-.083.04-.09.103-.025.272-.059.541-.179.793-.027.059-.002.086.054.108.193.076.384.156.575.235 1.618.663 3.234 1.326 4.854 1.987.051.022.115.108.174.008.039-.057.068-.12.1-.186ZM13.68 7.996c-.032.013-.061.022-.09.035-1.246.538-2.495 1.074-3.74 1.613l-1.66.71c-.054.024-.098.039-.078.122.058.24.105.482.164.722.01.037.049.08.085.09.14.042.284.072.426.106.759.178 1.518.36 2.279.536.042.01.115-.017.14-.052.215-.296.423-.597.636-.896.612-.864 1.221-1.728 1.843-2.584.103-.15.11-.26-.005-.402ZM10.18 14.02c.058.05.107.09.159.132.426.343.851.683 1.272 1.028.079.064.13.057.199-.002.076-.066.159-.127.237-.191.529-.414 1.058-.827 1.584-1.244.027-.021.039-.083.032-.12a11.45 11.45 0 0 0-.16-.633c-.01-.04-.044-.096-.075-.103-.676-.162-1.351-.32-2.03-.473-.031-.007-.09.022-.11.052-.247.343-.492.69-.736 1.035-.125.17-.245.343-.373.52Zm1.206 4.509.44-.105c.557-.13 1.115-.262 1.673-.387.07-.017.098-.05.11-.12.024-.135.058-.272.107-.4.032-.08.02-.122-.044-.173-.634-.509-1.265-1.02-1.897-1.535-.051-.041-.085-.039-.134 0-.45.355-.903.708-1.354 1.06-.049.04-.068.071-.024.13.35.485.695.972 1.045 1.456.017.035.054.054.078.074Zm-.475-6.23c-.056-.017-.093-.031-.132-.039l-1.207-.286c-.403-.096-.805-.191-1.206-.291-.096-.025-.142-.01-.167.1-.029.13-.083.255-.144.374-.04.081-.037.125.037.184.381.304.76.612 1.143.918.208.169.418.335.636.511.345-.492.688-.974 1.04-1.47Zm.015 6.333c-.017-.032-.024-.05-.034-.064-.311-.438-.622-.874-.933-1.315-.044-.063-.085-.058-.142-.014-.151.122-.306.242-.46.362-.43.34-.861.678-1.295 1.016-.063.051-.083.09-.041.171.06.123.112.252.151.384.022.074.052.093.12.076.115-.029.228-.056.343-.083l1.743-.404c.178-.039.36-.083.548-.13Zm.46-3.129c-.487-.391-.954-.77-1.439-1.16-.26.37-.512.727-.761 1.09-.012.017-.005.063.01.085.242.34.49.68.734 1.02.041.06.076.057.127.013.088-.073.179-.14.27-.21.345-.275.692-.549 1.06-.838Zm-1.718 1.352c-.252-.353-.497-.693-.751-1.05-.537.756-1.058 1.49-1.574 2.222.142.12.266.228.401.34a356.51 356.51 0 0 1 1.924-1.512ZM7.351 12.94c.517.72 1.03 1.439 1.572 2.193.02-.042.024-.061.037-.079.21-.296.418-.59.631-.883.051-.071.02-.105-.037-.147-.264-.208-.521-.419-.78-.63-.309-.246-.615-.496-.92-.743-.045-.034-.084-.08-.148-.022-.11.103-.225.198-.355.31Z" fill="#000" stroke="#000" stroke-width=".2"/></svg>