<svg width="31" height="31" fill="none" xmlns="http://www.w3.org/2000/svg"><path d="M7.9 12.3c0-.1-.1-.2-.2-.3l-2.5-1.5H5L2.4 12c-.1.1-.2.2-.2.3v3.9c0 .1 0 .1.1.1h.2l1.5-.8c.1-.1.2-.2.2-.3v-1.8c0-.1.1-.2.2-.3l.6-.4c.1-.1.2-.1.3 0l.6.4c.1.1.1.2.1.3v1.8c0 .1.1.2.2.3l1.5.9h.2l.1-.1-.1-4Zm12.3-5.4H20l-.1.1v3.9s0 .1-.1.1h-.1l-.6-.4c-.1-.1-.2-.1-.3 0l-2.5 1.5c-.1.1-.2.2-.2.3v2.9c0 .1.1.2.2.3l2.5 1.5c.1.1.2.1.3 0l2.5-1.5c.1-.1.2-.2.2-.3V8c0-.1-.1-.2-.2-.3l-1.4-.8Zm-.3 7.5-.9.5h-.1l-.9-.5v-1.2l.9-.5h.1l.9.5v1.2Zm8.7-1.1c.1-.1.2-.2.2-.3v-.7c0-.1-.1-.2-.2-.3l-2.5-1.5c-.1-.1-.2-.1-.3 0L23.3 12c-.1.1-.2.2-.2.3v2.9c0 .1.1.2.2.3l2.5 1.4c.1.1.2.1.3 0l1.5-.8.1-.1c0-.1 0-.1-.1-.1L25 14.4l-.1-.1v-.9c0-.1 0-.1.1-.1l.8-.5h.2l.8.5.1.1v.7c0 .1 0 .1.1.1h.2l1.4-.9Z" fill="#000"/><path d="m25.9 13.2.5.3v.8l-.4.1h-.1l-.5-.3v-.8l.5-.1Zm-11.2-1.1-2.5-1.5H12L9.5 12c-.1.1-.2.2-.2.3v2.9c0 .1 0 .1.1.2l.1.1L12 17h.1l2.5-1.5c.1-.1.2-.2.2-.3v-2.9c.1-.1 0-.2-.1-.2ZM15.501 22.543a.487.487 0 0 1-.242-.065l-.772-.455c-.115-.065-.059-.087-.02-.1a1.56 1.56 0 0 0 .348-.16c.017-.01.04-.006.058.005l.592.35a.079.079 0 0 0 .072 0l2.31-1.33a.073.073 0 0 0 .036-.063v-2.66a.074.074 0 0 0-.036-.064l-2.31-1.33a.071.071 0 0 0-.07 0L13.156 18a.073.073 0 0 0-.037.063v2.66c0 .026.014.05.036.063l.633.364c.343.172.553-.03.553-.233V18.29c0-.037.03-.066.067-.066h.293c.037 0 .067.029.067.066v2.628c0 .457-.25.72-.685.72-.133 0-.239 0-.532-.145l-.607-.349a.487.487 0 0 1-.242-.42v-2.661c0-.173.093-.335.242-.42l2.313-1.332a.508.508 0 0 1 .486 0l2.31 1.332c.15.086.243.247.243.42v2.661a.488.488 0 0 1-.242.42l-2.31 1.332a.487.487 0 0 1-.244.065" fill="#000"/><path d="M16.022 20.792c-1.01 0-1.221-.5-1.221-.92 0-.04.03-.072.067-.072h.298c.032 0 .06.026.065.06.046.329.18.494.79.494.486 0 .693-.118.693-.397 0-.16-.059-.28-.814-.36-.632-.067-1.023-.217-1.023-.763 0-.502.393-.802 1.05-.802.74 0 1.106.277 1.152.872a.076.076 0 0 1-.018.056.067.067 0 0 1-.05.023h-.299a.068.068 0 0 1-.064-.056c-.073-.345-.247-.456-.721-.456-.531 0-.593.2-.593.35 0 .181.073.234.79.336.708.102 1.045.246 1.045.784 0 .543-.42.854-1.15.854l.003-.003Z" fill="#000"/></svg>