<svg width="42" height="31" fill="none" xmlns="http://www.w3.org/2000/svg"><path d="M18.508 16.256h1.93l-1.009-2.151L17.586 18h-.833l2.237-4.71a.512.512 0 0 1 .439-.29c.176 0 .351.116.439.29L22.149 18h-.833l-.395-.872h-1.93l-.483-.872Zm8.774.872v-4.07h-.702v4.477c0 .116.044.232.088.349.088.116.175.116.263.116h3.29l.44-.872h-3.379Zm-11.845-.756c.702 0 1.272-.756 1.272-1.686 0-.93-.57-1.686-1.272-1.686h-3.16v4.942h.703v-4.07h2.369c.35 0 .614.349.614.814 0 .465-.263.814-.614.814H13.33l2.15 2.5h1.052l-1.447-1.628h.35ZM7.89 18c-1.009 0-1.886-1.105-1.886-2.442 0-1.337.833-2.5 1.886-2.5h2.15c1.01 0 1.843 1.105 1.843 2.5S11.049 18 10.04 18H7.89Zm2.106-.872c.658 0 1.229-.698 1.229-1.57 0-.872-.527-1.628-1.229-1.628H7.934c-.658 0-1.228.698-1.228 1.628 0 .872.526 1.57 1.228 1.57h2.062Zm13.6.872c-1.008 0-1.886-1.105-1.886-2.442 0-1.337.834-2.5 1.887-2.5h2.588l-.438.872H23.64c-.658 0-1.229.698-1.229 1.628 0 .872.527 1.57 1.229 1.57h2.588l-.438.872h-2.194Zm8.775-.872c-.57 0-1.009-.465-1.14-1.163h3.07l.44-.872h-3.466c.131-.698.614-1.163 1.14-1.163h2.106l.439-.872h-2.589c-1.009 0-1.886 1.105-1.886 2.5S31.319 18 32.371 18h2.194l.439-.872H32.37Z" fill="#000" stroke="#000" stroke-width=".2"/></svg>