<svg xmlns="http://www.w3.org/2000/svg" viewBox="0 0 80 31" style="enable-background:new 0 0 80 31" xml:space="preserve"><path d="M35.146 17.816h4.4l-2.3-3.7-4.2 6.7h-1.9l5.1-8.1c.2-.3.6-.5 1-.5s.8.2 1 .5l5.2 8.1h-1.9l-.9-1.5h-4.4l-1.1-1.5zm20 1.5v-7h-1.6v7.7c0 .2.1.4.2.6.2.2.4.2.6.2h7.5l1-1.5h-7.7zm-27-1.3c1.6 0 2.9-1.3 2.9-2.9 0-1.6-1.3-2.9-2.9-2.9h-7.2v8.5h1.6v-7h5.4c.8 0 1.4.6 1.4 1.4 0 .8-.6 1.4-1.4 1.4h-4.6l4.9 4.3h2.4l-3.3-2.8h.8zm-17.2 2.8c-2.3 0-4.3-1.9-4.3-4.2s1.9-4.3 4.3-4.3h4.9c2.3 0 4.2 1.9 4.2 4.3s-1.9 4.2-4.2 4.2h-4.9zm4.8-1.5c1.5 0 2.8-1.2 2.8-2.7 0-1.5-1.2-2.8-2.8-2.8h-4.7c-1.5 0-2.8 1.2-2.8 2.8 0 1.5 1.2 2.7 2.8 2.7h4.7zm31 1.5c-2.3 0-4.3-1.9-4.3-4.2s1.9-4.3 4.3-4.3h5.9l-1 1.5h-4.8c-1.5 0-2.8 1.2-2.8 2.8 0 1.5 1.2 2.7 2.8 2.7h5.9l-1 1.5h-5zm20-1.5c-1.3 0-2.3-.8-2.6-2h7l1-1.5h-7.9c.3-1.2 1.4-2 2.6-2h4.8l1-1.5h-5.9c-2.3 0-4.3 1.9-4.3 4.3s1.9 4.2 4.3 4.2h5l1-1.5h-6M73.446 13.216c0-.4.3-.7.7-.7.4 0 .8.3.8.7 0 .4-.3.8-.8.8-.4-.1-.7-.4-.7-.8zm.7.9c.5 0 1-.4 1-1 0-.5-.4-1-1-1-.5 0-.9.4-.9 1s.4 1 .9 1zm-.1-1.5h.3c.2.1.2.2.2.3v.1s0 .1-.1.2l.2.4h-.3l-.2-.4h-.1v.4h-.2v-1.1h.2zm.1.5c.1 0 .1 0 .2-.1v-.1c0-.1 0-.1-.1-.1H73.946v.3h.2"/></svg>