<svg width="60" height="61" viewBox="0 0 60 61" fill="none" xmlns="http://www.w3.org/2000/svg">
<path d="M55.4534 42.3357C55.3404 39.1223 54.3388 35.251 52.6345 31.4353C50.9301 27.616 48.7159 24.2849 46.3996 22.0558C43.9088 19.6582 41.5261 18.7803 39.6819 19.5751C39.6669 19.5811 39.6514 19.5835 39.6365 19.5901L37.4731 20.5564V15.4815C37.4731 15.4743 37.4743 15.4672 37.4743 15.46C37.4743 11.4458 30.548 8.41895 21.3627 8.41895C12.1966 8.41895 5.28108 11.4339 5.25239 15.4355C5.25239 15.4438 5.25 15.4516 5.25 15.4606V24.5323C5.25 24.5801 5.25657 24.6267 5.26434 24.6721C5.25657 24.7181 5.25 24.7642 5.25 24.812C5.25 24.8938 5.25717 24.9739 5.26315 25.0546C5.25657 25.0976 5.25 25.1401 5.25 25.1849V34.2566C5.25 34.305 5.25657 34.3516 5.26434 34.3976C5.25657 34.4436 5.25 34.4903 5.25 34.5387C5.25 34.6409 5.25777 34.7419 5.26614 34.8423C5.25598 34.8948 5.25 34.9492 5.25 35.0048V44.0765C5.25 44.1243 5.25657 44.1709 5.26434 44.2164C5.25657 44.2624 5.25 44.3084 5.25 44.3562C5.25 48.3697 12.1775 51.396 21.3639 51.396C27.1996 51.396 32.5177 50.0646 35.3169 47.9598C37.8221 51.212 40.5173 53.1291 42.7745 53.1291C43.289 53.1291 43.7821 53.0299 44.2434 52.8237L52.7504 49.0235C52.7588 49.0199 52.7677 49.0175 52.7761 49.014C54.6257 48.1887 55.5765 45.8168 55.4534 42.3357ZM31.3566 23.2887L31.0984 23.4022C29.3217 24.1964 28.4241 26.3861 28.3942 29.3855C26.2488 29.8546 23.844 30.1134 21.3645 30.1134C12.8916 30.1134 6.98725 27.3195 6.98725 24.8114C6.98725 24.7636 6.98068 24.717 6.97291 24.6715C6.98068 24.6255 6.98725 24.5795 6.98725 24.5317V18.7391C9.59761 21.0118 14.9235 22.501 21.3633 22.501C27.8014 22.501 33.1255 21.013 35.737 18.7409V21.3321L31.3566 23.2887ZM6.97291 34.3976C6.98068 34.3516 6.98725 34.305 6.98725 34.2566V28.0905C9.5988 30.362 14.9247 31.8506 21.3645 31.8506C23.8494 31.8506 26.2823 31.6122 28.4701 31.1592C28.6703 33.365 29.2614 35.8863 30.2456 38.5504C27.6114 39.4032 24.6311 39.8401 21.3645 39.8401C12.8916 39.8401 6.98725 37.0462 6.98725 34.5393C6.98725 34.4903 6.98068 34.4436 6.97291 34.3976ZM21.3633 10.1556C29.8273 10.1556 35.7269 12.9458 35.7376 15.4534C35.7376 15.4558 35.737 15.4576 35.737 15.46V15.4761C35.712 17.9807 29.8165 20.7644 21.3633 20.7644C12.8916 20.7644 6.98845 17.9687 6.98845 15.46C6.98845 12.9512 12.8916 10.1556 21.3633 10.1556ZM21.3645 49.66C12.8916 49.66 6.98725 46.865 6.98725 44.3568C6.98725 44.309 6.98068 44.2624 6.97291 44.217C6.98068 44.1709 6.98725 44.1249 6.98725 44.0771V37.8172C9.5988 40.0887 14.9247 41.5767 21.3645 41.5767C24.8558 41.5767 28.0506 41.0992 30.8839 40.1676C30.998 40.4395 31.1157 40.7126 31.2382 40.9863C32.1669 43.0648 33.211 44.9323 34.3088 46.5536C31.861 48.4283 26.8028 49.66 21.3645 49.66ZM43.7731 51.1295L43.5275 51.2424C41.2333 52.2608 36.2785 48.0106 32.8237 40.2775C29.3725 32.5421 29.5183 26.0108 31.8036 24.9895L37.3619 22.5076C37.0476 23.5456 36.9072 24.8084 36.9592 26.2695C37.0721 29.4823 38.0737 33.3548 39.7787 37.1741C41.4831 40.9917 43.6972 44.3209 46.0135 46.55C47.0695 47.5654 48.1034 48.298 49.0876 48.757L43.7731 51.1295ZM52.0715 47.4267L52.0673 47.4279L52.0614 47.4303C50.9175 47.9359 49.151 47.1596 47.2177 45.2986C45.0586 43.2207 42.9795 40.0839 41.3647 36.466C39.7488 32.8462 38.8004 29.2038 38.6946 26.2086C38.6002 23.5205 39.2026 21.6871 40.3476 21.1767C40.5789 21.0739 40.8341 21.0231 41.1114 21.0231C42.211 21.0231 43.6488 21.8185 45.1954 23.3066C47.3546 25.3845 49.4331 28.5225 51.0484 32.1428C52.6643 35.7596 53.6121 39.4014 53.7179 42.3966C53.8129 45.0811 53.2123 46.914 52.0715 47.4267Z" fill="#5AA3DA"/>
<path fill-rule="evenodd" clip-rule="evenodd" d="M28.4703 31.1785L28.4637 31.1798C28.3944 30.4897 28.3937 29.4703 28.3944 29.4048C28.4243 26.4054 29.3219 24.2157 31.0986 23.4215L31.3567 23.308L34.5659 21.8746L34.6134 21.8652L37.7886 20.4348L39.6366 19.6094C39.6446 19.6058 39.6528 19.6035 39.661 19.6012C39.6681 19.5992 39.6751 19.5972 39.682 19.5944C41.5263 18.7996 43.9089 19.6775 46.3998 22.0751C48.7161 24.3042 50.9302 27.6353 52.6346 31.4546C54.339 35.2703 55.3406 39.1416 55.4535 42.355C55.5767 45.8361 54.6259 48.208 52.7763 49.0333C52.7721 49.0351 52.7677 49.0365 52.7634 49.038L52.761 49.0389C52.7575 49.0401 52.754 49.0414 52.7506 49.0428L44.2436 52.843C43.7822 53.0492 43.2892 53.1484 42.7747 53.1484C40.5434 53.1484 37.8841 51.275 35.4035 48.0906L34.3015 46.5786C34.304 46.5767 34.3065 46.5748 34.3089 46.5729C33.2111 44.9516 32.1671 43.0841 31.2384 41.0056C31.1223 40.7462 31.0105 40.4874 30.902 40.2297L30.2275 38.52C29.2542 35.8742 28.6692 33.3705 28.4703 31.1785ZM43.5276 51.2618L43.7733 51.1488L49.0878 48.7763C48.1035 48.3173 47.0697 47.5847 46.0137 46.5693C43.6974 44.3402 41.4832 41.011 39.7788 37.1934C38.0739 33.3741 37.0723 29.5016 36.9593 26.2888C36.9073 24.8277 37.0478 23.5649 37.3621 22.5269L31.8037 25.0088C29.5185 26.0301 29.3727 32.5614 32.8239 40.2968C36.2786 48.0299 41.2334 52.2801 43.5276 51.2618ZM52.0675 47.4472L52.0717 47.446C53.2125 46.9333 53.8131 45.1004 53.7181 42.4159C53.6123 39.4207 52.6645 35.7789 51.0486 32.1622C49.4332 28.5418 47.3547 25.4038 45.1956 23.3259C43.649 21.8379 42.2111 21.0424 41.1115 21.0424C40.8342 21.0424 40.579 21.0932 40.3478 21.196C39.2028 21.7064 38.6004 23.5398 38.6948 26.2279C38.8006 29.2231 39.749 32.8655 41.3649 36.4853C42.9796 40.1032 45.0587 43.24 47.2179 45.3179C49.1512 47.1789 50.9177 47.9552 52.0615 47.4496L52.0675 47.4472Z" fill="#FF9C42"/>
</svg>
