<svg width="31" height="31" fill="none" xmlns="http://www.w3.org/2000/svg"><path d="M.7 24.3h2c.3 0 .6.1.9.3.3.3.4.8.2 1.1-.2.4-.6.6-1 .6H1.1v1.5H.7v-3.5Zm.4.3v1.5h1.6c.3 0 .6-.1.8-.4.1-.3.1-.6-.1-.8-.2-.2-.5-.2-.7-.2-.6-.1-1.1-.1-1.6-.1Zm9 .2h.4v.8h.6v.2h-.6v1.5c0 .1 0 .3.1.3.2.1.3.1.5 0v.2c-.3 0-.5 0-.8-.1-.1-.1-.2-.3-.2-.4v-1.6h-.5v-.2h.5v-.7Zm-5.3.7c.5-.1 1-.1 1.4.2.6.3.7 1.3.3 1.8-.4.4-1 .5-1.5.4-.4 0-.9-.2-1.1-.6-.2-.4-.2-.8 0-1.2.2-.3.5-.5.9-.6Zm.2.2c-.3 0-.7.3-.8.6-.1.4-.1.8.2 1.1.2.2.6.3.9.3.3 0 .6-.1.8-.3.2-.2.3-.6.2-.8 0-.3-.1-.5-.4-.6-.2-.3-.6-.3-.9-.3Zm2.2 0c.2-.2.5-.2.8-.2.4 0 .8 0 1.2.2.2.1.3.3.3.5h-.4c0-.2-.1-.4-.3-.4-.3-.1-.7-.1-1-.1-.2 0-.5.1-.5.4 0 .2.1.3.3.3.4.1.9.1 1.3.2.2 0 .4.1.5.3.2.3.1.6-.2.8-.3.2-.7.2-1.1.2-.4 0-.7 0-1-.2-.2-.1-.2-.4-.3-.6h.4c0 .3.2.5.5.5.4.1.8.1 1.2-.1.3-.1.2-.5 0-.6-.5-.2-1.1-.1-1.7-.3-.3-.1-.3-.7 0-.9Zm5-.2c.4-.1.8-.1 1.1 0 .2.1.4.2.5.4v-.4h.3v2.1c0 .3 0 .6-.3.8-.3.3-.7.3-1.1.3-.3 0-.7 0-1-.2-.2-.1-.3-.4-.4-.6h.4c.1.2.1.3.3.4.2.1.5.1.8.1.3 0 .6-.1.8-.3.2-.2.1-.6.1-.9-.4.4-.9.5-1.4.4-.3 0-.7-.1-.9-.4-.3-.3-.3-.8-.2-1.1.2-.2.6-.5 1-.6Zm.3.3c-.3 0-.5.2-.7.4-.2.3-.2.6-.1.9.1.3.4.5.8.5.4.1.9 0 1.1-.3.3-.4.3-1-.1-1.3-.3-.3-.7-.3-1-.2Zm2.8-.2c.3-.1.6-.1.8-.1v.3c-.3 0-.6 0-.9.1-.2.2-.3.5-.3.8v1.2h-.4v-2.3h.4v.4l.4-.4Zm1 .5c.2-.4.7-.6 1.2-.6s1 0 1.3.4c.2.2.3.6.3.9h-2.6c0 .2.1.5.3.6.3.3.8.3 1.3.2.3-.1.5-.3.6-.5h.4c-.1.4-.5.7-.8.8-.7.1-1.3.1-1.7-.2-.5-.4-.6-1.1-.3-1.6Zm.6-.2c-.3.1-.4.4-.4.7h2.2c0-.2-.1-.3-.2-.5-.4-.4-1.1-.5-1.6-.2Zm3-1.4c.4-.2.8-.2 1.2-.2.4 0 .9 0 1.3.3.2.2.3.5.3.8h-.4c-.1-.3-.2-.6-.5-.7-.5-.2-1-.2-1.5 0-.4.1-.5.7-.2 1 .2.2.5.2.8.3.5.1 1.1.1 1.6.4.5.3.5 1.1 0 1.4-.4.3-.9.3-1.3.3-.5 0-1-.1-1.4-.4-.3-.2-.3-.5-.4-.9h.4c0 .3.2.7.5.8.5.2 1.1.2 1.7 0 .4-.1.5-.6.3-.9-.1-.1-.2-.2-.4-.3-.7-.2-1.3-.2-2-.4-.5-.3-.6-1.2 0-1.5Zm4 0c.5-.3 1.1-.3 1.6-.2.5 0 1 .2 1.4.6.4.5.5 1.2.4 1.8-.1.3-.3.6-.6.8.2.1.4.3.6.4l-.3.3c-.2-.1-.4-.3-.6-.4-.2 0-.3.1-.5.1-.5.1-1 .1-1.4 0-.5-.1-1-.4-1.3-.8-.3-.4-.3-1-.2-1.5.2-.5.5-.9.9-1.1Zm.7.1c-.5.1-.9.5-1.1.9-.2.5-.1 1.2.3 1.6.3.4.8.5 1.3.6.5 0 1.1-.1 1.5-.6.5-.6.4-1.7-.2-2.2-.5-.4-1.2-.4-1.8-.3Zm3.1-.3h.4v3.2h2.6v.3h-3v-3.5Z" fill="#000" stroke="#000" stroke-width=".1"/><path d="M24.2 15c-.3-.8-2.2.2-2.9-.3 1.1-1.6 1.9-3.4 2.4-5.3.3-1.2.8-2.9.2-4.1-.8-1.4-2.6-2.1-4.1-2.2-.8-.1-1.7 0-2.5.2s-1.5 0-2.3 0c-.4 0-.9.1-1.3.2-.3.1-.7.4-1 .4-.4 0-1-.3-1.4-.4-1.4-.3-3-.4-4.2.4-2.8 1.7-1.5 6.1-.8 8.6.4 1.4 1.1 4.2 2.6 4.6.9.3 1.5-.7 2.1-1.3.2-.3.6-.9.9-1 .3-.1.8.2 1.2.2 0 .3-.7.7-.9.7-.4.1-1.5.2-1.4.8.1.5.9.7 1.3.8.8.1 1.7-.1 2.3-.6 0 1.5-.3 3.6.7 4.9 1 1.3 3.4.9 4.2-.5.4-.7.5-1.5.6-2.3.1-.4 0-2.2.4-2.3.1 0 .6.1.8.1.5 0 1-.1 1.4-.2.5 0 2-.7 1.7-1.4ZM7.1 12.7c-.6-2.1-1.6-5.1-.5-7.2 1.1-2.1 3.9-1.7 5.8-1.1-1 1-1.5 2.5-1.6 3.9v1.1c0 .9-.1 1.9-.1 2.8 0 .5.1.9.3 1.3.2.3.7.8.6 1-.1.3-.7.8-.9 1-.3.3-.6.9-1.1 1.1-1.4.4-2.3-3.1-2.5-3.9Zm4.8 4.1c-.1 0-.2-.1-.4-.1.5-.2 1.1-.2 1.6-.5.3-.3.6-1.1 1.1-.8.7.4-.2 1.2-.6 1.4-.4.2-1.1.2-1.7 0Zm1.7-3.2c-.1.2-.2.8-.3.9-.2.1-.8-.2-1-.3-.6-.4-1-1.1-1.1-1.8-.1-.8.1-1.6.1-2.4 0-.2-.1-.6 0-.8.1-.2.3-.3.6-.4.5-.2 1.3-.5 1.8-.2.6.3.6 1.4.6 2 .1 1.2-.3 2-.7 3Zm6 3.7c0 .5-.1 1-.2 1.5-.1.6-.1 1.2-.3 1.8-.4 1-2.2 2-3.1 1-.8-.9-.5-2.5-.5-3.6 0-.7-.2-1.4-.2-2.2 0-.6-.5-1.4-1.3-1.2.2-.7.5-1.2.7-1.9.2-.7.3-1.5.3-2.2-.1-.8-.1-1.9-.9-2.4s-1.9-.1-2.7.3c.2-2.3 1.3-4.5 3.9-4.6 2.5 0 4.7 1.6 5.5 4-.7-.1-1.6 0-2.1.6s-.3 1.4-.1 2.1c.4 1.4 1.3 2.8 2.1 4.1-1.2.3-1 1.8-1.1 2.7Zm.7-1.3c0-.3 0-.6.3-.7.3-.2.4 0 .6.1.7.2 1.5.2 2.2 0-.5.4-1 .6-1.7.7-.3 0-1.1.2-1.4-.1Zm.5-7.5c0 .8-.2 1.6-.2 2.4.1.9.3 1.8-.1 2.6-.6-1-1.2-2-1.5-3.1-.1-.4-.3-1 0-1.5.3-.6 1.2-.5 1.8-.4Zm.2 5.7c-.2-.2.3-1 .3-1.3.1-.5 0-1.1 0-1.6-.1-1 .2-2 .1-3-.2-1.8-2-3.6-3.6-4.4 1.9-.4 5.6 0 5.8 2.6.1 2.6-1.3 5.5-2.6 7.7Z" fill="#000" stroke="#000" stroke-width=".2"/><path d="M13.3 8.9c-.2 0-.4 0-.5.1-.1 0-.1.1-.1.1 0 .1 0 .2.1.2.1.1.3.2.4.3h.1c.3 0 .5-.2.5-.3 0-.3-.2-.4-.5-.4Zm6.4-.2c-.2 0-.5.1-.5.3 0 .1.2.3.5.3h.1c.2 0 .3-.1.3-.2.1-.1.1-.2.1-.3 0-.1-.2-.1-.5-.1Z" fill="#000"/></svg>