<svg width="31" height="31" fill="none" xmlns="http://www.w3.org/2000/svg"><path d="M15.4 6.1c-.8 0-1.5.1-2.2.2-1.9.3-2.3 1-2.3 2.3v1.7h4.5v.6H9.3c-1.3 0-2.5.8-2.8 2.3-.4 1.7-.4 2.8 0 4.6.3 1.3 1.1 2.2 2.4 2.2h1.5v-2c0-1.5 1.3-2.8 2.8-2.8h4.5c1.3 0 2.3-1 2.3-2.3V8.6c0-1.2-1-2.1-2.3-2.3-.7-.2-1.5-.3-2.3-.2ZM13 7.4c.5 0 .8.4.8.9s-.4.9-.8.9c-.5 0-.8-.4-.8-.9-.1-.5.3-.9.8-.9Z" fill="#000"/><path d="M20.6 10.9v2c0 1.6-1.3 2.9-2.8 2.9h-4.5c-1.3-.1-2.3 1-2.3 2.2v4.3c0 1.2 1.1 1.9 2.3 2.3 1.4.4 2.8.5 4.5 0 1.1-.3 2.3-1 2.3-2.3v-1.7h-4.5V20h6.7c1.3 0 1.8-.9 2.3-2.3.5-1.4.5-2.8 0-4.6-.3-1.3-.9-2.3-2.3-2.3l-1.7.1ZM18 21.7c.5 0 .8.4.8.9s-.4.9-.8.9c-.5 0-.8-.4-.8-.9s.4-.9.8-.9Z" fill="#000"/></svg>