<svg width="60" height="61" viewBox="0 0 60 61" fill="none" xmlns="http://www.w3.org/2000/svg">
<path d="M47.0401 21.559V19.939C49.0801 18.739 50.4001 16.519 50.4001 14.119V11.239C50.4001 7.51904 47.4001 4.51904 43.6801 4.51904C39.9601 4.51904 36.9001 7.51904 36.9001 11.239V14.119C36.9001 16.459 38.1001 18.619 40.1401 19.819V21.559C39.2401 21.799 38.4001 22.159 37.5601 22.639C36.2401 19.579 33.1801 17.419 29.6401 17.419C26.1601 17.419 23.2201 19.459 21.8401 22.459C21.0601 22.099 20.2801 21.739 19.5001 21.559V19.939C21.5401 18.739 22.8601 16.519 22.8601 14.119V11.239C22.8601 7.51904 19.8601 4.51904 16.1401 4.51904C12.4201 4.51904 9.4201 7.51904 9.4201 11.239V14.119C9.4201 16.459 10.6201 18.619 12.6601 19.819V21.559C7.2601 23.119 3.6001 27.979 3.6001 33.619C3.6001 34.099 4.0201 34.519 4.5001 34.519H22.2601C22.3201 34.519 22.3801 34.519 22.4401 34.519C23.1601 35.659 24.1801 36.619 25.3801 37.339V40.039C18.2401 41.959 13.3801 48.379 13.3801 55.819C13.3801 56.299 13.8001 56.719 14.2801 56.719H45.1801C45.6601 56.719 46.0801 56.299 46.0801 55.819C46.0801 48.439 40.9801 41.899 33.9001 40.039V37.459C35.1601 36.739 36.1801 35.779 36.9601 34.579H55.3801C55.8601 34.579 56.2801 34.159 56.2801 33.679C56.2201 28.039 52.3801 23.059 47.0401 21.559ZM5.4001 32.779C5.7601 28.099 9.1201 24.259 13.7401 23.179C14.1601 23.059 14.4601 22.699 14.4601 22.279V19.279C14.4601 18.919 14.2801 18.619 13.9801 18.499C12.3001 17.659 11.2201 15.979 11.2201 14.119V11.239C11.2201 8.53904 13.4401 6.31904 16.1401 6.31904C18.8401 6.31904 21.0601 8.53904 21.0601 11.239V14.119C21.0601 15.979 19.9201 17.719 18.2401 18.559C17.9401 18.679 17.7001 19.039 17.7001 19.399V22.279C17.7001 22.699 18.0001 23.059 18.4201 23.179C19.4401 23.419 20.4001 23.779 21.3001 24.259C21.1801 24.859 21.1201 25.459 21.1201 26.119V29.959C21.1201 30.919 21.3001 31.879 21.6001 32.779H5.4001ZM32.5801 36.079C32.2801 36.199 32.0401 36.559 32.0401 36.919V40.759C32.0401 41.179 32.3401 41.539 32.7601 41.659C39.1201 43.039 43.8001 48.559 44.2201 54.979H15.1801C15.5401 48.559 20.1001 43.159 26.4601 41.719C26.8801 41.599 27.1801 41.239 27.1801 40.819V36.859C27.1801 36.499 27.0001 36.199 26.7001 36.079C24.3601 34.939 22.9201 32.599 22.9201 30.019V26.179C22.9201 22.399 25.9801 19.399 29.7001 19.399C33.4201 19.399 36.4801 22.459 36.4801 26.179V29.959C36.4801 32.539 34.9801 34.939 32.5801 36.079ZM37.8001 32.779C38.1001 31.879 38.2801 30.919 38.2801 29.959V26.119C38.2801 25.579 38.2201 24.979 38.1001 24.499C39.0601 23.899 40.1401 23.479 41.2201 23.239C41.6401 23.119 41.9401 22.759 41.9401 22.339V19.339C41.9401 18.979 41.7601 18.679 41.4601 18.559C39.7801 17.719 38.7001 16.039 38.7001 14.179V11.299C38.7001 8.59904 40.9201 6.37904 43.6201 6.37904C46.3201 6.37904 48.5401 8.59904 48.5401 11.299V14.179C48.5401 16.039 47.4001 17.779 45.7201 18.619C45.4201 18.739 45.1801 19.099 45.1801 19.459V22.339C45.1801 22.759 45.4801 23.119 45.9001 23.239C50.5201 24.259 53.9401 28.219 54.3601 32.839L37.8001 32.779Z" fill="#5AA3DA"/>
<path fill-rule="evenodd" clip-rule="evenodd" d="M37.5577 22.6463C36.2377 19.5863 33.1777 17.4263 29.6377 17.4263C26.1577 17.4263 23.2177 19.4663 21.8377 22.4663C21.8377 22.4663 21.3521 23.6225 21.2977 24.2663C21.1777 24.8663 21.1177 25.4663 21.1177 26.1263V29.9663C21.1177 30.9263 21.2977 31.8863 21.5977 32.7863C21.5517 32.918 22.4377 34.5263 22.4377 34.5263C23.1577 35.6663 24.1777 36.6263 25.3777 37.3463V40.0463C18.2377 41.9663 13.3777 48.3863 13.3777 55.8263C13.3777 56.3063 13.7977 56.7263 14.2777 56.7263H45.1777C45.6577 56.7263 46.0777 56.3063 46.0777 55.8263C46.0777 48.4463 40.9777 41.9063 33.8977 40.0463V37.4663C35.1577 36.7463 36.1777 35.7863 36.9577 34.5863L37.7977 32.7863C38.0977 31.8863 38.2777 30.9263 38.2777 29.9663V26.1263C38.2777 25.5863 38.2177 24.9863 38.0977 24.5063C38.0977 24.5063 38.0012 23.9134 37.8935 23.545C37.7884 23.1854 37.5577 22.6463 37.5577 22.6463ZM32.5777 36.0863C32.2777 36.2063 32.0377 36.5663 32.0377 36.9263V40.7663C32.0377 41.1863 32.3377 41.5463 32.7577 41.6663C39.1177 43.0463 43.7977 48.5663 44.2177 54.9863H15.1777C15.5377 48.5663 20.0977 43.1663 26.4577 41.7263C26.8777 41.6063 27.1777 41.2463 27.1777 40.8263V36.8663C27.1777 36.5063 26.9977 36.2063 26.6977 36.0863C24.3577 34.9463 22.9177 32.6063 22.9177 30.0263V26.1863C22.9177 22.4063 25.9777 19.4063 29.6977 19.4063C33.4177 19.4063 36.4777 22.4663 36.4777 26.1863V29.9663C36.4777 32.5463 34.9777 34.9463 32.5777 36.0863Z" fill="#FF9C42"/>
</svg>
