<svg width="31" height="31" fill="none" xmlns="http://www.w3.org/2000/svg"><path d="M15 16.658a1.95 1.95 0 1 0 0-3.901 1.95 1.95 0 0 0 0 3.9Z" fill="#000"/><path d="M15 19.154c-2.73 0-5.149-.312-6.943-.936-1.17-.39-2.185-.936-2.887-1.56C4.39 16.034 4 15.332 4 14.629c0-1.326 1.404-2.574 3.823-3.354 1.95-.702 4.525-1.092 7.177-1.092 2.653 0 5.15.39 7.1 1.014 1.17.39 2.106.936 2.808 1.482.702.624 1.093 1.326 1.093 1.95 0 1.327-1.56 2.731-4.135 3.59-1.873.623-4.291.935-6.866.935Zm0-7.957c-2.496 0-4.993.39-6.865 1.014-2.185.78-3.199 1.794-3.199 2.497 0 .702 1.092 1.872 3.355 2.652 1.716.546 3.979.858 6.631.858 2.497 0 4.76-.312 6.554-.858 2.418-.78 3.51-1.95 3.51-2.652 0-.39-.312-.78-.78-1.249-.624-.468-1.482-.936-2.496-1.326-1.795-.624-4.213-.936-6.71-.936Z" fill="#000"/><path d="M10.553 24.46c-.39 0-.78-.078-1.014-.234-1.092-.624-1.482-2.496-1.014-4.993.39-2.028 1.326-4.447 2.652-6.71 1.327-2.262 2.887-4.212 4.447-5.616.937-.78 1.795-1.327 2.653-1.639.936-.312 1.716-.312 2.262 0 1.17.702 1.56 2.73 1.015 5.383-.39 1.873-1.327 4.135-2.575 6.398-1.404 2.34-2.887 4.29-4.29 5.539-.937.78-1.873 1.404-2.731 1.716-.624.078-1.015.156-1.405.156Zm1.014-11.78.39.234c-1.248 2.184-2.184 4.525-2.574 6.397-.468 2.263 0 3.667.624 3.979.156.078.312.156.546.156.78 0 2.029-.468 3.433-1.716 1.326-1.17 2.809-3.043 4.057-5.305 1.248-2.185 2.106-4.291 2.496-6.086.546-2.496.078-3.979-.546-4.369-.312-.156-.858-.078-1.482.156-.702.234-1.56.78-2.34 1.483-1.483 1.248-2.965 3.198-4.213 5.383l-.39-.312Z" fill="#000"/><path d="M19.447 24.46c-1.093 0-2.419-.624-3.823-1.872-1.56-1.326-3.199-3.355-4.525-5.695-1.326-2.263-2.263-4.603-2.653-6.632-.156-1.092-.234-2.184-.078-3.042.156-.936.546-1.639 1.092-1.95 1.17-.703 3.121 0 5.15 1.794 1.404 1.248 2.886 3.198 4.212 5.46 1.405 2.341 2.34 4.604 2.653 6.476.234 1.17.312 2.34.078 3.277-.156.936-.624 1.638-1.17 2.028a2.91 2.91 0 0 1-.936.156Zm-7.49-7.957c1.248 2.184 2.809 4.135 4.29 5.46 1.795 1.483 3.122 1.873 3.746 1.483.624-.39 1.092-1.872.624-4.213-.312-1.794-1.248-3.9-2.575-6.163-1.248-2.184-2.652-3.979-4.057-5.227-1.872-1.794-3.354-2.185-4.056-1.794-.312.156-.547.624-.625 1.326-.156.702-.078 1.716.078 2.73.39 1.95 1.327 4.213 2.575 6.398Z" fill="#000"/></svg>