<svg width="31" height="31" fill="none" xmlns="http://www.w3.org/2000/svg"><path d="M23.168 21.242c.385 0 .867.193 1.253.386.29.192.579.482.29.868-.193.385-.579.289-.868.096-.386-.193-.772-.386-1.158-.193-.193.097-.29.097-.29.29 0 .192.194.192.29.289.386.096.868.193 1.254.386.772.289 1.061.771 1.061 1.35 0 .579-.482 1.157-1.157 1.35-.868.29-1.736 0-2.412-.482-.289-.193-.385-.482-.192-.772.192-.289.482-.289.771-.096.386.29.868.482 1.447.386.193-.097.386-.097.482-.386 0-.29-.193-.386-.386-.386-.289-.096-.578-.193-.868-.193-.964-.29-1.446-.771-1.35-1.543.096-.771.772-1.35 1.832-1.35ZM6 23.652v-1.735c0-.29.096-.482.29-.579.289-.096.482-.096.674.193.193.29.29.097.483 0 .385-.193.675-.29 1.06-.29.29 0 .483.097.483.483 0 .29-.097.482-.386.579-1.254.386-1.543.964-1.543 2.218v.964c0 .386-.097.772-.579.772S6 25.871 6 25.485c.096-.675 0-1.253 0-1.832Zm14.66.097v1.736c0 .386-.096.676-.482.676-.483 0-.579-.29-.579-.676v-3.568c0-.386.096-.675.482-.675.483 0 .579.29.579.675v1.832Zm0-3.954c0 .482-.096.772-.482.772s-.579-.29-.579-.579c0-.386.096-.675.482-.675.386-.097.483.193.579.482Zm-2.508-.482c-.578 0-.578.386-.578.771v1.544c-.772-.29-1.447-.483-2.122-.193-1.254.482-1.93 1.929-1.447 3.182.482 1.35 1.833 1.93 3.183 1.35.193-.096.29-.192.482 0 .579.387.964.194.964-.578v-5.401c.097-.29.097-.675-.482-.675ZM16.32 25.1c-.772 0-1.35-.676-1.35-1.35 0-.772.675-1.447 1.35-1.447.771 0 1.35.578 1.35 1.446-.096.772-.579 1.35-1.35 1.35Zm-5.98-1.061h2.508c.771 0 .964-.29.771-.965-.29-1.157-1.157-1.832-2.314-1.832-1.158 0-2.122.771-2.412 1.929-.192.964.193 2.122 1.061 2.604a2.464 2.464 0 0 0 2.894-.097c.29-.193.482-.386.29-.771-.194-.29-.483-.29-.772-.097-.097.097-.29.193-.386.193-.675.193-1.447 0-1.833-.579-.193-.192-.193-.385.193-.385Zm-.29-1.158c.29-.482.676-.771 1.255-.675.578 0 .964.29 1.253.772.193.29-.096.29-.192.29H10.34c-.29 0-.482-.097-.29-.387Zm14.275-10.705c0 .193-.193.386-.675.579-.965.482-5.787 2.507-6.848 2.99-1.06.578-1.64.578-2.411.096-.772-.386-5.98-2.508-6.944-2.894-.483-.192-.675-.385-.675-.578V14.2c0 .193.289.386.675.579.964.482 6.076 2.508 6.944 2.893.771.386 1.35.386 2.411-.096 1.06-.579 5.883-2.508 6.848-2.99.482-.29.675-.482.675-.579v-1.832Zm0-2.894c0 .193-.193.386-.675.58-.965.481-5.787 2.507-6.848 2.989-1.06.579-1.64.579-2.411.096-.772-.385-5.98-2.507-6.944-2.893-.483-.193-.675-.386-.675-.579v1.833c0 .193.289.386.675.578.964.483 6.076 2.508 6.944 2.894.771.386 1.35.386 2.411-.097 1.06-.578 5.883-2.507 6.848-2.99.482-.289.675-.482.675-.578V9.282Zm0-2.99c0-.192-.193-.289-.675-.482-.868-.289-5.69-2.218-6.655-2.604-.965-.29-1.254-.29-2.411.097-1.061.289-6.173 2.314-7.137 2.7-.483.193-.675.386-.675.482v1.736c0 .193.289.386.675.58.964.481 6.076 2.507 6.944 2.893.771.385 1.35.385 2.411-.097 1.06-.579 5.883-2.508 6.848-2.99.482-.29.675-.482.675-.578V6.293ZM13.04 7.933l4.05-.579-1.253 1.833-2.797-1.254Zm8.97-1.64-2.412.965-.29.096-2.41-.964 2.7-1.06 2.411.964ZM14.97 4.557l-.386-.771 1.254.482 1.157-.29-.29.772 1.158.483-1.543.193-.29.675-.578-.868-1.736-.193 1.254-.482Zm-2.99 1.061c1.157 0 2.121.386 2.121.868 0 .483-.964.868-2.121.868-1.158 0-2.219-.385-2.219-.868 0-.482.965-.868 2.219-.868Z" fill="#000"/></svg>