<svg xmlns="http://www.w3.org/2000/svg" viewBox="0 0 31 31" style="enable-background:new 0 0 31 31" xml:space="preserve"><path d="M23.4 22.3c.4 0 .9.2 1.3.4.3.2.6.5.3.9-.2.4-.6.3-.9.1-.4-.2-.8-.4-1.2-.2-.2.1-.3.1-.3.3 0 .2.2.2.3.3.4.1.9.2 1.3.4.8.3 1.1.8 1.1 1.4 0 .6-.5 1.2-1.2 1.4-.9.3-1.8 0-2.5-.5-.3-.2-.4-.5-.2-.8.2-.3.5-.3.8-.1.4.3.9.5 1.5.4.2-.1.4-.1.5-.4 0-.3-.2-.4-.4-.4-.3-.1-.6-.2-.9-.2-1-.3-1.5-.8-1.4-1.6.1-.8.8-1.4 1.9-1.4zM5.6 24.8V23c0-.3.1-.5.3-.6.3-.1.5-.1.7.2.2.3.3.1.5 0 .4-.2.7-.3 1.1-.3.3 0 .5.1.5.5 0 .3-.1.5-.4.6-1.3.4-1.6 1-1.6 2.3v1c0 .4-.1.8-.6.8s-.5-.4-.5-.8c.1-.7 0-1.3 0-1.9zM20.8 24.9v1.8c0 .4-.1.7-.5.7-.5 0-.6-.3-.6-.7V23c0-.4.1-.7.5-.7.5 0 .6.3.6.7v1.9zM20.8 20.8c0 .5-.1.8-.5.8s-.6-.3-.6-.6c0-.4.1-.7.5-.7.4-.1.5.2.6.5zM18.2 20.3c-.6 0-.6.4-.6.8v1.6c-.8-.3-1.5-.5-2.2-.2-1.3.5-2 2-1.5 3.3.5 1.4 1.9 2 3.3 1.4.2-.1.3-.2.5 0 .6.4 1 .2 1-.6V21c.1-.3.1-.7-.5-.7zm-1.9 6c-.8 0-1.4-.7-1.4-1.4 0-.8.7-1.5 1.4-1.5.8 0 1.4.6 1.4 1.5-.1.8-.6 1.4-1.4 1.4zM10.1 25.2H12.7c.8 0 1-.3.8-1-.3-1.2-1.2-1.9-2.4-1.9s-2.2.8-2.5 2c-.2 1 .2 2.2 1.1 2.7.9.6 2.1.6 3-.1.3-.2.5-.4.3-.8-.2-.3-.5-.3-.8-.1-.1.1-.3.2-.4.2-.7.2-1.5 0-1.9-.6-.2-.2-.2-.4.2-.4zM9.8 24c.3-.5.7-.8 1.3-.7.6 0 1 .3 1.3.8.2.3-.1.3-.2.3h-2.1c-.3 0-.5-.1-.3-.4zM24.6 12.9c0 .2-.2.4-.7.6-1 .5-6 2.6-7.1 3.1-1.1.6-1.7.6-2.5.1-.8-.4-6.2-2.6-7.2-3-.5-.2-.7-.4-.7-.6V15c0 .2.3.4.7.6 1 .5 6.3 2.6 7.2 3 .8.4 1.4.4 2.5-.1 1.1-.6 6.1-2.6 7.1-3.1.5-.3.7-.5.7-.6v-1.9zm0-3c0 .2-.2.4-.7.6-1 .5-6 2.6-7.1 3.1-1.1.6-1.7.6-2.5.1-.8-.4-6.2-2.6-7.2-3-.5-.2-.7-.4-.7-.6V12c0 .2.3.4.7.6 1 .5 6.3 2.6 7.2 3 .8.4 1.4.4 2.5-.1 1.1-.6 6.1-2.6 7.1-3.1.5-.3.7-.5.7-.6V9.9zm0-3.1c0-.2-.2-.3-.7-.5C23 6 18 4 17 3.6c-1-.3-1.3-.3-2.5.1-1.1.3-6.4 2.4-7.4 2.8-.5.2-.7.4-.7.5v1.8c0 .2.3.4.7.6 1 .5 6.3 2.6 7.2 3 .8.4 1.4.4 2.5-.1 1.1-.6 6.1-2.6 7.1-3.1.5-.3.7-.5.7-.6V6.8zM12.9 8.5l4.2-.6-1.3 1.9-2.9-1.3zm9.3-1.7-2.5 1-.3.1-2.5-1 2.8-1.1 2.5 1zM14.9 5l-.4-.8 1.3.5 1.2-.3-.3.8 1.2.5-1.6.2-.3.7-.6-.9-1.8-.2 1.3-.5zm-3.1 1.1c1.2 0 2.2.4 2.2.9s-1 .9-2.2.9-2.3-.4-2.3-.9 1-.9 2.3-.9z"/></svg>