<svg width="32" height="31" fill="none" xmlns="http://www.w3.org/2000/svg"><path d="M12.858 20.619c2.988.417 5.938.796 8.924 1.213a581.66 581.66 0 0 0-3.025-5.005 312.857 312.857 0 0 1-5.899 3.792Zm9.757-9.367c-.265.38-.53.797-.794 1.176l-2.724 4.096c-.037.076-.113.151-.037.265l2.61 4.323c.15.228.264.455.453.683.19-3.489.34-7.016.53-10.505l-.038-.037ZM10.74 15.727c.038.038.151.076.19.038.831-.417 1.664-.796 2.495-1.252.265-.152.454-.417.719-.606.756-.683 1.513-1.403 2.27-2.086.037-.038.112-.076.112-.152.265-.53.53-1.062.832-1.63-.34-.114-.643-.228-.945-.342-.038 0-.114 0-.151.038-.719.418-1.476.796-2.194 1.252-.34.227-.643.569-.945.834l-1.513 1.403c-.113.114-.264.266-.34.417-.34.493-.68.986-1.021 1.517.113.19.302.38.491.569Zm3.025-.683c-.415 1.745-.831 3.49-1.248 5.31 2.005-1.29 3.972-2.54 5.9-3.793-1.55-.493-3.063-1.024-4.652-1.517Zm8.358-3.792c-1.701.266-3.328.569-5.03.835.568 1.403 1.135 2.73 1.703 4.133 1.096-1.63 2.193-3.3 3.327-4.967Zm-8.281 3.451 4.537 1.48c-.568-1.404-1.134-2.731-1.701-4.096-.908.872-1.854 1.706-2.836 2.616Zm-3.064 2.048c-.53 1.29-1.059 2.54-1.588 3.83 1.021-.038 2.004-.076 3.026-.076-.455-1.251-.946-2.465-1.438-3.754Zm1.476 2.845c.415-1.518.755-3.035 1.133-4.59-.831.418-1.626.835-2.42 1.252.416 1.062.87 2.2 1.286 3.337Zm9.263-8.572c-.491-.113-.983-.265-1.437-.38a41.804 41.804 0 0 0-2.08-.53c-.076-.038-.15-.038-.189.076-.236.513-.489 1.019-.756 1.517v.076c1.437-.266 2.95-.494 4.462-.759Zm-2.834-1.138c1.285.38 2.609.72 3.933 1.1-.228-.644-.455-1.251-.644-1.858-1.096.227-2.193.455-3.29.758Zm-7.565 11.037c-.415 0-.831.037-1.21.037-.037 0-.075 0-.113.038 3.366.303 6.732.607 10.097.948v-.038c-1.096-.152-2.155-.303-3.252-.455-1.362-.19-2.685-.379-4.046-.53h-1.476Zm-1.853-1.518c.416-1.024.87-2.01 1.286-3.034.038-.113.038-.151-.038-.265-.189-.19-.34-.38-.567-.569-.264 1.328-.53 2.617-.794 3.944h.038l.076-.076Zm8.546-9.783c.72-.19 1.476-.342 2.232-.493.038 0 .113-.038.151-.038v-.038c-1.058.152-2.08.265-3.176.417.264.114.491.227.794.152Z" fill="#000"/></svg>