<svg xmlns="http://www.w3.org/2000/svg" viewBox="0 0 31 31" style="enable-background:new 0 0 31 31" xml:space="preserve"><path d="M9.82 23.905c5.104.713 10.143 1.36 15.246 2.073a993.137 993.137 0 0 0-5.168-8.551A535.04 535.04 0 0 1 9.82 23.905zM26.488 7.904c-.453.647-.905 1.36-1.357 2.008l-4.652 6.997c-.064.13-.193.259-.064.453l4.458 7.385c.258.39.452.778.775 1.167.323-5.96.581-11.985.904-17.946l-.064-.064zM6.202 15.548c.065.065.258.13.323.065 1.421-.713 2.843-1.36 4.264-2.138.452-.26.775-.713 1.227-1.036 1.292-1.167 2.585-2.397 3.877-3.564.064-.064.193-.13.193-.259.453-.907.905-1.814 1.422-2.785-.582-.195-1.099-.39-1.615-.584-.065 0-.194 0-.259.065-1.227.713-2.52 1.36-3.747 2.138-.581.389-1.098.972-1.615 1.425-.84.778-1.744 1.62-2.584 2.397-.194.195-.452.454-.582.713-.581.842-1.162 1.684-1.744 2.591.194.324.517.648.84.972zm5.168-1.166c-.71 2.98-1.421 5.96-2.132 9.07 3.424-2.203 6.784-4.34 10.079-6.479-2.65-.842-5.233-1.749-7.947-2.591zm14.278-6.478c-2.907.453-5.685.971-8.593 1.425.97 2.397 1.939 4.664 2.908 7.061 1.873-2.785 3.747-5.636 5.685-8.486zM11.5 13.799l7.752 2.527c-.97-2.397-1.938-4.665-2.907-6.997-1.55 1.49-3.166 2.915-4.845 4.47zm-5.233 3.498c-.905 2.203-1.81 4.34-2.714 6.543 1.745-.064 3.424-.13 5.169-.13-.776-2.137-1.616-4.21-2.455-6.413zm2.52 4.86c.71-2.592 1.291-5.184 1.937-7.84-1.421.713-2.778 1.425-4.134 2.138.71 1.814 1.486 3.758 2.196 5.701zM24.613 7.514c-.84-.194-1.68-.454-2.455-.648a71.424 71.424 0 0 0-3.553-.907c-.13-.065-.258-.065-.323.13A48.35 48.35 0 0 1 16.99 8.68v.13c2.455-.454 5.039-.843 7.623-1.296zM19.77 5.57c2.196.648 4.458 1.231 6.719 1.88-.388-1.102-.776-2.139-1.099-3.175-1.873.388-3.747.777-5.62 1.295zM6.848 24.424c-.71 0-1.421.064-2.067.064-.065 0-.13 0-.194.065 5.75.518 11.5 1.037 17.25 1.62v-.065c-1.874-.26-3.683-.518-5.557-.778-2.326-.323-4.587-.647-6.912-.906m-5.686-2.592c.711-1.749 1.486-3.433 2.197-5.183.065-.194.065-.259-.065-.453-.323-.324-.581-.648-.969-.972-.452 2.268-.904 4.47-1.356 6.738h.064l.13-.13zm14.6-16.714c1.228-.324 2.52-.583 3.813-.842.064 0 .193-.065.258-.065v-.065c-1.809.26-3.553.454-5.427.713.452.194.84.388 1.357.259z"/></svg>