<svg xmlns="http://www.w3.org/2000/svg" viewBox="0 0 31 31" style="enable-background:new 0 0 31 31" xml:space="preserve"><path d="M25.7 8.3v15.5c0 1.7-1 2.7-2.7 2.7H7.6c-1.7 0-2.7-1-2.7-2.7V8.4c0-1.7 1-2.7 2.7-2.7h14.5c-.5.6-.9 1-1.7 1-4.3-.1-8.5 0-12.8 0-1.2 0-1.8.5-1.8 1.8v15.3c0 1.2.5 1.7 1.7 1.7h15.4c1.2 0 1.7-.6 1.7-1.7V10.3c0-1 .4-1.5 1.1-2z"/><path d="M17.6 15.5c-1.8-1.7-3.5-3.4-5.3-5.1.5-.6 1.1-1.1 1.6-1.7 1.2 1.1 2.4 2.2 3.6 3.4 2.3-2.5 4.6-5 7-7.5.6.5 1.1 1 1.7 1.6-2.9 3.1-5.7 6.2-8.6 9.3zM6.8 21h.9c.2 0 .4.2.4.3.5 1.2 2.7 1.3 3.5.4.5-.6.4-1.3-.3-1.7-.5-.2-1-.4-1.6-.5-.5-.2-1-.3-1.5-.5-1.5-.8-1.7-2.9-.3-3.9 1.1-.8 3-.8 4.2 0 .6.4.9 1 1 1.8h-1c-.1 0-.2-.2-.3-.3-.5-1.2-2.5-1.2-3.1-.5-.5.5-.4 1.4.3 1.7.6.2 1.2.4 1.8.5.4.1.8.2 1.1.4.8.3 1.3.9 1.4 1.8.1 1-.3 1.8-1.1 2.3-1.4.7-2.7.7-4.1 0-.8-.3-1.2-.9-1.3-1.8zM20.7 20.4h-4.6c0 .9.4 1.5 1.1 1.8.7.3 1.5.1 2.1-.4.3-.2.8-.2 1.4-.3-.2.9-.6 1.3-1.3 1.6-1.2.5-2.4.5-3.5-.3s-1.3-2-1.1-3.2c.3-2 2-3.1 3.9-2.5 1.4.4 2.1 1.6 2 3.3zm-1.4-.9c0-.9-.6-1.4-1.5-1.4s-1.6.6-1.6 1.4h3.1z"/></svg>