<svg version="1.1" id="Layer_1" xmlns="http://www.w3.org/2000/svg" x="0" y="0" viewBox="0 0 31 31" style="enable-background:new 0 0 31 31" xml:space="preserve"><style>.st0{fill:#231f20}</style><g id="Sinatra"><path class="st0" d="M4.7 21c.1.2.2.3.3.5.1.2.1.4.1.6 0 .6-.2 1.1-.7 1.5-.4.4-1 .6-1.6.6-.3 0-.6 0-.9-.1-.3-.1-.6-.2-.8-.3l-.1.3H.6l-.1-2.3h.4c.1.3.2.5.3.8.1.2.2.4.4.6.2.2.4.3.6.4.2.1.5.2.8.2.2 0 .4 0 .6-.1.2-.1.3-.1.4-.2.1-.1.2-.2.2-.4 0-.1.1-.3.1-.5 0-.3-.1-.5-.2-.7-.1-.2-.4-.4-.7-.5-.2-.1-.4-.2-.7-.3s-.5-.2-.7-.3c-.4-.2-.7-.4-.9-.7-.2-.3-.3-.6-.3-1.1 0-.3.1-.5.2-.7 0-.1.1-.3.3-.5.2-.2.4-.3.6-.4.2-.1.5-.1.8-.1.3 0 .6 0 .8.1.2.1.5.2.7.3l.2-.3h.4v2.2h-.4c-.1-.3-.1-.5-.2-.7l-.3-.6c-.1-.2-.3-.3-.5-.4-.2-.1-.4-.2-.7-.2-.3 0-.5.1-.8.3s-.3.4-.3.7c0 .3.1.5.2.7.1.2.3.3.6.5.2.1.5.2.7.3l.6.3c.2.1.4.2.5.3.2 0 .4.1.5.2zM8.1 24.1H5.8v-.3h.4c.1 0 .2-.1.2-.1s.1-.2.1-.3v-2.8c0-.1 0-.2-.1-.3 0-.1-.1-.2-.2-.2s-.1-.1-.3-.1h-.3v-.3l1.6-.1.1.1v3.8c0 .1 0 .2.1.3l.2.2c.1 0 .1.1.2.1H8zm-.6-6.5c0 .2-.1.3-.2.5-.1.1-.3.2-.4.2-.2 0-.3-.1-.4-.2-.1-.1-.2-.3-.2-.4 0-.2.1-.3.2-.4.1-.2.2-.3.4-.3s.3.1.4.2.2.2.2.4zM13.7 24.1h-2.3v-.3h.4c.1 0 .2-.1.2-.1 0-.1.1-.2.1-.3V21c0-.3-.1-.6-.2-.8-.2-.2-.3-.3-.6-.3-.2 0-.3 0-.5.1s-.3.1-.4.2c-.1.1-.2.1-.2.2-.1.1-.1.1-.1.2v2.7c0 .1 0 .2.1.3 0 .1.1.1.2.2.1 0 .1.1.2.1h.2v.3H8.6v-.3H9c.1 0 .2-.1.2-.1 0-.1.1-.2.1-.3v-2.8c0-.1 0-.2-.1-.3s-.1-.4-.2-.5c-.1 0-.1-.1-.2-.1h-.3v-.3l1.5-.1.1.1v.7l.3-.3.3-.3c.1-.1.3-.1.4-.2s.3-.1.5-.1c.4 0 .8.1 1 .4s.3.6.3 1.1v2.4c0 .1 0 .2.1.3 0 .1.1.1.2.2.1 0 .1.1.2.1h.2v.3zM18.7 24c-.1.1-.3.1-.4.1h-.4c-.2 0-.4-.1-.6-.2-.1-.1-.2-.3-.3-.5-.2.2-.4.4-.7.5-.2.1-.5.2-.8.2-.3 0-.6-.1-.9-.3-.2-.2-.3-.5-.3-.8 0-.2 0-.3.1-.5 0-.1.1-.3.2-.4l.3-.3c.1-.1.2-.1.4-.2.1-.1.4-.2.9-.3.4-.1.7-.3.9-.3v-.7c0-.1-.1-.2-.1-.3l-.3-.3c-.1-.1-.3-.1-.5-.1-.1 0-.3 0-.4.1-.1 0-.2.1-.3.2v.6c0 .1 0 .2-.1.3-.1.1-.2.2-.4.2s-.3-.1-.3-.2c-.1-.1-.1-.2-.1-.4 0-.1.1-.3.2-.4l.4-.4c.1-.1.3-.2.5-.2s.4-.1.6-.1c.3 0 .5 0 .7.1.2 0 .4.1.5.2.2.1.3.3.4.5.1.2.1.5.1.8v2.3c0 .1 0 .2.1.3 0 .1.1.1.2.2h.5v.3zM17 21.5c-.3.1-.5.2-.7.2s-.3.2-.5.3c-.2.1-.3.2-.4.4-.1.1-.1.3-.1.5 0 .3.1.5.2.6s.3.2.5.2.4-.1.6-.2c.2-.1.3-.2.4-.4v-1.6zM22 23.9c-.2.1-.4.2-.6.2-.2.1-.4.1-.7.1-.4 0-.7-.1-.8-.3s-.2-.5-.2-.8V20h-.8v-.4h.9v-1.4h.9v1.4H22v.4h-1.3v3.1c0 .1 0 .2.1.3 0 .1.1.2.2.2s.2.1.4.1h.3c.2 0 .3 0 .3-.1v.3zM26 20.1c0 .2 0 .3-.1.4s-.2.2-.4.2-.3 0-.4-.1c-.1-.1-.1-.2-.1-.4v-.4c-.1 0-.3.1-.5.2s-.4.3-.5.5v2.7c0 .1 0 .2.1.3 0 .1.1.1.2.2.1 0 .2.1.3.1h.3v.3h-2.4v-.3h.4c.1 0 .2-.1.2-.1s.1-.2.1-.3v-2.8c0-.1 0-.2-.1-.3s-.1-.2-.2-.2-.1-.1-.2-.1h-.3v-.3l1.5-.1.1.1v.7c.2-.3.4-.4.6-.6s.5-.2.7-.2c.2 0 .4.1.5.2.1-.1.2.1.2.3zM30.7 24c-.1.1-.3.1-.4.1h-.4c-.2 0-.4-.1-.6-.2-.1-.1-.2-.3-.3-.5-.2.2-.4.4-.7.5-.2.1-.5.2-.8.2-.3 0-.6-.1-.9-.3-.2-.2-.3-.5-.3-.8 0-.2 0-.3.1-.5s.1-.3.2-.4l.3-.3c.1-.1.2-.1.4-.2.1-.1.4-.2.9-.3.4-.1.7-.3.9-.3v-.7c0-.1-.1-.2-.1-.3l-.3-.3c-.1-.1-.3-.1-.5-.1-.1 0-.3 0-.4.1-.1 0-.2.1-.3.2v.6c0 .1 0 .2-.1.3-.1.1-.2.1-.4.1s-.3-.1-.3-.2c-.1-.1-.1-.2-.1-.4 0-.1.1-.3.2-.4l.4-.4c.1-.1.3-.2.5-.2.2-.1.4-.1.6-.1.3 0 .5 0 .7.1.2 0 .4.1.5.2.2.1.3.3.4.5.1.2.1.5.1.8v2.3c0 .1 0 .2.1.3 0 .1.1.1.2.2h.5v.4zm-1.6-2.5c-.3.1-.5.2-.7.2s-.4.2-.5.3c-.2.1-.3.2-.4.4-.1.1-.1.3-.1.5 0 .3.1.5.2.6s.3.2.5.2.4-.1.6-.2c.2-.1.3-.2.4-.4v-1.6z"/><g><path d="M16.2 4.1c.8.1 1.6.4 2.2.5.9.3 1.5.5 2.4.9.6.3 1 .9 1 1.6 0 .3.1.5.5.6.9.3 1.8.7 2.4 1.5.3.4.4.9.4 1.3 0 .7-.1 1.3-.2 2 0 .2-.2.4-.4.6-1.7 1.5-3.7 2.3-5.9 2.9-1.8.5-3.7.6-5.6.7-1 .1-2.1-.3-3.1-.4-1-.1-1.8-.7-2.5-1.3-1.4-1.2-1.4-3.5.2-4.7.4-.3.8-.7 1.3-.8 1-.4 1.5-1.1 1.7-2.1.3-1.3.7-2.5 1.8-3.4.6-.4 2-.1 3.8.1zm1.5 9.8c-.9.1-1.7.2-2.6.3-.1 0-.3-.1-.4-.1 0-.6-.6-.5-.9-.6-.8-.2-1.7-.2-2.5-.4-1.2-.2-1.8-1.1-1.7-2.4v-.8c-.2 0-.3 0-.4.1-.5.4-1.1.6-1.5 1.3-.5.9-.5 1.4 0 2.2.2.3.3.7.5 1.1l.3.3c.8.3 1.6.7 2.4.8 3.1.2 6.3 0 9.3-1.1 1.4-.5 2.7-1.1 3.7-2.2.8-.8.6-2.3-.4-2.9-.7-.4-1.5-.8-2.3-1.1-.3-.1-.4-.3-.4-.6V7c0-.4-.2-.7-.6-.9-.6-.2-1.1-.7-1.6-.3-.3-.2-.6-.4-.8-.5-1.3-.2-2.6-.5-3.9-.6-1.3-.1-1.9.3-2.2 1.3-.3.9-.6 1.9-.9 2.8-.2.6-.2.9.4 1.1.9.2 1.9.5 2.8.6 1.5.1 3.1 0 4.6 0 .9 0 1.7-.2 2.3-1 .2-.2.5-.2.5.1 0 .8 0 1.7-.2 2.5-.1.3-.5.6-.8.7-.9.3-1.9.5-2.9.7 0 .2.1.2.2.4z"/><path d="M16.9 6c-.3 0-.4 0-.6.1-.5.2-1.1.5-1.6.6-.3.1-.7.2-1 .2-.1 0-.2-.1-.3-.2 0-.1.1-.2.2-.3.1-.1.3-.2.5-.2.8-.1 1.7-.2 2.5-.3 0-.1.1-.1.3.1z"/></g></g></svg>