<svg xmlns="http://www.w3.org/2000/svg" viewBox="0 0 46.8 31" style="enable-background:new 0 0 46.8 31" xml:space="preserve"><path d="M16.2 17.9c-.2-.1-.3-.3-.3-.5 0-.3.2-.6.5-.6.1 0 .2 0 .3.1.5.4 1.1.5 1.7.6.6 0 .9-.3.9-.6 0-.5-.6-.6-1.3-.8-.9-.3-1.9-.6-1.9-1.8 0-1.1.9-1.8 2.1-1.8.7 0 1.3.2 1.9.5.2.1.3.3.3.5 0 .3-.3.6-.6.6-.1 0-.2 0-.3-.1-.4-.2-.9-.4-1.4-.4-.5 0-.8.3-.8.6 0 .4.6.6 1.3.9.9.3 1.9.7 1.9 1.7 0 1.3-1 1.9-2.2 1.9-.6-.1-1.4-.4-2.1-.8zM21.2 13.1c0-.4.3-.7.7-.7.4 0 .7.3.7.7v.4c.4-.6 1.1-1.1 2-1.1 1.4 0 2.8 1.1 2.8 3.1s-1.4 3.1-2.8 3.1c-1 0-1.6-.5-2-1.1v2.1c0 .4-.3.7-.7.7-.4 0-.7-.3-.7-.7v-6.5zm4.8 2.4c0-1.2-.8-1.9-1.7-1.9-.9 0-1.7.8-1.7 1.9 0 1.1.8 1.9 1.7 1.9.9 0 1.7-.7 1.7-1.9zM27.9 13.1c0-.4.3-.7.7-.7.4 0 .7.3.7.7v.3c.1-.5.9-1 1.5-1 .3 0 .6.2.7.6v.1c0 .3-.2.6-.5.7-1 .2-1.6 1-1.6 2.2v2c0 .4-.3.7-.7.7-.4 0-.7-.3-.7-.7l-.1-4.9zM32 13.1c0-.4.3-.7.7-.7.4 0 .7.3.7.7v4.8c0 .4-.3.7-.7.7-.4 0-.7-.3-.7-.7v-4.8zM34 13.1c0-.4.3-.7.7-.7.4 0 .7.3.7.7v.3c.4-.6 1.1-1 1.9-1 1.3 0 2.1.9 2.1 2.3v3.2c0 .4-.3.7-.6.7-.4 0-.7-.3-.7-.7v-2.8c0-.9-.5-1.5-1.3-1.5s-1.3.6-1.3 1.5v2.8c0 .4-.3.7-.7.7-.4 0-.7-.3-.7-.7l-.1-4.8zM45.4 12.4c-.4 0-.7.3-.7.7v.4c-.4-.6-1.1-1.1-2-1.1-1.4 0-2.8 1.1-2.8 3.1s1.4 3.1 2.8 3.1c1 0 1.6-.5 2-1-.1 1.1-.7 1.6-1.9 1.6-.6 0-1.3-.2-1.8-.5-.1 0-.2-.1-.2-.1-.3 0-.6.2-.6.6 0 .2.2.5.4.5.7.4 1.5.5 2.3.5 1.1 0 1.9-.3 2.5-.8.5-.5.8-1.2.8-2.2V13c-.1-.3-.4-.6-.8-.6zm-2.4 5c-.9 0-1.7-.7-1.7-1.9s.8-1.9 1.7-1.9 1.7.8 1.7 1.9c0 1.1-.8 1.9-1.7 1.9zM11.7 9.9c-.2.4-.4.8-.7 1.2-1.1-1.2-2.7-1.8-4.4-1.8-3.4 0-6.2 2.8-6.2 6.2 0 1.7.7 3.3 1.9 4.5l.2.2c1.1.9 2.5 1.5 4 1.5 3.2 0 6-2.5 6.2-5.8.3-1.6-.2-3.6-1-6zM3.2 20.1c-.1.1-.3.2-.4.2-.3 0-.5-.2-.5-.5s.2-.5.5-.5c.1 0 .2 0 .3.1.3.1.3.4.1.7zm8.5-1.9c-1.5 2-4.8 1.4-6.9 1.5 0 0-.4 0-.7.1 0 0 .1-.1.3-.1 1.5-.5 2.2-.6 3.1-1.1 1.7-.9 3.4-2.7 3.7-4.7-.6 1.9-2.6 3.5-4.4 4.2-1.2.4-3.4.9-3.4.9h-.1c-1.5-.7-1.5-4 1.2-5 1.2-.5 2.3-.2 3.6-.5 1.4-.3 3-1.4 3.6-2.7.7 2 1.5 5.3 0 7.4z"/></svg>