<?xml version="1.0" encoding="utf-8"?>
<!-- Generator: Adobe Illustrator 21.1.0, SVG Export Plug-In . SVG Version: 6.00 Build 0)  -->
<svg version="1.1" id="Layer_1" xmlns="http://www.w3.org/2000/svg" xmlns:xlink="http://www.w3.org/1999/xlink" x="0px" y="0px"
	 viewBox="0 0 512 512" style="enable-background:new 0 0 512 512;" xml:space="preserve">
<style type="text/css">
	.st0{fill:#C8D2D6;}
</style>
<path class="st0" d="M256,0C114.6,0,0,114.6,0,256s114.6,256,256,256s256-114.6,256-256S397.4,0,256,0z M389.1,161.9L343.6,379
	c-1.8,8.7-10.3,14.2-18.9,12.4c-2.3-0.5-4.4-1.4-6.2-2.8l-66.1-48.9l-40.1,37.8c-2.2,2.1-5.6,2-7.7-0.2c0,0,0,0-0.1-0.1l-0.9-0.9
	l7-67.4l125.5-114.7c1.4-1.2,1.5-3.4,0.2-4.7c-1.1-1.2-2.9-1.4-4.3-0.6L171.5,290.5l-69.1-23.2c-4.9-1.7-7.6-7-5.9-11.9
	c0.9-2.7,3-4.8,5.6-5.8l270.4-101.9c6.4-2.4,13.6,0.8,16,7.3C389.4,157.2,389.5,159.6,389.1,161.9L389.1,161.9z"/>
</svg>
