<svg width="60" height="61" viewBox="0 0 60 61" fill="none" xmlns="http://www.w3.org/2000/svg">
<path d="M54.876 19.8956L30.2376 3.47005C29.9352 3.26845 29.5416 3.26845 29.2392 3.47005L4.60075 19.8956C4.35055 20.0624 4.19995 20.3438 4.19995 20.6444C4.19995 20.945 4.34995 21.2264 4.60075 21.3932L8.34295 23.8881V37.0359C8.34295 37.3425 8.49895 37.6281 8.75695 37.7937L29.3964 51.0254C29.5446 51.1202 29.7132 51.1677 29.8824 51.1677C30.0594 51.1677 30.237 51.1155 30.3894 51.0111L41.1576 43.6646V48.7875L37.146 56.8106C37.0068 57.0896 37.0218 57.4214 37.185 57.6866C37.3488 57.9512 37.6392 58.1133 37.9506 58.1133H46.1639C46.4759 58.1133 46.7658 57.9512 46.9296 57.6866C47.0928 57.4214 47.1083 57.0896 46.9686 56.8106L42.957 48.7875V42.4365L49.7831 37.7793C50.0285 37.6119 50.1756 37.3335 50.1756 37.0359V24.5265L54.8754 21.3932C55.1255 21.2264 55.2762 20.945 55.2762 20.6444C55.2762 20.3438 55.1262 20.0624 54.876 19.8956ZM39.4074 56.3132L42.0576 51.0128L44.7078 56.3132H39.4074ZM29.8668 49.1889L10.143 36.5438V25.0881L29.2392 37.8195C29.3904 37.9202 29.5644 37.9706 29.7384 37.9706C29.9124 37.9706 30.0864 37.9202 30.2376 37.8195L41.1576 30.539V41.4855L29.8668 49.1889ZM48.3762 36.5606L42.9576 40.2579V29.3391L48.3762 25.7264V36.5606ZM48.9635 23.1716C48.8309 23.2208 48.714 23.2994 48.6191 23.4014L42.0576 27.7761L30.2376 19.8956C29.823 19.6196 29.265 19.7318 28.9896 20.1452C28.7142 20.5586 28.8258 21.1178 29.2392 21.3932L40.4352 28.8573L29.7384 35.9889L6.72235 20.6444L29.7384 5.30065L52.7543 20.6444L48.9635 23.1716Z" fill="#5AA3DA"/>
<path fill-rule="evenodd" clip-rule="evenodd" d="M42.0585 27.768L42.9239 28.3578L42.9511 29.3451V42.7544L42.9534 42.757V48.7824L46.965 56.8056C47.1048 57.0846 47.0892 57.4164 46.926 57.6816C46.7622 57.9462 46.4724 58.1082 46.1604 58.1082H37.947C37.6356 58.1082 37.3452 57.9462 37.1814 57.6816C37.0182 57.4164 37.0032 57.0846 37.1424 56.8056L41.154 48.7824V45.0002L41.1605 44.9935V30.556L41.1869 29.3859L40.4311 28.8526L40.4316 28.8522L40.4118 28.8389L40.4058 28.8347L40.4038 28.8337L29.2356 21.3882C28.8222 21.1128 28.7106 20.5536 28.986 20.1402C29.2614 19.7268 29.8194 19.6146 30.234 19.8906L42.054 27.771L42.0585 27.768ZM39.4038 56.3082L42.054 51.0078L44.7042 56.3082H39.4038Z" fill="#FF9C42"/>
</svg>
