<svg width="50" height="96" fill="none" xmlns="http://www.w3.org/2000/svg"><path d="M24.973 23C11.203 23 0 34.203 0 47.973s11.203 24.973 24.973 24.973 24.973-11.203 24.973-24.973S38.743 23 24.973 23Zm0 47.781c-12.577 0-22.81-10.232-22.81-22.808 0-12.577 10.232-22.81 22.81-22.81 12.577 0 22.808 10.233 22.808 22.81 0 12.576-10.232 22.808-22.808 22.808Z" fill="#5AA3DA"/><path d="m3.388 63.911-2.19 3.003 10.911 7.871 1.8-1.955M46.612 63.911l2.19 3.003-10.911 7.871-1.8-1.955" stroke="#5AA3DA" stroke-width="2" stroke-linecap="round" stroke-linejoin="round"/><path d="M26.105 33.616v4.011h-1.544v-4.011h1.544ZM26.06 58.41v3.738h-1.544V58.41h1.544Zm3.996-4.844c0-.747-.157-1.393-.47-1.938-.302-.555-.817-1.054-1.543-1.498-.717-.454-1.696-.898-2.937-1.332-1.272-.414-2.372-.883-3.3-1.408-.918-.525-1.63-1.18-2.134-1.968-.495-.797-.742-1.796-.742-2.997 0-1.18.258-2.205.772-3.072.525-.868 1.267-1.534 2.225-1.998.959-.475 2.084-.712 3.376-.712.999 0 1.892.146 2.679.439a5.108 5.108 0 0 1 2.013 1.317c.555.575.979 1.286 1.272 2.134.292.838.439 1.806.439 2.907h-1.802c0-.747-.1-1.433-.302-2.06a4.562 4.562 0 0 0-.878-1.634 3.89 3.89 0 0 0-1.454-1.09c-.565-.262-1.22-.393-1.967-.393-1.04 0-1.897.186-2.573.56-.677.373-1.176.873-1.499 1.498a4.42 4.42 0 0 0-.484 2.059c0 .736.136 1.382.408 1.937.273.555.767 1.06 1.484 1.514.716.444 1.745.893 3.088 1.347 1.271.414 2.36.883 3.27 1.408.917.525 1.624 1.18 2.118 1.968.495.777.742 1.77.742 2.982 0 1.22-.278 2.265-.833 3.133-.555.858-1.332 1.514-2.33 1.968-1 .454-2.165.68-3.497.68a9.885 9.885 0 0 1-2.543-.332 6.637 6.637 0 0 1-2.27-1.12c-.677-.515-1.217-1.196-1.62-2.044-.404-.857-.606-1.912-.606-3.163h1.801c0 .979.157 1.79.47 2.437.313.646.721 1.16 1.226 1.544a4.89 4.89 0 0 0 1.695.817 7.255 7.255 0 0 0 1.847.242c1.03 0 1.902-.181 2.618-.545.727-.373 1.282-.873 1.665-1.498a3.97 3.97 0 0 0 .576-2.09Z" fill="#FF9C42"/></svg>