<svg width="60" height="61" viewBox="0 0 60 61" fill="none" xmlns="http://www.w3.org/2000/svg">
<path d="M42.193 21.2485C42.196 21.2485 42.199 21.2485 42.2026 21.2485C43.4746 21.2485 44.6716 20.7535 45.5734 19.8547C46.4776 18.9535 46.9762 17.7541 46.9774 16.4773C46.9798 13.8409 44.8384 11.6935 42.2032 11.6899C42.202 11.6899 42.2002 11.6899 42.199 11.6899C40.924 11.6899 39.7246 12.1855 38.8222 13.0855C37.918 13.9867 37.4194 15.1861 37.4182 16.4605C37.4158 17.7385 37.912 18.9409 38.815 19.8463C39.718 20.7505 40.918 21.2485 42.193 21.2485ZM40.093 14.3599C40.6558 13.7989 41.404 13.4899 42.1984 13.4899C42.1996 13.4899 42.2002 13.4899 42.2014 13.4899C43.8436 13.4917 45.1786 14.8309 45.1774 16.4755C45.1768 17.2711 44.8654 18.0187 44.3026 18.5803C43.7404 19.1407 42.9946 19.4491 42.2008 19.4491C42.199 19.4491 42.1966 19.4491 42.1948 19.4491C41.3998 19.4491 40.6522 19.1389 40.0894 18.5749C39.526 18.0109 39.2164 17.2609 39.2182 16.4629C39.2188 15.6685 39.529 14.9215 40.093 14.3599Z" fill="#5AA3DA"/>
<path d="M57.8296 49.5031L48.6514 28.0321L51.7798 23.0282C51.8134 22.9754 51.8404 22.9196 51.8608 22.862C52.93 21.0884 53.4952 19.0789 53.4952 17.0389C53.5 14.0185 52.3306 11.1787 50.2018 9.04155C48.0724 6.90375 45.2362 5.72355 42.2146 5.71875C42.2092 5.71875 42.205 5.71875 42.2008 5.71875C35.9758 5.71875 30.9046 10.7791 30.8938 17.0065C30.8938 19.0783 31.4608 21.0997 32.5354 22.8637C32.5522 22.9057 32.5726 22.9471 32.5966 22.9867L34.2988 25.8458H12.5776C12.217 25.8458 11.8912 26.0606 11.7502 26.3923L1.87244 49.5025C1.75364 49.7803 1.78244 50.0995 1.94864 50.3521C2.11544 50.6041 2.39744 50.7559 2.69984 50.7559H57.0034C57.3058 50.7559 57.5884 50.6041 57.7546 50.3515C57.9202 50.1001 57.949 49.7815 57.8296 49.5031ZM34.1458 22.0471C33.1948 20.5375 32.6926 18.7951 32.6926 17.009C32.7016 11.774 36.9652 7.51935 42.1996 7.51935C42.2032 7.51935 42.2074 7.51935 42.2116 7.51935C44.7514 7.52295 47.1364 8.51535 48.9262 10.3123C50.7154 12.1087 51.6988 14.4967 51.6946 17.0365V17.0378C51.6946 18.8042 51.1888 20.5459 50.2318 22.0735C50.2 22.1245 50.1736 22.1786 50.1532 22.2338L42.004 35.27L36.6442 26.2687C36.6376 26.2585 36.6322 26.2472 36.6256 26.2369L34.2244 22.2044C34.2034 22.1504 34.177 22.0975 34.1458 22.0471ZM13.171 27.6463H15.247C15.373 30.2335 17.5906 31.2073 19.2256 31.9202C20.0848 32.2952 20.9728 32.6821 21.2524 33.1586C21.694 33.9116 21.4096 34.4353 20.5462 35.6329C19.7596 36.7237 18.7816 38.0816 19.4506 39.8605C20.4886 42.6217 25.8778 43.3628 31.786 43.9345C32.8588 44.0383 33.7852 44.1277 34.366 44.2261C38.9434 45.0031 40.4746 47.6017 40.9708 48.9565H4.06304L13.171 27.6463ZM42.859 48.9565C42.4492 47.4031 40.8172 43.4953 34.6666 42.452C34.0222 42.3428 33.0658 42.2504 31.9588 42.143C28.6822 41.8262 21.8644 41.1668 21.1354 39.227C20.8216 38.393 21.262 37.7179 22.006 36.6854C22.7974 35.5873 23.881 34.0843 22.8046 32.2477C22.2286 31.2655 21.067 30.7591 19.9438 30.2695C18.2326 29.5238 17.17 28.9508 17.0566 27.6458H35.3692L41.2114 37.4575C41.3722 37.7269 41.6614 37.8937 41.9746 37.8968C41.9782 37.8968 41.9812 37.8968 41.9848 37.8968C42.295 37.8968 42.5836 37.7371 42.7474 37.4737L47.488 29.8903L55.6378 48.9553H42.859V48.9565Z" fill="#5AA3DA"/>
<path d="M42.1964 21.2485C42.1994 21.2485 42.2024 21.2485 42.206 21.2485C43.478 21.2485 44.675 20.7535 45.5768 19.8547C46.481 18.9535 46.9796 17.7541 46.9808 16.4773C46.9832 13.8409 44.8418 11.6935 42.2066 11.6899C42.2054 11.6899 42.2036 11.6899 42.2024 11.6899C40.9274 11.6899 39.728 12.1855 38.8256 13.0855C37.9214 13.9867 37.4228 15.1861 37.4216 16.4605C37.4192 17.7385 37.9154 18.9409 38.8184 19.8463C39.7214 20.7505 40.9214 21.2485 42.1964 21.2485ZM40.0964 14.3599C40.6592 13.7989 41.4074 13.4899 42.2018 13.4899C42.203 13.4899 42.2036 13.4899 42.2048 13.4899C43.847 13.4917 45.182 14.8309 45.1808 16.4755C45.1802 17.2711 44.8688 18.0187 44.306 18.5803C43.7438 19.1407 42.998 19.4491 42.2042 19.4491C42.2024 19.4491 42.2 19.4491 42.1982 19.4491C41.4032 19.4491 40.6556 19.1389 40.0928 18.5749C39.5294 18.0109 39.2198 17.2609 39.2216 16.4629C39.2222 15.6685 39.5324 14.9215 40.0964 14.3599Z" fill="#FF9C42"/>
<path fill-rule="evenodd" clip-rule="evenodd" d="M48.6623 28.0497L48.6548 28.0321L51.7832 23.0282C51.8168 22.9754 51.8438 22.9196 51.8642 22.862C52.9334 21.0884 53.4986 19.0789 53.4986 17.0389C53.5034 14.0185 52.334 11.1787 50.2052 9.04155C48.0758 6.90375 45.2396 5.72355 42.218 5.71875H42.2042C35.9792 5.71875 30.908 10.7791 30.8972 17.0065C30.8972 19.0783 31.4642 21.0997 32.5388 22.8637C32.5556 22.9057 32.576 22.9471 32.6 22.9867L34.3022 25.8458H34.2975L35.3692 27.6458H35.3726L41.2148 37.4575C41.3756 37.7269 41.6648 37.8937 41.978 37.8968H41.9882C42.2984 37.8968 42.587 37.7371 42.7508 37.4737L46.4075 31.6242L46.4199 31.6001L46.6869 31.1773L47.4914 29.8903L47.4948 29.8982L48.6623 28.0497ZM34.1492 22.0471C33.1982 20.5375 32.696 18.7951 32.696 17.009C32.705 11.774 36.9686 7.51935 42.203 7.51935H42.215C44.7548 7.52295 47.1398 8.51535 48.9296 10.3123C50.7188 12.1087 51.7022 14.4967 51.698 17.0365V17.0378C51.698 18.8042 51.1922 20.5459 50.2352 22.0735C50.2034 22.1245 50.177 22.1786 50.1566 22.2338L42.0074 35.27L36.6476 26.2687C36.6462 26.2665 36.6448 26.2642 36.6434 26.2619C36.6417 26.2589 36.64 26.2559 36.6383 26.2528C36.6353 26.2474 36.6323 26.242 36.629 26.2369L34.2278 22.2044C34.2068 22.1504 34.1804 22.0975 34.1492 22.0471Z" fill="#FF9C42"/>
</svg>
