<?xml version="1.0" encoding="UTF-8"?>
<!-- Generator: Adobe Illustrator 23.0.6, SVG Export Plug-In . SVG Version: 6.00 Build 0)  -->
<svg version="1.1" id="Layer_1" xmlns="http://www.w3.org/2000/svg" xmlns:xlink="http://www.w3.org/1999/xlink" x="0px" y="0px" viewBox="0 0 208.8 55.1" style="enable-background:new 0 0 208.8 55.1;" xml:space="preserve">
<style type="text/css">
	.st0{fill-rule:evenodd;clip-rule:evenodd;fill:#43A1DA;}
	.st1{fill:#EE6523;}
	.st2{fill-rule:evenodd;clip-rule:evenodd;fill:#FFFFFF;}
</style>
<image style="display:none;overflow:visible;enable-background:new    ;" width="163" height="63" xlink:href="7926FCB9.jpeg" transform="matrix(1 0 0 1 22.9548 -2.2949)">
</image>
<polygon class="st0" points="198.8,52.6 198.6,52.3 198.5,52 198.3,51.6 198.2,51.2 198.1,50.8 198.1,50.5 198.1,18.4 207.7,18.4   207.7,50.7 207.7,51 207.6,51.2 207.5,51.6 207.4,51.9 207.2,52.3 207.1,52.6 206.9,52.8 206.7,53 206.6,53.2 206.3,53.5   206.1,53.7 205.8,54 205.5,54.1 205.3,54.2 205.1,54.4 204.8,54.5 204.7,54.5 204.6,54.6 204.4,54.7 204.1,54.7 203.8,54.8   203.5,54.8 203.3,54.9 203,54.9 202.8,54.9 202.6,54.9 202.3,54.8 202.1,54.8 201.8,54.7 201.5,54.7 201.2,54.6 200.9,54.4   200.5,54.2 200.2,54.1 200,53.9 199.7,53.7 199.5,53.4 199.2,53.1 199,52.9 "/>
<path class="st0" d="M202.6,14.9c3.4,0,6.2-2.7,6.2-5.9c0-3.3-2.8-6-6.2-6c-3.4,0-6.2,2.7-6.2,6C196.4,12.2,199.2,14.9,202.6,14.9z"/>
<path class="st0" d="M190.1,54.8l-0.6-0.1l-0.6-0.1l-0.9-0.2l-1-0.3L186,54l-1-0.4l-0.8-0.3l-0.7-0.3l-0.8-0.4l-0.6-0.3l-0.6-0.4  l-0.7-0.5l-0.4-0.3l-0.7-0.5l-0.7-0.7l-0.5-0.5l-0.4-0.4l-0.5-0.6l-0.3-0.4l-0.3-0.4l-0.4-0.5l-0.4-0.8l-0.4-0.5l-0.4-0.5l-0.4-0.9  l-0.3-0.6l-0.3-0.6l-0.2-0.7l-0.1-0.6l-0.2-0.6l-0.1-0.7l-0.1-0.6l-0.1-0.7l-0.1-0.6l-0.1-0.6l0-0.5l0-0.7l0-0.6v-9.6h-4  c0-5,0-2.3,0-7.8h4V7.5l0-0.1V7.4l0-0.2V7l0-0.1l0-0.2l0.1-0.1l0-0.2l0.1-0.2l0.1-0.1l0.1-0.1l0.1-0.1l0.1-0.1l0.1-0.1l0-0.1  l0.1-0.1l0.1-0.1l0.1-0.1l0.1-0.1l0.1-0.1l0.1-0.1l0.1-0.1l0.1-0.1l0.1-0.1l0.1-0.1l0.1-0.1l0.1-0.1l0.1-0.1l0.2-0.1l0.1-0.1  l0.2-0.1l0.2-0.1l0.2-0.1l0.3-0.1l0.2-0.1l0.2-0.1l0.3-0.1l0.2,0l0.2,0l0.3,0h0.1l0.2,0h0.2h0.1h0.2l0.2,0l0.3,0l0.3,0l0.2,0  l0.2,0.1l0.2,0l0.2,0.1l0.2,0.1l0.3,0.1l0.2,0.1l0.1,0.1l0.1,0.1l0.1,0.1l0.1,0.1l0.2,0.1l0.1,0.1l0.1,0.1l0.1,0.1l0.1,0.1l0.1,0.1  l0.1,0.1l0.1,0.1l0.1,0.1l0.1,0.1l0.1,0.1l0.1,0.1l0.1,0.2l0.1,0.2l0.1,0.2l0.1,0.1l0.1,0.1l0.1,0.2l0.1,0.2l0.1,0.3l0,0.2l0.1,0.3  v0.1v0.1v10.9h6.9v7.7h-6.9v10.6l0,0.7l0.1,0.5l0.1,0.5l0.1,0.5l0.2,0.6l0.2,0.5l0.2,0.5l0.3,0.5l0.3,0.5l0.3,0.3l0.2,0.3l0.2,0.2  l0.3,0.3l0.3,0.4l0.4,0.3l0.4,0.3l0.4,0.3l0.3,0.2l0.4,0.2l0.4,0.2l0.5,0.3l0.6,0.2l0.4,0.1l0.5,0.1L190.1,54.8L190.1,54.8z"/>
<path class="st0" d="M156.7,54.9h9.6l0-18.1c0,0-0.2-17.5-18.3-18.2c-6.6-0.2-17.6,4.3-18.4,18.3c-0.1,2.6,1.3,17,18.3,18.2  c0,0,3.2,0.1,7-1.4V42.2c0,0-2.8,3.6-6.9,3.4s-8.7-2.7-8.8-8.8c-0.1-6.1,5.8-8.8,8.8-8.8c2.3,0,8.4,1.5,8.8,8.8"/>
<g>
	<polygon class="st0" points="91.6,18.3 121.7,18.3 124.8,27.8 105.2,45.4 126.7,45.4 126.7,54.9 96.3,54.9 91.8,45.8 110.2,27.8    91.6,27.8  "/>
	<path class="st0" d="M96,54.9c3.1,0,5.7-2.4,5.7-5.4c0-3-2.5-5.5-5.7-5.5c-3.1,0-5.7,2.4-5.7,5.5C90.4,52.5,92.9,54.9,96,54.9z"/>
	<path class="st0" d="M121.2,29.1c3.1,0,5.6-2.4,5.6-5.4c0-3-2.5-5.4-5.6-5.4c-3.1,0-5.6,2.4-5.6,5.4   C115.5,26.7,118.1,29.1,121.2,29.1z"/>
</g>
<g id="Ð">
	<path class="st0" d="M68.4,8.9c2.6,0,4.6-2,4.6-4.5C73.1,2,71,0,68.4,0s-4.7,2-4.7,4.5C63.8,6.9,65.9,8.9,68.4,8.9z"/>
	<rect id="_x2D_" x="56.8" y="34.5" class="st0" width="22.2" height="7.6"/>
	<polygon class="st0" points="89.6,54.9 79.9,54.9 63.9,3.3 72.9,3.3  "/>
	<polygon class="st0" points="47.2,54.9 56.9,54.9 72.9,3.3 63.9,3.3  "/>
</g>
<g>
	<path id="logo3" class="st1" d="M8.8,0.4l21.6,0c0,0,6.2,0.1,6.3,6.3v41.5c0,0,0,5.9-6.5,6.2H8.7l19.6-21.3c0,0,5.8-5.4,0.6-10.8   L8.8,0.4z"/>
	<polygon id="logo2" class="st1" points="0,9.6 16.4,27.3 0,45.2  "/>
	<path id="logo1" class="st2" d="M0,45.2l16.4-17.9L0,9.6V7.1c0,0-0.4-6.8,6.6-6.8c2.2,0,2.2,0,2.2,0l20.3,22.1c0,0,4.7,4.7,0,9.7   C24.8,36.9,8.7,54.4,8.7,54.4H7c0,0-7,0.2-7-6.9C0,45.2,0,45.2,0,45.2z"/>
</g>
</svg>