<svg width="1112" height="771" fill="none" xmlns="http://www.w3.org/2000/svg"><path d="m929.438 686.156 8.74-44.837h11.652l-8.739 44.837h-11.653ZM999.353 686.156l8.737-44.837h11.65l-8.73 44.837h-11.657ZM952.744 686.156l8.739-44.837h11.653l-8.74 44.837h-11.652ZM1022.66 686.156l8.74-44.837h11.65l-8.74 44.837h-11.65ZM976.049 686.156l8.739-44.837h11.653l-8.74 44.837h-11.652ZM1045.96 686.156l8.74-44.837h11.66l-8.74 44.837h-11.66Z" fill="#E1FF51"/><path d="m3.362 642.898 14.996-120.662h19.995L23.357 642.898H3.362ZM123.33 642.897l14.996-120.661h19.995l-14.996 120.662-19.995-.001ZM43.352 642.897l14.996-120.661h19.994L63.346 642.898l-19.994-.001ZM163.32 642.897l14.996-120.661h19.994l-14.996 120.662-19.994-.001ZM83.34 642.897l14.997-120.661h19.994l-14.996 120.662-19.994-.001ZM203.309 642.897l14.996-120.661h19.994l-14.996 120.662-19.994-.001Z" fill="#FF9243"/><path d="M191.091 724.952h94.597l-8.091 12.447H183l8.091-12.447Z" fill="#E1FF51"/><path d="m755 759 40.816-188h54.421l-40.816 188H755ZM850.236 759l40.816-188h54.421l-40.816 188h-54.421ZM67.394 424.608l60.231-277.426h80.307l-60.23 277.427-80.308-.001ZM207.932 424.608l60.231-277.426h80.307l-60.23 277.427-80.308-.001Z" fill="#FA8531"/><path d="m377.311 175.599 21.436-103.13h28.583L405.893 175.6h-28.582ZM427.33 175.599l21.436-103.13h28.583L455.912 175.6H427.33Z" fill="#FF9243"/><path d="m709.742 297.563 20.896-107.207h27.861l-20.896 107.207h-27.861ZM876.91 297.562l20.896-107.206h27.861l-20.896 107.207-27.861-.001ZM765.465 297.562l20.896-107.206h27.861l-20.896 107.207-27.861-.001ZM932.632 297.562l20.896-107.206h27.861l-20.896 107.207-27.861-.001ZM821.187 297.562l20.895-107.206h27.862l-20.896 107.207-27.861-.001ZM988.354 297.562l20.896-107.206h27.86l-20.89 107.207-27.866-.001Z" fill="#FA8531"/><path d="M900.307 136.717h41.406l-3.541 6.224h-41.406l3.541-6.224ZM936.265 142.941h41.406l-3.541 6.223h-41.406l3.541-6.223Z" fill="#E1FF51"/><path d="M944.631 398.856H1112l-14.31 12.973H930.316l14.315-12.973ZM924.81 421.559h167.37l-14.32 12.974H910.496l14.314-12.974ZM904.991 444.263h167.369l-14.31 12.973H890.676l14.315-12.973ZM885.17 466.966h167.37l-14.31 12.973H870.856l14.314-12.973Z" fill="#FF9243"/><path d="M1043.02 260.33v-78.831l6.22 6.742v78.831l-6.22-6.742ZM1053.91 269.665v-78.83l6.22 6.742v78.831l-6.22-6.743ZM1064.8 279.001V200.17l6.22 6.742v78.831l-6.22-6.742ZM1075.69 288.336v-78.831l6.22 6.742v78.831l-6.22-6.742Z" fill="#E1FF51"/><path d="M1.839 661.061h21.5l-1.84 26.449H0l1.839-26.449ZM79.632 661.061h21.5l-1.84 26.449H77.794l1.84-26.449ZM40.736 661.061h21.5l-1.84 26.449H38.897l1.839-26.449ZM118.529 661.061h21.5l-1.839 26.449h-21.5l1.839-26.449ZM157.426 661.061h21.5l-1.839 26.449h-21.5l1.839-26.449ZM235.343 661.061h22.932l-1.961 26.449h-22.933l1.962-26.449ZM196.323 661.061h21.499l-1.838 26.449h-21.5l1.839-26.449Z" fill="#FA8531"/><path d="M374.522 0h29.492l-2.523 6.223H372L374.522 0ZM481.234 0h29.491l-2.522 6.223h-29.492L481.234 0ZM427.878 0h29.491l-2.522 6.223h-29.491L427.878 0ZM534.59 0h29.491l-2.522 6.223h-29.491L534.59 0ZM587.946 0h29.491l-2.522 6.223h-29.491L587.946 0ZM694.826 0h31.457l-2.69 6.223h-31.458L694.826 0ZM641.302 0h29.491l-2.522 6.223H638.78L641.302 0ZM750.148 0h29.491l-2.522 6.223h-29.492L750.148 0Z" fill="#E1FF51"/><path d="M160.561 247.256S365.209 347.7 340.836 113.33c0 0 160.861 131.139 263.101 33.482 0 0 75.529 142.286 238.746 2.787 0 0-53.607 198.101 148.59 175.824 0 0-155.903 125.564-7.294 231.583 0 0-238.747-39.056-209.493 209.268 0 0-119.373-203.676-248.492-72.537 0 0-48.632-103.25-272.827-2.806 0 0 67.786-96.329 41.413-170.212-21.941-61.389-119.374-19.528-119.374-19.528s124.2-106.168-14.645-253.935Z" fill="#0A106C"/><path d="M148.478 237.043s201.43 98.873 177.451-131.831c0 0 158.279 129.063 258.985 32.958 0 0 74.333 140.061 235.006 2.731 0 0-52.747 195.015 146.271 173.037 0 0-153.379 123.601-7.183 227.954 0 0-235.006-38.438-206.238 205.995 0 0-117.503-200.496-244.582-71.415 0 0-47.959-101.622-268.581-2.749 0 0 66.738-94.833 40.757-167.538-21.566-60.416-117.503-19.21-117.503-19.21s122.31-104.372-14.383-249.932Z" fill="#E1FF51"/><path d="M809.353 286.124c.093-3.61-19.098-60.809-24.672-65.073-3.516-2.694-12.719-1.198-19.004.261a300.969 300.969 0 0 0-8.903-17.189c-23.905-42.74-48.37-63.185-49.399-64.026a9.352 9.352 0 0 0-11.859 14.383s3.105 2.619 7.968 7.688c-27.477 71.602-108.487 109.965-126.182 117.653-1.72-3.255-3.067-5.163-3.741-5.256-5.611-.655-145.896 56.694-148.44 58.676a21.644 21.644 0 0 0-7.594 14.777c.066.873.242 1.734.524 2.563-2.956 2.3-8.062 7.182-7.969 13.093.15 8.267 23.662 57.984 26.355 60.135a7.483 7.483 0 0 0 4.153.749h3.946l.749-.094.916-.131.655-.093.617-.094h.58l.58-.093.879-.15h.112l2.002 4.302c.729 2.151 24.521-4.059 53.813-12.7.767 1.87 1.87 4.47 3.068 7.481a35.015 35.015 0 0 0-7.613 8.249c-3.592 6.098-3.91 17.152-3.91 17.152-2.805 5.256.431 35.969-3.871 47.847-4.303 11.877-100.37 72.107-100.37 72.107l112.92 9.127s38.457-36.548 42.086-38.999a49.31 49.31 0 0 1 8.286-3.367c.187.35.356.705.505 1.066.094.169.169.337.243.506.262.542.505 1.066.767 1.589l.206.449c.262.543.505 1.048.767 1.553l.15.318c.579 1.178 1.141 2.263 1.627 3.217.05.071.094.146.131.224l.561 1.067.206.355.43.748.206.356.336.561.206.299.281.412.168.224.262.299.112.112a.828.828 0 0 0 .281.206h1.627l.842-.149h.205l1.067-.262h.13c.431-.094.88-.225 1.347-.356 13.655-4.002 47.398-19.49 48.932-23.193.43-1.029-1.59-8.586-4.938-19.64-.468-1.572-.973-3.199-1.497-4.92a81.179 81.179 0 0 0 6.828-10.306c8.099-14.758-1.459-24.784-1.422-26.336.037-1.553 4.844-7.613 3.404-11.784-1.44-4.171-9.52-11.578-9.52-11.578s2.281-8.698 1.365-12.851c-.917-4.152-13.093-9.614-13.093-9.614s.785-10.811-1.702-14.964c-2.488-4.152-13.094-9.614-16.255-9.689a11.96 11.96 0 0 0-4.564 2.301c-.28-.748-.505-1.421-.711-1.983 23.381-7.65 40.683-13.691 40.702-14.365a54.422 54.422 0 0 0-1.758-5.518 175.06 175.06 0 0 1 5.723-1.215c27.29-5.425 104.41-16.124 163.105 20.388 0 3.161 0 6.359-.131 9.595a9.356 9.356 0 0 0 18.705.468 427.98 427.98 0 0 0-9.539-103.231c6.06-3.835 16.965-10.737 17.021-13.337Z" fill="#FF8831"/><path d="m834.51 316.463-485.405-51.326a18.49 18.49 0 0 0-7.183.653 18.478 18.478 0 0 0-6.384 3.355 18.462 18.462 0 0 0-6.746 12.434l-28.918 273.519-1.87 17.432a18.5 18.5 0 0 0 16.441 20.332l177.526 18.705h-.299l-5.013 24.484.318-.093-7.688 37.578c-26.186 2.562-56.563 6.172-56.563 6.172h.375a2.191 2.191 0 0 0-2.413 1.871l-.524 4.938a2.207 2.207 0 0 0 1.87 2.413l126.164 13.336 126.181 13.337a2.192 2.192 0 0 0 2.395-1.871l.523-4.938a2.205 2.205 0 0 0-1.87-2.413l-126.163-13.336 126.537 13.374s-28.917-9.82-54-17.732l.523-63.204 177.545 18.705a18.452 18.452 0 0 0 13.567-4.008 18.468 18.468 0 0 0 6.747-12.433l1.87-17.414 28.899-273.557a18.499 18.499 0 0 0-16.442-20.313Z" fill="#FF8831"/><path d="m818.704 306.849-485.405-51.326a18.5 18.5 0 0 0-20.332 16.442l-28.955 273.537 522.216 55.272 28.918-273.537a18.487 18.487 0 0 0-9.538-18.241 18.463 18.463 0 0 0-6.904-2.147Z" fill="#0A106C"/><path d="m284.012 545.502-1.87 17.433a18.477 18.477 0 0 0 16.441 20.313l485.406 51.326a18.499 18.499 0 0 0 20.313-16.442l1.87-17.432-522.16-55.198ZM593.556 675.107l-58.546-6.191-58.546-6.192c-27.701 2.432-69.525 7.482-69.525 7.482l126.537 13.374 126.5 13.299s-39.841-13.598-66.42-21.772Z" fill="#fff"/><path d="m533.476 683.506-126.181-13.337a2.174 2.174 0 0 0-2.395 1.871l-.523 4.919a2.188 2.188 0 0 0 1.87 2.413l126.163 13.336 126.163 13.337a2.191 2.191 0 0 0 2.413-1.871l.524-4.919a2.191 2.191 0 0 0-1.87-2.413l-126.164-13.336ZM541.351 608.911l-65.167-6.883-12.869 62.717a1.672 1.672 0 0 0 .797 1.749c.198.115.417.188.644.215l69.712 7.369 69.713 7.37a1.664 1.664 0 0 0 1.87-1.609l.524-64.045-65.224-6.883Z" fill="#C0C0DE"/><path d="M542.286 600.008a10.162 10.162 0 0 1-8.629-7.253 10.158 10.158 0 0 1 8.843-12.958 10.16 10.16 0 0 1 9.899 5.392 10.145 10.145 0 0 1-.072 9.583 10.163 10.163 0 0 1-6.077 4.892 10.17 10.17 0 0 1-3.964.344Zm1.983-18.705a8.607 8.607 0 0 0-8.464 4.444 8.6 8.6 0 0 0 .867 9.521 8.605 8.605 0 0 0 15.247-4.501 8.621 8.621 0 0 0-7.65-9.408v-.056Z" fill="#A9A9C4"/><path d="M822.896 320.219 326.43 267.775l-28.464 269.457 496.467 52.444 28.463-269.457Z" fill="#3919A4"/><path d="M809.352 301.986c.094-3.592-19.097-60.809-24.671-65.074-3.517-2.693-12.72-1.197-19.004.262a301.331 301.331 0 0 0-8.904-17.19c-23.904-42.74-48.37-63.165-49.399-64.026a9.353 9.353 0 0 0-11.877 14.384s3.105 2.619 7.968 7.688c-27.477 71.62-108.487 109.965-126.182 117.652-1.721-3.236-3.068-5.162-3.741-5.256-5.611-.654-145.897 56.694-148.44 58.696a21.552 21.552 0 0 0-7.595 14.758c.067.872.243 1.733.524 2.562-2.955 2.319-8.062 7.183-7.968 13.093.15 8.268 23.661 57.985 26.355 60.136a7.479 7.479 0 0 0 4.152.748H444.517l.748-.093.917-.113.654-.093.618-.094.58-.093h.579l.879-.168h.113l2.001 4.302c.73 2.169 24.522-4.041 53.814-12.701.766 1.871 1.87 4.489 3.067 7.482a34.755 34.755 0 0 0-7.613 8.267c-3.591 6.098-3.909 17.134-3.909 17.134-2.806 5.256.43 35.969-3.872 47.865S392.649 583.94 392.649 583.94l112.92 9.128s38.551-36.249 42.179-38.737a51.036 51.036 0 0 1 8.286-3.367c.187.349.356.705.505 1.066.094.168.169.337.244.505.262.543.505 1.066.767 1.59l.205.449c.262.542.505 1.047.767 1.552l.15.318c.58 1.198 1.141 2.264 1.627 3.218.051.07.094.145.131.224l.561 1.066.206.356c.15.262.281.523.43.748l.206.355.337.561.205.3.281.411.168.225.262.299.112.112a.828.828 0 0 0 .281.206c.193.023.387.023.58 0h1.047c.283-.035.564-.085.842-.15h.206c.336 0 .692-.149 1.066-.262h.131l1.347-.374c13.654-4.021 47.397-19.49 48.931-23.212.43-1.01-1.59-8.586-4.938-19.64a619.6 619.6 0 0 0-1.496-4.92 81.548 81.548 0 0 0 6.827-10.324c8.099-14.759-1.459-24.784-1.422-26.337.038-1.552 4.845-7.613 3.405-11.765-1.441-4.152-9.521-11.597-9.521-11.597s2.282-8.698 1.365-12.85c-.916-4.152-13.093-9.614-13.093-9.614s.786-10.812-1.702-14.964c-2.488-4.152-13.093-9.614-16.255-9.689a11.921 11.921 0 0 0-4.563 2.301c-.281-.749-.505-1.422-.711-1.983 23.381-7.65 40.682-13.692 40.701-14.365a57.707 57.707 0 0 0-1.758-5.612c1.534-.355 3.442-.767 5.724-1.216 27.29-5.405 104.409-16.123 163.105 20.389 0 3.161-.001 6.359-.131 9.595a9.352 9.352 0 0 0 9.118 9.586 9.358 9.358 0 0 0 9.586-9.118 427.88 427.88 0 0 0-9.539-103.231c6.06-3.685 16.965-10.569 17.021-13.187ZM329.353 351.347a5.615 5.615 0 0 1-8 3.431 5.61 5.61 0 0 1-1.736-8.529 5.612 5.612 0 0 1 9.736 5.098ZM323.966 374.653a6.89 6.89 0 0 1-5.853 4.924 6.881 6.881 0 0 1-6.788-3.522 6.878 6.878 0 0 1 .655-7.62 6.887 6.887 0 0 1 9.676-1.074 6.896 6.896 0 0 1 2.54 4.616c.1.899.022 1.808-.23 2.676ZM318.598 397.978a8.215 8.215 0 0 1-6.985 5.86 8.213 8.213 0 0 1-3.39-15.987 8.222 8.222 0 0 1 4.763-.067 8.23 8.23 0 0 1 5.612 10.194ZM313.21 421.209a9.534 9.534 0 0 1-8.11 6.824 9.537 9.537 0 0 1-9.408-4.88 9.544 9.544 0 0 1 .907-10.56 9.539 9.539 0 0 1 10.102-3.205 9.578 9.578 0 0 1 6.509 11.821ZM297.386 452.428c6.002 0 10.867-4.866 10.867-10.868 0-6.002-4.865-10.867-10.867-10.867-6.002 0-10.867 4.865-10.867 10.867 0 6.002 4.865 10.868 10.867 10.868ZM302.436 467.971a12.173 12.173 0 0 1-17.304 7.408 12.181 12.181 0 0 1-6.521-11.852 12.176 12.176 0 0 1 15.52-10.651 12.195 12.195 0 0 1 8.305 15.095Z" fill="#0A106C"/><path d="M284.408 500.986c7.455-.216 13.323-6.435 13.107-13.891-.216-7.455-6.435-13.324-13.89-13.108-7.455.217-13.324 6.435-13.108 13.891.216 7.455 6.435 13.324 13.891 13.108Z" fill="#0A106C"/><path d="M291.663 514.527a14.84 14.84 0 0 1-12.606 10.62 14.833 14.833 0 1 1 12.606-10.62Z" fill="#0A106C"/><path d="M286.276 537.833a16.157 16.157 0 0 1-13.738 11.568 16.16 16.16 0 1 1 13.738-11.568Z" fill="#0A106C"/><path d="M280.889 561.158a17.481 17.481 0 0 1-5.551 8.493 17.48 17.48 0 0 1-9.335 3.976 17.478 17.478 0 0 1-17.213-8.989 17.47 17.47 0 0 1 20.259-25.14 17.489 17.489 0 0 1 11.84 21.66Z" fill="#0A106C"/><path d="M273.427 589.121c5.497-8.808 2.814-20.404-5.994-25.901-8.807-5.497-20.403-2.813-25.9 5.994s-2.813 20.403 5.994 25.9 20.403 2.814 25.9-5.993ZM356.5 363.297a5.574 5.574 0 1 0-5.368-9.771 5.574 5.574 0 0 0 5.368 9.771ZM353.762 383.295a6.902 6.902 0 1 1-4.695-8.529 6.886 6.886 0 0 1 4.695 8.529ZM348.375 406.62a8.209 8.209 0 0 1-6.985 5.859 8.213 8.213 0 0 1-7.313-13.286 8.205 8.205 0 0 1 8.687-2.767 8.22 8.22 0 0 1 4.923 3.931 8.214 8.214 0 0 1 .688 6.263ZM342.988 429.926a9.535 9.535 0 0 1-3.021 4.641 9.532 9.532 0 0 1-10.533 1.169 9.543 9.543 0 0 1-5.112-9.284 9.541 9.541 0 0 1 6.619-8.277 9.539 9.539 0 0 1 12.047 11.751ZM337.601 453.232a10.85 10.85 0 0 1-15.384 6.642 10.845 10.845 0 0 1-3.551-16.376 10.85 10.85 0 0 1 17.992 1.453 10.857 10.857 0 0 1 .943 8.281ZM332.214 476.538a12.174 12.174 0 0 1-17.303 7.408 12.173 12.173 0 0 1-6.521-11.852 12.175 12.175 0 0 1 15.519-10.651 12.162 12.162 0 0 1 8.721 10.357 12.155 12.155 0 0 1-.416 4.738Z" fill="#0A106C"/><path d="M315.903 509.448c7.373-1.126 12.436-8.017 11.309-15.39-1.127-7.373-8.017-12.436-15.39-11.309-7.373 1.127-12.436 8.017-11.309 15.39 1.126 7.373 8.017 12.436 15.39 11.309Z" fill="#0A106C"/><path d="M314.315 532.035c7.193-3.92 9.846-12.929 5.926-20.122s-12.929-9.846-20.122-5.926-9.846 12.929-5.926 20.122 12.929 9.846 20.122 5.926Z" fill="#0A106C"/><path d="M309.55 555.364c7.413-4.951 9.409-14.975 4.457-22.389-4.952-7.413-14.975-9.409-22.389-4.457-7.413 4.952-9.409 14.975-4.457 22.389 4.951 7.413 14.975 9.409 22.389 4.457Z" fill="#0A106C"/><path d="M310.667 569.8a17.472 17.472 0 0 1-32.083 3.54 17.473 17.473 0 0 1 26.227-22.064 17.439 17.439 0 0 1 6.451 11.726 17.465 17.465 0 0 1-.595 6.798Z" fill="#0A106C"/><path d="M296.815 604.028c8.936-5.285 11.896-16.813 6.611-25.749-5.285-8.937-16.813-11.897-25.749-6.612-8.937 5.285-11.897 16.813-6.612 25.75 5.285 8.936 16.813 11.896 25.75 6.611ZM388.927 368.631a5.617 5.617 0 0 1-4.784 4.037 5.615 5.615 0 0 1-5.546-2.904 5.61 5.61 0 0 1 3.317-8.047 5.612 5.612 0 0 1 7.013 6.914ZM383.54 391.937a6.902 6.902 0 1 1-4.695-8.53 6.876 6.876 0 0 1 4.121 3.289 6.854 6.854 0 0 1 .574 5.241ZM378.153 415.262a8.216 8.216 0 0 1-6.985 5.859 8.213 8.213 0 0 1-7.314-13.286 8.213 8.213 0 0 1 14.299 7.427ZM372.766 438.567a9.54 9.54 0 1 1-6.453-11.746 9.522 9.522 0 0 1 6.453 11.746ZM365.889 464.985c3.419-4.933 2.191-11.704-2.743-15.122-4.933-3.419-11.703-2.191-15.122 2.742-3.418 4.934-2.19 11.704 2.743 15.123 4.933 3.418 11.704 2.19 15.122-2.743ZM361.992 485.18a12.182 12.182 0 0 1-17.304 7.408 12.173 12.173 0 0 1-6.52-11.853 12.176 12.176 0 0 1 15.519-10.65 12.168 12.168 0 0 1 7.288 5.822 12.157 12.157 0 0 1 1.017 9.273Z" fill="#0A106C"/><path d="M356.605 508.504a13.504 13.504 0 1 1-9.203-16.74 13.477 13.477 0 0 1 8.077 6.46 13.487 13.487 0 0 1 1.126 10.28Z" fill="#0A106C"/><path d="M351.218 531.81a14.808 14.808 0 0 1-12.601 10.586 14.816 14.816 0 0 1-13.188-23.983 14.814 14.814 0 0 1 25.789 13.397Z" fill="#0A106C"/><path d="M330.325 566.769c8.915 0 16.142-7.227 16.142-16.142s-7.227-16.142-16.142-16.142-16.142 7.227-16.142 16.142 7.227 16.142 16.142 16.142Z" fill="#0A106C"/><path d="M337.834 583.787c5.641-7.828 3.869-18.746-3.959-24.388-7.827-5.641-18.746-3.869-24.387 3.959-5.641 7.827-3.869 18.746 3.958 24.387 7.828 5.642 18.747 3.869 24.388-3.958Z" fill="#0A106C"/><path d="M335.076 601.747a18.797 18.797 0 1 1-12.813-23.287 18.698 18.698 0 0 1 11.262 8.972 18.691 18.691 0 0 1 1.551 14.315ZM418.686 377.272a5.61 5.61 0 1 1-10.79-3.078 5.61 5.61 0 0 1 10.79 3.078ZM413.318 400.634a6.89 6.89 0 0 1-5.853 4.924 6.881 6.881 0 0 1-6.788-3.522 6.878 6.878 0 0 1 .655-7.62 6.887 6.887 0 0 1 7.291-2.311 6.851 6.851 0 0 1 4.121 3.288 6.864 6.864 0 0 1 .574 5.241ZM407.931 423.884a8.211 8.211 0 1 1-15.774-4.57 8.211 8.211 0 0 1 15.774 4.57ZM402.544 447.209a9.54 9.54 0 0 1-18.664-3.492 9.54 9.54 0 0 1 12.173-8.329 9.515 9.515 0 0 1 6.818 8.113 9.518 9.518 0 0 1-.327 3.708ZM391.969 476.981c5.267-2.88 7.201-9.483 4.322-14.749-2.88-5.266-9.483-7.201-14.749-4.322-5.266 2.88-7.201 9.483-4.321 14.749 2.879 5.266 9.482 7.201 14.748 4.322Z" fill="#0A106C"/><path d="M391.789 493.821a12.176 12.176 0 0 1-22.362 2.471 12.172 12.172 0 0 1 1.161-13.478 12.176 12.176 0 0 1 21.201 11.007Z" fill="#0A106C"/><path d="M386.402 517.146a13.499 13.499 0 0 1-11.516 9.576 13.505 13.505 0 1 1 11.516-9.576Z" fill="#0A106C"/><path d="M381.015 540.452a14.837 14.837 0 0 1-12.606 10.62 14.833 14.833 0 1 1 12.606-10.62Z" fill="#0A106C"/><path d="M368.037 573.33c7.779-4.354 10.555-14.191 6.2-21.97-4.354-7.779-14.191-10.555-21.97-6.2-7.779 4.354-10.555 14.191-6.2 21.97 4.354 7.779 14.191 10.555 21.97 6.2Z" fill="#0A106C"/><path d="M368.512 591.099c4.89-8.318 2.111-19.025-6.207-23.915-8.317-4.889-19.024-2.11-23.914 6.207-4.889 8.318-2.111 19.025 6.207 23.915 8.318 4.889 19.025 2.11 23.914-6.207Z" fill="#0A106C"/><path d="M356.249 621.394c8.986-5.199 12.057-16.699 6.858-25.685-5.199-8.987-16.699-12.057-25.685-6.858-8.987 5.199-12.057 16.698-6.858 25.685 5.199 8.986 16.698 12.057 25.685 6.858ZM448.501 385.914a5.607 5.607 0 0 1-7.999 3.43 5.607 5.607 0 0 1-2.983-5.503 5.61 5.61 0 1 1 10.982 2.073ZM443.114 409.22a6.902 6.902 0 1 1-4.713-8.53 6.89 6.89 0 0 1 4.942 5.85c.101.9.023 1.81-.229 2.68ZM437.727 432.526a8.208 8.208 0 0 1-6.978 5.875 8.21 8.21 0 0 1-9.091-8.857 8.21 8.21 0 0 1 10.458-7.194 8.232 8.232 0 0 1 5.611 10.176ZM432.34 455.85a9.546 9.546 0 0 1-8.11 6.824 9.537 9.537 0 0 1-9.408-4.88 9.544 9.544 0 0 1 .907-10.56 9.536 9.536 0 0 1 10.102-3.205 9.547 9.547 0 0 1 5.704 4.562 9.546 9.546 0 0 1 .805 7.259ZM426.954 479.194a10.875 10.875 0 0 1-9.208 7.803 10.87 10.87 0 0 1-10.736-5.513 10.87 10.87 0 0 1 12.462-15.739 10.879 10.879 0 0 1 6.531 5.172 10.868 10.868 0 0 1 .951 8.277ZM421.567 502.463a12.176 12.176 0 1 1-8.305-15.095 12.14 12.14 0 0 1 4.224 2.185 12.155 12.155 0 0 1 4.081 12.91Z" fill="#0A106C"/><path d="M409.865 533.772c6.489-3.677 8.769-11.918 5.091-18.407-3.677-6.489-11.918-8.769-18.407-5.091-6.489 3.677-8.769 11.918-5.091 18.407 3.677 6.489 11.918 8.768 18.407 5.091Z" fill="#0A106C"/><path d="M410.792 549.093a14.833 14.833 0 1 1-28.494-8.253 14.833 14.833 0 0 1 28.494 8.253Z" fill="#0A106C"/><path d="M392.787 583.82c8.777-1.623 14.576-10.054 12.952-18.831-1.623-8.776-10.054-14.575-18.831-12.951-8.776 1.623-14.575 10.054-12.951 18.83 1.623 8.777 10.054 14.576 18.83 12.952Z" fill="#0A106C"/><path d="M399.982 595.706a17.468 17.468 0 0 1-14.852 12.501 17.475 17.475 0 0 1-17.232-8.938 17.467 17.467 0 0 1 1.663-19.341 17.471 17.471 0 0 1 18.506-5.864 17.454 17.454 0 0 1 11.915 21.642Z" fill="#0A106C"/><path d="M394.632 619.03a18.702 18.702 0 0 1-26.575 11.293 18.698 18.698 0 0 1-7.751-7.575 18.7 18.7 0 0 1 1.758-20.671 18.696 18.696 0 0 1 19.755-6.334 18.698 18.698 0 0 1 11.262 8.972 18.687 18.687 0 0 1 2.208 7.002 18.69 18.69 0 0 1-.657 7.313ZM478.279 394.555a5.61 5.61 0 1 1-10.79-3.078 5.61 5.61 0 0 1 10.79 3.078ZM472.929 417.861a6.899 6.899 0 0 1-9.808 4.224 6.91 6.91 0 0 1-3.702-6.725 6.899 6.899 0 0 1 4.804-5.988 6.907 6.907 0 0 1 8.119 3.256 6.898 6.898 0 0 1 .587 5.233ZM467.505 441.167a8.212 8.212 0 1 1-5.611-10.175 8.23 8.23 0 0 1 5.611 10.175ZM462.118 464.492a9.534 9.534 0 0 1-8.109 6.823 9.535 9.535 0 0 1-9.408-4.88 9.54 9.54 0 0 1 5.471-13.694 9.539 9.539 0 0 1 5.537-.07 9.52 9.52 0 0 1 6.509 11.821ZM446.313 495.636c6.002 0 10.867-4.866 10.867-10.868 0-6.002-4.865-10.867-10.867-10.867-6.002 0-10.868 4.865-10.868 10.867 0 6.002 4.866 10.868 10.868 10.868Z" fill="#0A106C"/><path d="M451.345 511.104a12.178 12.178 0 1 1-23.403-6.745 12.178 12.178 0 0 1 23.403 6.745Z" fill="#0A106C"/><path d="M433.438 544.133c7.455-.232 13.31-6.463 13.079-13.918-.232-7.455-6.463-13.311-13.918-13.079-7.455.232-13.311 6.463-13.079 13.918.232 7.455 6.463 13.31 13.918 13.079Z" fill="#0A106C"/><path d="M440.571 557.754a14.81 14.81 0 0 1-21.057 8.985 14.813 14.813 0 0 1 10.956-27.372 14.83 14.83 0 0 1 5.14 2.665 14.823 14.823 0 0 1 4.961 15.722Z" fill="#0A106C"/><path d="M435.184 581.041a16.146 16.146 0 0 1-22.944 9.811 16.145 16.145 0 0 1-8.637-15.717 16.142 16.142 0 0 1 20.583-14.108 16.133 16.133 0 0 1 9.653 7.724 16.127 16.127 0 0 1 1.345 12.29Z" fill="#0A106C"/><path d="M429.737 604.584c2.803-9.232-2.409-18.989-11.641-21.792-9.232-2.803-18.989 2.409-21.792 11.641-2.804 9.232 2.408 18.989 11.641 21.792 9.232 2.803 18.989-2.408 21.792-11.641Z" fill="#0A106C"/><path d="M424.428 627.672a18.795 18.795 0 0 1-26.709 11.438 18.8 18.8 0 0 1-6.024-28.424 18.797 18.797 0 0 1 19.902-6.32 18.818 18.818 0 0 1 12.831 23.306ZM508.057 403.197a5.61 5.61 0 1 1-9.735-5.098 5.612 5.612 0 0 1 9.735 5.098ZM502.67 426.503a6.903 6.903 0 1 1-4.695-8.548 6.867 6.867 0 0 1 4.123 3.299 6.877 6.877 0 0 1 .572 5.249ZM497.246 449.809a8.216 8.216 0 0 1-6.978 5.875 8.215 8.215 0 0 1-8.1-4.195 8.21 8.21 0 0 1 9.466-11.855 8.196 8.196 0 0 1 2.848 1.473 8.227 8.227 0 0 1 3.038 5.507 8.23 8.23 0 0 1-.274 3.195ZM491.896 473.134a9.54 9.54 0 0 1-17.522 1.928 9.543 9.543 0 0 1 5.493-13.689 9.537 9.537 0 0 1 5.539-.061 9.538 9.538 0 0 1 5.699 4.564 9.519 9.519 0 0 1 .791 7.258ZM486.509 496.44a10.863 10.863 0 0 1-9.249 7.767 10.866 10.866 0 0 1-12.011-11.752 10.861 10.861 0 0 1 7.562-9.417 10.877 10.877 0 0 1 6.31-.066 10.847 10.847 0 0 1 6.488 5.201 10.86 10.86 0 0 1 .9 8.267ZM481.141 519.746a12.199 12.199 0 0 1-10.36 8.739 12.202 12.202 0 0 1-12.037-6.231 12.202 12.202 0 0 1 1.154-13.505 12.202 12.202 0 0 1 12.919-4.098 12.199 12.199 0 0 1 8.324 15.095Z" fill="#0A106C"/><path d="M474.292 546.361c3.889-6.365 1.883-14.677-4.481-18.566-6.364-3.889-14.676-1.883-18.566 4.481-3.889 6.364-1.883 14.676 4.481 18.566 6.365 3.889 14.677 1.883 18.566-4.481Z" fill="#0A106C"/><path d="M470.367 566.377a14.828 14.828 0 0 1-12.613 10.604 14.839 14.839 0 0 1-14.625-7.591 14.83 14.83 0 0 1 8.51-21.291 14.827 14.827 0 0 1 13.75 2.556 14.837 14.837 0 0 1 4.978 15.722Z" fill="#0A106C"/><path d="M464.98 589.683a16.16 16.16 0 0 1-22.964 9.852 16.167 16.167 0 0 1-8.66-15.734 16.159 16.159 0 0 1 30.258-6.406 16.163 16.163 0 0 1 1.366 12.288Z" fill="#0A106C"/><path d="M459.593 612.989a17.47 17.47 0 1 1-33.599-9.586 17.47 17.47 0 0 1 33.599 9.586Z" fill="#0A106C"/><path d="M445.359 647.446c9.06-5.07 12.295-16.524 7.225-25.584-5.069-9.06-16.524-12.295-25.584-7.225-9.06 5.069-12.294 16.524-7.225 25.584 5.07 9.06 16.524 12.295 25.584 7.225ZM537.835 411.857a5.612 5.612 0 1 1-9.735-5.098 5.608 5.608 0 0 1 5.994-1.804 5.612 5.612 0 0 1 3.741 6.902ZM532.466 435.144a6.898 6.898 0 0 1-9.804 4.212 6.905 6.905 0 0 1-3.703-6.716 6.9 6.9 0 0 1 4.787-5.991 6.907 6.907 0 0 1 6.399 1.186 6.905 6.905 0 0 1 2.321 7.309ZM527.173 458.45a8.208 8.208 0 0 1-15.077 1.68 8.21 8.21 0 0 1 9.466-11.855 8.245 8.245 0 0 1 5.611 10.175ZM521.693 481.775a9.543 9.543 0 0 1-8.11 6.823 9.535 9.535 0 0 1-9.408-4.88 9.538 9.538 0 1 1 17.837-5.653 9.527 9.527 0 0 1-.319 3.71ZM505.868 512.919c6.002 0 10.868-4.866 10.868-10.868 0-6.002-4.866-10.867-10.868-10.867-6.002 0-10.867 4.865-10.867 10.867 0 6.002 4.865 10.868 10.867 10.868Z" fill="#0A106C"/><path d="M510.919 528.387a12.174 12.174 0 0 1-10.355 8.705 12.182 12.182 0 0 1-13.47-13.149 12.178 12.178 0 0 1 22.801-4.824 12.187 12.187 0 0 1 1.024 9.268Z" fill="#0A106C"/><path d="M492.551 561.439c7.458 0 13.504-6.047 13.504-13.505 0-7.459-6.046-13.505-13.504-13.505-7.459 0-13.505 6.046-13.505 13.505 0 7.458 6.046 13.505 13.505 13.505Z" fill="#0A106C"/><path d="M500.145 575.018a14.84 14.84 0 0 1-12.613 10.604 14.835 14.835 0 0 1-16.409-16.014 14.828 14.828 0 0 1 10.294-12.867 14.835 14.835 0 0 1 13.75 2.556 14.833 14.833 0 0 1 4.978 15.721Z" fill="#0A106C"/><path d="M494.758 598.324a16.162 16.162 0 1 1-31.049-8.989 16.162 16.162 0 0 1 31.049 8.989Z" fill="#0A106C"/><path d="M489.371 621.63a17.48 17.48 0 0 1-5.529 8.504 17.479 17.479 0 0 1-9.322 3.998 17.477 17.477 0 0 1-19.335-18.861 17.468 17.468 0 0 1 12.129-15.157 17.47 17.47 0 0 1 10.142-.125 17.473 17.473 0 0 1 6.055 3.134 17.466 17.466 0 0 1 6.449 11.715 17.451 17.451 0 0 1-.589 6.792Z" fill="#0A106C"/><path d="M482.019 649.46c5.355-8.894 2.486-20.446-6.409-25.801-8.894-5.354-20.446-2.485-25.8 6.409-5.355 8.895-2.486 20.446 6.409 25.801 8.894 5.355 20.445 2.485 25.8-6.409ZM567.631 420.48a5.61 5.61 0 1 1-9.735-5.098 5.612 5.612 0 0 1 9.735 5.098ZM562.245 443.786a6.907 6.907 0 0 1-5.871 4.938 6.909 6.909 0 0 1-6.808-3.538 6.902 6.902 0 1 1 12.679-1.4ZM556.858 467.092a8.216 8.216 0 0 1-6.978 5.875 8.209 8.209 0 0 1-9.091-8.857 8.214 8.214 0 0 1 10.458-7.193 8.23 8.23 0 0 1 5.611 10.175ZM551.489 490.417a9.543 9.543 0 0 1-8.103 6.839 9.541 9.541 0 0 1-8.514-15.438 9.54 9.54 0 0 1 10.108-3.204 9.52 9.52 0 0 1 6.509 11.803ZM545.741 514.771c2.232-5.571-.474-11.897-6.045-14.13-5.571-2.233-11.897.474-14.13 6.045-2.233 5.571.473 11.897 6.044 14.13 5.572 2.233 11.898-.473 14.131-6.045ZM540.697 537.029a12.176 12.176 0 1 1-8.305-15.095 12.197 12.197 0 0 1 8.305 15.095Z" fill="#0A106C"/><path d="M535.793 557.899c.72-7.424-4.714-14.026-12.138-14.746-7.423-.72-14.025 4.715-14.745 12.138-.72 7.424 4.714 14.026 12.138 14.746 7.423.72 14.025-4.714 14.745-12.138Z" fill="#0A106C"/><path d="M522.748 592.609c7.196-3.915 9.855-12.923 5.94-20.118-3.915-7.196-12.922-9.856-20.118-5.941-7.196 3.916-9.855 12.923-5.94 20.119 3.915 7.195 12.922 9.855 20.118 5.94Z" fill="#0A106C"/><path d="M516.935 616.503c7.779-4.355 10.555-14.192 6.201-21.971-4.355-7.779-14.191-10.555-21.971-6.2-7.779 4.355-10.555 14.191-6.2 21.97 4.355 7.779 14.191 10.555 21.97 6.201Z" fill="#0A106C"/><path d="M519.149 630.272a17.473 17.473 0 0 1-14.851 12.501 17.471 17.471 0 0 1-15.569-28.279 17.458 17.458 0 0 1 8.363-5.738 17.461 17.461 0 0 1 10.142-.125 17.439 17.439 0 0 1 10.446 8.349 17.444 17.444 0 0 1 1.469 13.292Z" fill="#0A106C"/><path d="M507.012 663.337c8.309-6.225 9.998-18.007 3.773-26.316-6.225-8.308-18.006-9.998-26.315-3.773-8.309 6.225-9.998 18.007-3.774 26.316 6.225 8.308 18.007 9.998 26.316 3.773ZM597.41 429.121a5.608 5.608 0 0 1-4.784 4.038 5.615 5.615 0 0 1-5.546-2.904 5.61 5.61 0 0 1 3.317-8.047 5.612 5.612 0 0 1 7.013 6.913ZM592.023 452.428a6.909 6.909 0 0 1-5.872 4.937 6.899 6.899 0 0 1-6.807-3.537 6.903 6.903 0 0 1 7.984-9.948 6.884 6.884 0 0 1 4.695 8.548ZM586.635 475.734a8.212 8.212 0 1 1-15.775-4.572 8.212 8.212 0 0 1 15.775 4.572ZM581.248 499.04a9.54 9.54 0 1 1-18.331-5.293 9.54 9.54 0 0 1 18.331 5.293ZM575.806 522.364a10.866 10.866 0 1 1-7.482-13.467 10.855 10.855 0 0 1 7.843 9.228 10.84 10.84 0 0 1-.361 4.239ZM570.474 545.67a12.182 12.182 0 0 1-17.304 7.409 12.18 12.18 0 0 1-6.521-11.853 12.173 12.173 0 0 1 8.453-10.562 12.18 12.18 0 0 1 7.067-.088 12.194 12.194 0 0 1 8.305 15.094Z" fill="#0A106C"/><path d="M565.087 568.977a13.503 13.503 0 0 1-19.191 8.234 13.505 13.505 0 1 1 19.191-8.234Z" fill="#0A106C"/><path d="M559.72 592.301a14.835 14.835 0 0 1-27.239 3.013 14.828 14.828 0 0 1 8.51-21.29 14.827 14.827 0 0 1 13.751 2.556 14.825 14.825 0 0 1 5.477 9.952 14.851 14.851 0 0 1-.499 5.769Z" fill="#0A106C"/><path d="M554.333 615.607a16.162 16.162 0 1 1-11.017-20.014 16.179 16.179 0 0 1 11.017 20.014Z" fill="#0A106C"/><path d="M548.945 638.913a17.487 17.487 0 0 1-24.851 10.678 17.49 17.49 0 0 1 12.936-32.319 17.468 17.468 0 0 1 11.915 21.641Z" fill="#0A106C"/><path d="M543.558 662.219a18.791 18.791 0 0 1-15.983 13.449 18.792 18.792 0 0 1-18.541-9.622 18.797 18.797 0 0 1 21.712-27.114 18.815 18.815 0 0 1 12.812 23.287ZM627.187 437.744a5.611 5.611 0 1 1-10.802-3.042 5.611 5.611 0 0 1 10.802 3.042ZM621.8 461.069a6.88 6.88 0 0 1-5.859 4.908 6.889 6.889 0 0 1-6.78-3.529 6.879 6.879 0 0 1 .659-7.615 6.89 6.89 0 0 1 7.285-2.312 6.886 6.886 0 0 1 4.695 8.548ZM616.413 484.375a8.211 8.211 0 1 1-5.611-10.175 8.196 8.196 0 0 1 5.891 6.979 8.197 8.197 0 0 1-.28 3.196ZM611.045 507.681a9.536 9.536 0 0 1-8.103 6.839 9.538 9.538 0 0 1-8.514-15.437 9.537 9.537 0 0 1 10.108-3.204 9.56 9.56 0 0 1 6.509 11.802ZM605.733 531.006a10.871 10.871 0 0 1-9.215 7.787 10.868 10.868 0 1 1 1.733-21.254 10.84 10.84 0 0 1 7.843 9.227 10.845 10.845 0 0 1-.361 4.24ZM600.271 554.312a12.182 12.182 0 0 1-3.857 5.923 12.18 12.18 0 0 1-19.967-10.367 12.176 12.176 0 0 1 15.52-10.651 12.195 12.195 0 0 1 8.304 15.095Z" fill="#0A106C"/><path d="M582.665 587.343c7.447-.428 13.136-6.811 12.708-14.258-.428-7.446-6.811-13.135-14.258-12.707-7.446.428-13.135 6.811-12.707 14.258.428 7.446 6.811 13.135 14.257 12.707Z" fill="#0A106C"/><path d="M589.497 600.924a14.83 14.83 0 0 1-21.074 9.048 14.83 14.83 0 0 1-4.758-22.435 14.838 14.838 0 0 1 15.713-4.981 14.833 14.833 0 0 1 10.119 18.368Z" fill="#0A106C"/><path d="M576.463 633.811c7.789-4.337 10.588-14.167 6.251-21.956-4.337-7.789-14.168-10.588-21.957-6.25-7.789 4.337-10.587 14.167-6.25 21.956s14.167 10.587 21.956 6.25Z" fill="#0A106C"/><path d="M578.724 647.536a17.475 17.475 0 0 1-14.852 12.502 17.47 17.47 0 0 1-15.569-28.279 17.474 17.474 0 0 1 18.506-5.864 17.474 17.474 0 0 1 11.915 21.641Z" fill="#0A106C"/><path d="M564.163 682.194c9.149-4.907 12.587-16.302 7.679-25.451-4.907-9.149-16.302-12.587-25.451-7.679-9.149 4.907-12.587 16.302-7.679 25.451 4.907 9.149 16.302 12.587 25.451 7.679ZM656.984 446.386a5.61 5.61 0 0 1-10.331 1.156 5.611 5.611 0 1 1 10.331-1.156ZM651.597 469.711a6.902 6.902 0 1 1-13.26-3.837 6.902 6.902 0 0 1 13.26 3.837ZM646.21 493.017a8.208 8.208 0 0 1-6.978 5.875 8.21 8.21 0 0 1-9.091-8.857 8.21 8.21 0 1 1 16.069 2.982ZM640.823 516.323a9.535 9.535 0 0 1-3.021 4.641 9.532 9.532 0 0 1-10.533 1.169 9.543 9.543 0 0 1-5.112-9.284 9.541 9.541 0 0 1 6.619-8.277 9.539 9.539 0 0 1 12.047 11.751ZM635.436 539.648a10.872 10.872 0 0 1-15.414 6.652 10.868 10.868 0 0 1 7.933-20.12 10.835 10.835 0 0 1 7.849 9.226 10.837 10.837 0 0 1-.368 4.242ZM630.049 562.954a12.176 12.176 0 1 1-8.305-15.095 12.194 12.194 0 0 1 8.305 15.095Z" fill="#0A106C"/><path d="M618.19 594.297c6.546-3.575 8.954-11.78 5.379-18.326-3.574-6.546-11.779-8.954-18.325-5.379-6.546 3.575-8.954 11.779-5.379 18.325 3.574 6.546 11.779 8.954 18.325 5.38Z" fill="#0A106C"/><path d="M619.275 609.566a14.83 14.83 0 0 1-12.613 10.616 14.835 14.835 0 0 1-16.412-16.024 14.832 14.832 0 1 1 29.025 5.408Z" fill="#0A106C"/><path d="M601.276 644.324c8.777-1.624 14.575-10.054 12.952-18.831-1.623-8.776-10.054-14.575-18.831-12.952-8.776 1.624-14.575 10.055-12.952 18.831 1.624 8.777 10.055 14.575 18.831 12.952Z" fill="#0A106C"/><path d="M608.501 656.197a17.468 17.468 0 0 1-34.18-6.38 17.473 17.473 0 0 1 32.713-6.92 17.48 17.48 0 0 1 1.467 13.3Z" fill="#0A106C"/><path d="M600.236 685.351c6.131-8.378 4.31-20.14-4.067-26.272-8.378-6.131-20.141-4.31-26.272 4.067-6.132 8.378-4.311 20.141 4.067 26.272 8.378 6.132 20.14 4.311 26.272-4.067ZM686.762 455.027a5.608 5.608 0 0 1-4.784 4.038 5.615 5.615 0 0 1-5.546-2.904 5.61 5.61 0 0 1 3.317-8.047 5.612 5.612 0 0 1 7.013 6.913ZM681.375 478.352a6.907 6.907 0 0 1-5.872 4.938 6.899 6.899 0 0 1-6.807-3.538 6.9 6.9 0 0 1 3.975-9.905 6.905 6.905 0 0 1 8.124 3.26 6.9 6.9 0 0 1 .58 5.245ZM675.988 501.64a8.213 8.213 0 0 1-15.077 1.679 8.217 8.217 0 0 1 4.7-11.79 8.212 8.212 0 0 1 10.377 10.111ZM670.6 524.964a9.534 9.534 0 0 1-8.116 6.819 9.54 9.54 0 1 1 8.116-6.819ZM654.796 556.126c6.002 0 10.867-4.865 10.867-10.867 0-6.002-4.865-10.867-10.867-10.867-6.002 0-10.868 4.865-10.868 10.867 0 6.002 4.866 10.867 10.868 10.867ZM659.827 571.595a12.183 12.183 0 0 1-10.356 8.705 12.177 12.177 0 1 1 2.051-23.8 12.2 12.2 0 0 1 8.305 15.095Z" fill="#0A106C"/><path d="M654.365 594.901a13.505 13.505 0 1 1-9.202-16.74 13.472 13.472 0 0 1 8.076 6.46 13.48 13.48 0 0 1 1.126 10.28Z" fill="#0A106C"/><path d="M649.053 618.207a14.816 14.816 0 0 1-27.205 2.999 14.81 14.81 0 0 1 1.416-16.396 14.812 14.812 0 0 1 20.823-2.307 14.83 14.83 0 0 1 5.467 9.942 14.817 14.817 0 0 1-.501 5.762Z" fill="#0A106C"/><path d="M643.685 641.532a16.162 16.162 0 1 1-11.017-20.014 16.15 16.15 0 0 1 9.658 7.723 16.143 16.143 0 0 1 1.359 12.291Z" fill="#0A106C"/><path d="M638.799 662.597c1.432-9.542-5.141-18.438-14.683-19.871-9.541-1.433-18.438 5.14-19.87 14.682-1.433 9.542 5.14 18.438 14.682 19.871 9.541 1.433 18.438-5.141 19.871-14.682Z" fill="#0A106C"/><path d="M632.911 688.144a18.797 18.797 0 1 1-12.813-23.287 18.698 18.698 0 0 1 11.262 8.972 18.71 18.71 0 0 1 1.551 14.315ZM716.54 463.669a5.612 5.612 0 1 1-9.736-5.098 5.61 5.61 0 0 1 9.273.884 5.616 5.616 0 0 1 .463 4.214ZM711.153 486.994a6.882 6.882 0 0 1-12.639 1.378 6.884 6.884 0 0 1 10.334-8.688 6.9 6.9 0 0 1 2.542 4.628 6.905 6.905 0 0 1-.237 2.682ZM705.765 510.3a8.208 8.208 0 0 1-6.977 5.875 8.208 8.208 0 0 1-7.326-13.284 8.206 8.206 0 0 1 8.692-2.767 8.195 8.195 0 0 1 5.611 10.176ZM700.379 533.606a9.54 9.54 0 0 1-17.522 1.928 9.54 9.54 0 0 1 11.032-13.749 9.519 9.519 0 0 1 6.49 11.821ZM695.011 556.912a10.868 10.868 0 1 1-20.896-5.989 10.868 10.868 0 0 1 20.896 5.989Z" fill="#0A106C"/><path d="M689.623 580.199a12.19 12.19 0 0 1-10.367 8.735 12.196 12.196 0 1 1 10.367-8.735Z" fill="#0A106C"/><path d="M682.529 607.202c4.111-6.223 2.399-14.6-3.824-18.711-6.223-4.112-14.601-2.4-18.712 3.824-4.111 6.223-2.399 14.6 3.824 18.711 6.223 4.112 14.601 2.4 18.712-3.824Z" fill="#0A106C"/><path d="M678.85 626.849a14.837 14.837 0 0 1-21.074 9.048 14.84 14.84 0 0 1-7.954-14.437 14.831 14.831 0 0 1 18.908-12.979 14.838 14.838 0 0 1 8.863 7.089 14.838 14.838 0 0 1 1.257 11.279Z" fill="#0A106C"/><path d="M673.463 650.174a16.166 16.166 0 0 1-13.738 11.567 16.16 16.16 0 1 1 2.721-31.581 16.135 16.135 0 0 1 11.561 13.733 16.155 16.155 0 0 1-.544 6.281Z" fill="#0A106C"/><path d="M668.076 673.48a17.494 17.494 0 0 1-14.898 12.499 17.486 17.486 0 0 1-17.24-8.998 17.493 17.493 0 0 1 10.136-25.083 17.486 17.486 0 0 1 20.555 8.306 17.494 17.494 0 0 1 1.447 13.276Z" fill="#0A106C"/><path d="M653.749 708.028c9.072-5.049 12.333-16.496 7.283-25.568-5.049-9.071-16.496-12.332-25.567-7.283-9.072 5.049-12.332 16.496-7.283 25.568 5.049 9.071 16.496 12.332 25.567 7.283ZM746.336 472.311a5.61 5.61 0 0 1-4.784 4.037 5.607 5.607 0 0 1-6.198-6.11 5.61 5.61 0 1 1 10.982 2.073ZM740.949 495.636a6.902 6.902 0 1 1-4.714-8.549 6.922 6.922 0 0 1 4.714 8.549ZM735.562 518.942a8.213 8.213 0 0 1-15.077 1.679 8.217 8.217 0 0 1 4.7-11.79 8.215 8.215 0 0 1 9.681 3.86 8.201 8.201 0 0 1 .696 6.251ZM730.176 542.248a9.544 9.544 0 0 1-8.11 6.823 9.535 9.535 0 0 1-5.444-1.014 9.535 9.535 0 0 1-5.112-9.284 9.538 9.538 0 0 1 12.156-8.347 9.56 9.56 0 0 1 6.51 11.822ZM724.789 565.554a10.85 10.85 0 0 1-21.238-3.88 10.851 10.851 0 0 1 13.756-9.569 10.879 10.879 0 0 1 6.531 5.172 10.863 10.863 0 0 1 .951 8.277ZM719.401 588.878a12.174 12.174 0 0 1-10.356 8.705 12.182 12.182 0 0 1-13.469-13.149 12.178 12.178 0 0 1 15.52-10.65 12.194 12.194 0 0 1 8.305 15.094Z" fill="#0A106C"/><path d="M701.034 621.929c7.458 0 13.504-6.046 13.504-13.504 0-7.459-6.046-13.505-13.504-13.505-7.459 0-13.505 6.046-13.505 13.505 0 7.458 6.046 13.504 13.505 13.504Z" fill="#0A106C"/><path d="M708.609 635.49a14.84 14.84 0 0 1-12.613 10.616 14.825 14.825 0 0 1-14.632-7.595 14.835 14.835 0 0 1 17.144-21.389 14.835 14.835 0 0 1 10.101 18.368Z" fill="#0A106C"/><path d="M703.241 658.759a16.146 16.146 0 0 1-22.937 9.821 16.146 16.146 0 0 1-5.171-24.409 16.148 16.148 0 0 1 17.09-5.426 16.133 16.133 0 0 1 9.659 7.723 16.143 16.143 0 0 1 1.359 12.291Z" fill="#0A106C"/><path d="M697.854 682.121a17.47 17.47 0 1 1-11.915-21.66 17.492 17.492 0 0 1 11.915 21.66Z" fill="#0A106C"/><path d="M692.466 705.521a18.706 18.706 0 0 1-34.326 3.718 18.703 18.703 0 0 1 1.758-20.672 18.715 18.715 0 0 1 8.919-6.157 18.713 18.713 0 0 1 17.366 3.182 18.704 18.704 0 0 1 6.283 19.929ZM776.114 480.952a5.612 5.612 0 1 1-9.736-5.098 5.61 5.61 0 0 1 9.273.884 5.612 5.612 0 0 1 .463 4.214ZM770.727 504.258a6.9 6.9 0 0 1-12.681 1.423 6.9 6.9 0 0 1 3.975-9.912 6.903 6.903 0 0 1 8.706 8.489ZM765.34 527.583a8.211 8.211 0 1 1-15.774-4.57 8.211 8.211 0 0 1 15.774 4.57ZM759.953 550.889a9.54 9.54 0 1 1-18.304-5.38 9.54 9.54 0 0 1 18.304 5.38ZM754.23 575.245c2.233-5.571-.473-11.897-6.044-14.13-5.571-2.233-11.898.473-14.13 6.045-2.233 5.571.473 11.897 6.044 14.13 5.571 2.233 11.898-.474 14.13-6.045ZM749.179 597.52a12.169 12.169 0 0 1-3.858 5.922 12.17 12.17 0 0 1-18.503-3.451 12.172 12.172 0 0 1 1.161-13.478 12.167 12.167 0 0 1 5.828-3.999 12.171 12.171 0 0 1 7.067-.089 12.197 12.197 0 0 1 8.305 15.095Z" fill="#0A106C"/><path d="M743.793 620.826a13.502 13.502 0 0 1-11.523 9.572 13.499 13.499 0 0 1-13.269-6.952 13.5 13.5 0 0 1 7.764-19.35 13.51 13.51 0 0 1 7.825-.104 13.484 13.484 0 0 1 9.203 16.834Z" fill="#0A106C"/><path d="M738.405 644.132a14.812 14.812 0 0 1-27.205 2.999 14.818 14.818 0 0 1 1.416-16.396 14.816 14.816 0 0 1 20.823-2.307 14.802 14.802 0 0 1 5.467 9.942 14.798 14.798 0 0 1-.501 5.762Z" fill="#0A106C"/><path d="M727.65 675.555c6.93-5.608 8.002-15.773 2.394-22.703-5.608-6.93-15.772-8.002-22.703-2.394-6.93 5.608-8.002 15.772-2.394 22.702 5.608 6.931 15.773 8.003 22.703 2.395Z" fill="#0A106C"/><path d="M727.631 690.763a17.471 17.471 0 0 1-24.834 10.615 17.466 17.466 0 0 1-9.344-17.013 17.478 17.478 0 0 1 12.141-15.145 17.466 17.466 0 0 1 10.141-.117 17.489 17.489 0 0 1 11.896 21.66Z" fill="#0A106C"/><path d="M713.078 725.41c9.148-4.908 12.587-16.303 7.679-25.451-4.908-9.149-16.303-12.587-25.451-7.68-9.149 4.908-12.587 16.303-7.68 25.452 4.908 9.148 16.303 12.587 25.452 7.679Z" fill="#0A106C"/><path d="M470.853 626.456c20.276-5.275 63.353-8.772 135.104 20.687l.262-31.386-130.334-13.767-5.032 24.466Z" fill="#A9A9C4"/><path d="m592.882 615.121-103.119-10.924a.99.99 0 0 1-.852-.707.992.992 0 0 1 .327-1.058 1.006 1.006 0 0 1 .731-.217l103.213 10.923a.999.999 0 0 1 .675.356.986.986 0 0 1 .223.729 1.023 1.023 0 0 1-.4.714 1.013 1.013 0 0 1-.798.184Z" fill="#7B7B8F"/><path d="M474.126 441.13s.318-11.036 3.909-17.134c3.592-6.097 12.682-12.064 12.682-12.064l7.65 23.568-24.241 5.63Z" fill="#EEB47F"/><path d="M492.176 417.824a35.787 35.787 0 0 0-8.959 8.136c-3.236 9.914 12.981 3.741 12.981 3.741l-4.022-11.877Z" fill="#FE656D"/><path d="M480.934 404.132s55.048 136.133 59.855 137.629c4.807 1.496 52.373-19.659 54.244-24.092 1.87-4.433-42.086-131.681-43.021-133.776-.935-2.095-45.415 8.492-71.078 20.239Z" fill="#fff"/><path d="m586.129 485.479-23.418 4.227-35.932 23.961c7.145 16.161 12.645 27.664 14.01 28.057 1.366.392 5.256-.73 10.624-2.656 14.347-13.337 32.79-34.305 38.663-41.151-1.178-3.759-2.525-7.912-3.947-12.438ZM551.918 383.893c-.972-2.095-45.246 8.492-70.984 20.239 0 0 3.741 9.053 9.184 22.446 17.732-6.117 46.949-18.069 67.468-26.636-3.273-9.408-5.462-15.6-5.668-16.049Z" fill="#A9A9C4"/><path d="M397.231 342.219s-10.138 6.267-9.988 14.534c.149 8.268 23.643 57.985 26.336 60.117 2.694 2.132 16.516-.954 16.516-.954l-32.864-73.697Z" fill="#fff"/><path d="M417.731 417.618a74.995 74.995 0 0 0 12.364-1.702l-32.864-73.697a28.723 28.723 0 0 0-5.013 4.134l25.513 71.265Z" fill="#C0C0DE"/><path d="M736.665 216.094s19.752-6.21 25.308-1.871c5.555 4.34 24.765 61.482 24.671 65.074-.093 3.591-21.005 15.468-21.005 15.468l-28.974-78.671ZM748.094 251.445c-8.585-29.422-64.419-104.746-64.419-104.746C656.759 233.19 551.04 274.377 551.04 274.377l36.325 93.019s109.59-29.385 182.464 24.316c0 .056 3.442-54.019-21.735-140.267Z" fill="#fff"/><path d="M753.63 277.894s-8.043 53.421-34.772 49.661c-26.729-3.76-142.155 12.439-142.155 12.439l.262.841 10.362 26.561s104.185-27.926 176.946 20.575c-.617-18.461-10.643-110.077-10.643-110.077Z" fill="#C0C0DE"/><path d="M769.529 404.674a9.353 9.353 0 0 1-9.091-9.558c2.226-88.417-21.734-151.003-42.216-187.926-22.203-40.028-45.265-59.425-45.49-59.612a9.353 9.353 0 0 1 11.878-14.384c1.028.861 25.494 21.286 49.399 64.027 21.847 39.074 47.397 105.214 45.078 198.363a9.352 9.352 0 0 1-9.558 9.09Z" fill="#FF6B00"/><path d="M769.529 404.674a9.348 9.348 0 0 0 9.558-9.09 440.314 440.314 0 0 0-4.489-75.866c-2.058 3.161-4.358 5.274-6.902 5.611-4.302.43-8.492-2.581-12.139-6.696a419.006 419.006 0 0 1 4.882 76.558 9.352 9.352 0 0 0 9.09 9.483Z" fill="#3D0B34"/><path d="M701.126 160.84a1.398 1.398 0 0 1-.991-.487A134.842 134.842 0 0 0 688.5 147.84a1.364 1.364 0 0 1 1.871-1.983 144.265 144.265 0 0 1 11.877 12.794 1.29 1.29 0 0 1-.168 1.871 1.276 1.276 0 0 1-.954.318ZM763.076 291.324a1.308 1.308 0 0 1-1.253-1.048 320.758 320.758 0 0 0-49.138-113.444 1.33 1.33 0 0 1 1.333-2.067c.347.064.655.262.856.552a323.854 323.854 0 0 1 49.549 114.38 1.344 1.344 0 0 1-1.011 1.589l-.336.038Z" fill="#fff"/><path d="M428.767 420.873s-34.267-73.061-34.098-79.757a21.538 21.538 0 0 1 7.594-14.758c2.618-2.002 142.773-59.35 148.44-58.695 5.668.654 42.815 102.146 42.778 104.203-.038 2.058-162.787 54.73-164.714 49.007Z" fill="#FF6B00"/><path d="M415.374 391.749c7.145 15.787 13.393 29.124 13.393 29.124 1.87 5.723 164.601-46.949 164.713-49.007 0-.748-4.994-14.963-11.615-32.583 0 0-103.868 16.273-166.491 52.466ZM437.521 375.102a4.322 4.322 0 0 1-5.611-2.45l-10.7-27.552a4.31 4.31 0 0 1 1.022-4.705 4.297 4.297 0 0 1 1.429-.907 4.306 4.306 0 0 1 5.611 2.451l10.699 27.552a4.288 4.288 0 0 1-.052 3.318 4.3 4.3 0 0 1-2.398 2.293ZM455.478 368.574a4.28 4.28 0 0 1-5.612-2.45l-10.605-27.552a4.292 4.292 0 0 1 .052-3.318 4.3 4.3 0 0 1 2.398-2.293 4.292 4.292 0 0 1 3.318.052 4.3 4.3 0 0 1 2.293 2.398l10.643 27.608a4.295 4.295 0 0 1-1.065 4.663 4.3 4.3 0 0 1-1.422.892ZM473.434 362.065a4.312 4.312 0 0 1-3.318-.052 4.319 4.319 0 0 1-1.388-.969 4.33 4.33 0 0 1-.906-1.429l-10.699-27.552a4.31 4.31 0 0 1 .052-3.318 4.304 4.304 0 0 1 2.398-2.294 4.31 4.31 0 0 1 4.705 1.022c.394.411.702.897.907 1.429l10.699 27.552a4.306 4.306 0 0 1-2.45 5.611Z" fill="#3D0B34"/><path d="M442.216 316.818a1.311 1.311 0 0 1-1.216-.86 1.335 1.335 0 0 1 .026-1.02 1.32 1.32 0 0 1 .741-.701c.374-.131 38.12-14.384 67.636-25.083a1.322 1.322 0 0 1 1.018.05 1.337 1.337 0 0 1 .761 1.268 1.325 1.325 0 0 1-.436.921c-.129.118-.28.209-.445.268-29.497 10.699-67.206 24.933-67.599 25.083a1.456 1.456 0 0 1-.486.074ZM526.406 285.806a1.306 1.306 0 0 1-1.235-.879 1.347 1.347 0 0 1 .823-1.702c8.623-3.03 14.422-4.938 17.209-5.612a1.334 1.334 0 0 1 .673 2.582c-2.712.729-8.436 2.618-17.003 5.611a1.023 1.023 0 0 1-.467 0Z" fill="#fff"/><path d="M369.885 561.083s96.086-60.21 100.369-72.088c4.284-11.877 1.066-42.609 3.872-47.865s39.074-17.676 51.363-29.366c12.289-11.691 29.479-25.906 32.565-25.832 3.086.075 13.785 5.5 16.254 9.689 2.469 4.19 1.702 14.964 1.702 14.964s12.233 5.462 13.094 9.614c.86 4.153-1.366 12.851-1.366 12.851s8.062 7.481 9.521 11.596c1.459 4.115-3.348 10.232-3.404 11.766-.056 1.533 9.52 11.578 1.421 26.336a94.709 94.709 0 0 1-33.874 34.23c-11.503 6.415-32.789 12.064-36.455 14.552-3.666 2.488-42.217 38.644-42.217 38.644l-112.845-9.091Z" fill="#EEB47F"/><path d="M572.999 475.827a.981.981 0 0 1-.438-.105.978.978 0 0 1-.347-.288 1.025 1.025 0 0 1 .205-1.403c4.733-3.516 11.747-12.812 11.822-12.906a1.008 1.008 0 0 1 1.403-.187.993.993 0 0 1 .187 1.384c-.281.393-7.258 9.615-12.214 13.318a.959.959 0 0 1-.618.187ZM573.055 446.105a.993.993 0 0 1-.692-.318.995.995 0 0 1-.215-1.081c.05-.12.123-.229.215-.322l5.817-5.611a1.008 1.008 0 0 1 1.356.1 1.009 1.009 0 0 1 .028 1.359l-5.817 5.611c-.19.171-.437.264-.692.262ZM485.648 559.175a1.023 1.023 0 0 1-.692-.318.989.989 0 0 1-.215-1.081 1 1 0 0 1 .215-.322l15.525-14.645a1.009 1.009 0 0 1 1.632.774c.006.251-.083.495-.248.685l-15.544 14.627a1.007 1.007 0 0 1-.673.28ZM508.337 537.796a1.032 1.032 0 0 1-.692-1.74l5.312-4.975a.967.967 0 0 1 .701-.299.967.967 0 0 1 .702.299.989.989 0 0 1 .215 1.081 1 1 0 0 1-.215.322l-5.312 4.994a1.03 1.03 0 0 1-.711.318Z" fill="#FE656D"/><path d="M568.735 246.545a1.969 1.969 0 0 1-1.422-.823 1.48 1.48 0 0 1 .106-1.827c.146-.165.327-.295.53-.38.505-.243 52.373-26.393 90.512-75.586a2.037 2.037 0 0 1 2.6-.393 1.514 1.514 0 0 1 .524 2.264c-38.607 49.81-91.186 76.296-91.653 76.539-.369.19-.787.262-1.197.206ZM726.621 389.954l-.43-.094c-48.501-18.555-113.874-12.158-114.529-12.102a1.667 1.667 0 0 1-1.696-.85 1.677 1.677 0 0 1 .202-1.886 1.67 1.67 0 0 1 1.176-.574c.673 0 66.813-6.528 116.063 12.289a1.701 1.701 0 0 1 .972 2.169 1.677 1.677 0 0 1-1.758 1.048ZM698.975 398.764c-.124.019-.25.019-.374 0-25.101-9.016-54.243-7.707-54.543-7.707a1.637 1.637 0 0 1-1.606-.95 1.645 1.645 0 0 1-.152-.639 1.67 1.67 0 0 1 .958-1.585 1.67 1.67 0 0 1 .632-.155c.299 0 30.096-1.347 55.834 7.875a1.666 1.666 0 0 1 1.01 2.151 1.652 1.652 0 0 1-1.759 1.01ZM382.38 337.936a1.706 1.706 0 0 1-1.366-1.01c-.785-1.87-7.575-18.274-1.122-24.784 5.929-6.004 71.938-28.599 79.439-31.162a1.685 1.685 0 0 1 1.085 3.18c-29.18 9.932-74.071 26.187-78.148 30.339-4.078 4.153 0 16.647 1.87 21.118a1.686 1.686 0 0 1-.879 2.188c-.278.114-.58.159-.879.131ZM389.881 533.887a1.673 1.673 0 0 1-1.216-.73 1.685 1.685 0 0 1 .467-2.319s5.967-3.984 14.347-9.633a1.672 1.672 0 0 1 2.572 1.05 1.672 1.672 0 0 1-.702 1.718 3166.508 3166.508 0 0 0-14.365 9.652 1.683 1.683 0 0 1-1.103.262ZM419.228 514.078a1.64 1.64 0 0 1-1.197-.729 1.685 1.685 0 0 1 .43-2.32c32.696-22.333 37.578-26.71 38.158-27.552.636-1.44 1.01-12.307 1.309-21.024.374-11.222.767-22.819 1.871-26.504.133-.424.427-.778.819-.987.391-.21.849-.259 1.276-.135a1.682 1.682 0 0 1 1.122 2.076c-.992 3.273-1.384 15.169-1.758 25.663-.431 12.962-.73 20.388-1.646 22.445-.431.935-1.329 2.899-39.28 28.805-.325.217-.717.31-1.104.262ZM606.817 494.307a1.702 1.702 0 0 1-.655-.224 1.672 1.672 0 0 1-.784-1.013 1.662 1.662 0 0 1 .167-1.269c.112-.187 11.092-19.771 2.058-33.669a1.671 1.671 0 0 1-.15-1.552c.243-.561 5.611-14.178-5.611-21.174a1.671 1.671 0 1 1 1.758-2.843c11.915 7.482 8.361 20.968 7.201 24.466 9.352 15.506-1.87 35.539-2.413 36.418a1.675 1.675 0 0 1-1.571.86ZM795.398 386.157a1.666 1.666 0 0 1-1.496-1.702c0-.505.767-51.457-7.594-81.085a1.672 1.672 0 0 1 1.159-2.058 1.668 1.668 0 0 1 2.058 1.16c8.51 30.096 7.725 81.534 7.725 82.039a1.654 1.654 0 0 1-.508 1.178 1.675 1.675 0 0 1-1.194.468h-.15ZM730.811 163.197a1.762 1.762 0 0 1-.658-.217 1.754 1.754 0 0 1-.521-.457 215.41 215.41 0 0 0-24.166-27.626 1.676 1.676 0 0 1-.535-1.159 1.66 1.66 0 0 1 1.6-1.733 1.66 1.66 0 0 1 1.198.441 217.313 217.313 0 0 1 24.615 28.057 1.681 1.681 0 0 1-.374 2.338 1.647 1.647 0 0 1-1.159.356ZM746.635 190.394a1.728 1.728 0 0 1-1.384-1.029 112.472 112.472 0 0 0-6.173-12.42 1.655 1.655 0 0 1-.167-1.27 1.66 1.66 0 0 1 .784-1.012 1.703 1.703 0 0 1 2.282.617 112.57 112.57 0 0 1 6.36 12.794 1.662 1.662 0 0 1 .015 1.285 1.644 1.644 0 0 1-.913.904c-.254.106-.53.151-.804.131ZM401.571 291.979a1.633 1.633 0 0 1-1.403-1.104 1.66 1.66 0 0 1 .062-1.276 1.667 1.667 0 0 1 .948-.856c.281-.094 26.748-9.353 36.1-12.289a1.684 1.684 0 0 1 2.095 1.122 1.66 1.66 0 0 1-1.104 2.076c-9.352 2.881-35.707 12.158-35.969 12.252a1.87 1.87 0 0 1-.729.075Z" fill="#fff"/><path d="m550.123 256.664-19.621-70.647-18.817 5.817-14.028-92.738 27.365-7.838 3.535 79.121 12.626 1.927 8.94 84.358ZM366.518 297.347c-5.817-2.544-90.793-59.444-90.793-59.444l17.639-20.407-86.753-87.463 134.674 75.249-21.248 24.429 46.481 67.636ZM737.601 526.667l64.55 96.067 11.952-16.46 76.521 76.857 14.346-49.417-94.44-71.359-11.952 20.575-60.977-56.263ZM691.699 613.98l34.978 79.401 8.006-22.37 57.928 99.565-61.482-128.258-9.633 17.208-29.797-45.546ZM413.467 626.55l-35.539 41.861 13.673 8.903-31.91 57.031 56.974-60.697-16.871-12.046 13.673-35.052ZM359.055 467.298l-111.723 49.025 28.431 26.86-103.474 59.2 158.709-46.35-32.191-39.186 60.248-49.549ZM755.146 455.14l76.277-80.505-15.992-21.193 108.262-69.207 29.516 36.717-83.647 40.964 13.524 22.595-127.94 70.629Z" fill="#FF6B00"/><path d="m135.714 111.096 16.49-75.955h21.987l-16.49 75.955h-21.987ZM174.191 111.096l16.49-75.955h21.987l-16.49 75.955h-21.987ZM79.932 447.271l4.667-21.5 6.224.001-4.668 21.499h-6.223ZM117.273 447.271l4.668-21.5 6.223.001-4.668 21.499h-6.223ZM92.379 447.271l4.667-21.5 6.224.001-4.668 21.499H92.38ZM129.72 447.271l4.667-21.5 6.224.001-4.668 21.499h-6.223ZM104.826 447.271l4.667-21.5 6.224.001-4.668 21.499h-6.223ZM142.167 447.271l4.668-21.5 6.223.001-4.668 21.499h-6.223Z" fill="#E1FF51"/></svg>