<svg version="1.1" id="Layer_1" xmlns="http://www.w3.org/2000/svg" x="0" y="0" viewBox="0 0 870 693" style="enable-background:new 0 0 870 693" xml:space="preserve"><style>.st0{fill:#fa8531}.st1{fill:#0a106c}.st3{fill:#ff8831}.st4{fill:#fff}.st5{fill:#c0c0de}.st6{fill:#a9a9c4}.st9{fill:#eeb47f}.st10{fill:#fe656d}.st11{fill:#ff6b00}.st12{fill:#3d0b34}</style><path class="st0" d="m71.9 346.6 60.2-277.4h80.3l-60.2 277.4H71.9zM573.7 219.6l20.9-107.2h27.9l-20.9 107.2h-27.9zM629.5 219.6l20.9-107.2h27.9l-20.9 107.2h-27.9z"/><path class="st1" d="M24.6 169.3S229.2 269.7 204.9 35.4c0 0 160.9 131.1 263.1 33.5 0 0 75.5 142.3 238.7 2.8 0 0-53.6 198.1 148.6 175.8 0 0-155.9 125.6-7.3 231.6 0 0-238.7-39.1-209.5 209.3 0 0-119.4-203.7-248.5-72.5 0 0-48.6-103.3-272.8-2.8 0 0 67.8-96.3 41.4-170.2-21.9-61.4-119.4-19.5-119.4-19.5S163.4 317 24.6 169.3z"/><path d="M12.5 159S213.9 257.9 190 27.2c0 0 158.3 129.1 259 33 0 0 74.3 140.1 235 2.7 0 0-52.7 195 146.3 173 0 0-153.4 123.6-7.2 228 0 0-235-38.4-206.2 206 0 0-117.5-200.5-244.6-71.4 0 0-48-101.6-268.6-2.7 0 0 66.7-94.8 40.8-167.5C122.8 367.8 26.9 409 26.9 409s122.3-104.4-14.4-250z" style="fill:#e1ff51"/><path class="st3" d="M673.4 208.1c.1-3.6-19.1-60.8-24.7-65.1-3.5-2.7-12.7-1.2-19 .3-3-6.2-6-12-8.9-17.2-23.9-42.7-48.4-63.2-49.4-64-1.9-1.3-4.3-1.9-6.6-1.6-2.3.3-4.4 1.5-5.9 3.3s-2.3 4.1-2.1 6.5c.1 2.3 1.1 4.6 2.8 6.2 0 0 3.1 2.6 8 7.7C540 155.8 459 194.1 441.3 201.8c-1.7-3.3-3.1-5.2-3.7-5.3-5.6-.7-145.9 56.7-148.4 58.7-2.2 1.8-4 4.1-5.3 6.6s-2.1 5.3-2.3 8.1c.1.9.2 1.7.5 2.6-3 2.3-8.1 7.2-8 13.1.1 8.3 23.7 58 26.4 60.1 1.3.6 2.7.9 4.2.7h4l.7-.1.9-.1.7-.1.6-.1h.6l.6-.1.9-.1h.1l2 4.3c.7 2.2 24.5-4.1 53.8-12.7.8 1.9 1.9 4.5 3.1 7.5-3 2.3-5.5 5.1-7.6 8.2-3.6 6.1-3.9 17.2-3.9 17.2-2.8 5.3.4 36-3.9 47.8-4.3 11.9-100.4 72.1-100.4 72.1l112.9 9.1s38.5-36.5 42.1-39c2.7-1.4 5.4-2.5 8.3-3.4.2.4.4.7.5 1.1.1.2.2.3.2.5.3.5.5 1.1.8 1.6l.2.4c.3.5.5 1 .8 1.6l.1.3c.6 1.2 1.1 2.3 1.6 3.2 0 .1.1.1.1.2l.6 1.1.2.4.4.7.2.4.3.6.2.3.3.4.2.2.3.3.1.1c.1.1.2.2.3.2H429.2l.8-.1h.2l1.1-.3h.1c.4-.1.9-.2 1.3-.4 13.7-4 47.4-19.5 48.9-23.2.4-1-1.6-8.6-4.9-19.6-.5-1.6-1-3.2-1.5-4.9 2.5-3.3 4.8-6.7 6.8-10.3 8.1-14.8-1.5-24.8-1.4-26.3 0-1.6 4.8-7.6 3.4-11.8-1.4-4.2-9.5-11.6-9.5-11.6s2.3-8.7 1.4-12.9c-.9-4.2-13.1-9.6-13.1-9.6s.8-10.8-1.7-15-13.1-9.6-16.3-9.7c-1.7.4-3.2 1.2-4.6 2.3-.3-.7-.5-1.4-.7-2 23.4-7.6 40.7-13.7 40.7-14.4-.5-1.9-1.1-3.7-1.8-5.5 1.5-.4 3.4-.8 5.7-1.2 27.3-5.4 104.4-16.1 163.1 20.4 0 3.2 0 6.4-.1 9.6-.1 2.5.9 4.9 2.6 6.7 1.7 1.8 4.1 2.8 6.5 2.9 2.5.1 4.9-.9 6.7-2.6s2.8-4.1 2.9-6.5c1-34.7-2.2-69.3-9.5-103.2 6.1-3.7 17-10.6 17.1-13.2z"/><path class="st3" d="m698.5 238.5-485.4-51.3c-2.4-.3-4.9 0-7.2.7s-4.5 1.8-6.4 3.4c-1.9 1.5-3.5 3.4-4.6 5.5-1.2 2.1-1.9 4.5-2.1 6.9l-28.9 273.5-1.9 17.4c-.5 4.9.9 9.8 4 13.6s7.6 6.2 12.4 6.8L356 533.6h-.3l-5 24.5.3-.1-7.7 37.6c-26.2 2.6-56.6 6.2-56.6 6.2h.4c-.6-.1-1.1.1-1.6.4-.5.3-.7.9-.8 1.4l-.5 4.9c-.1.6.1 1.1.5 1.6.3.4.9.7 1.4.8l126.2 13.3 126.2 13.3c.6.1 1.1-.1 1.6-.5.4-.3.7-.9.8-1.4l.5-4.9c.1-.6-.1-1.1-.5-1.6-.3-.4-.9-.7-1.4-.8L413.3 615l126.5 13.4s-28.9-9.8-54-17.7l.5-63.2 177.5 18.7c2.4.3 4.9 0 7.2-.7s4.5-1.8 6.4-3.4c1.9-1.5 3.5-3.4 4.6-5.5 1.2-2.1 1.9-4.5 2.1-6.9l1.9-17.4 29-273.5c.5-4.9-.9-9.7-4-13.6-3.2-3.8-7.6-6.2-12.5-6.7z"/><path class="st1" d="m682.7 228.8-485.4-51.3c-4.9-.5-9.8.9-13.6 4-3.8 3.1-6.2 7.6-6.8 12.4l-29 273.5 522.2 55.3L699 249.2c.3-2.4 0-4.9-.6-7.2-.7-2.3-1.8-4.5-3.4-6.4-1.5-1.9-3.4-3.5-5.6-4.6-1.9-1.2-4.3-1.9-6.7-2.2z"/><path class="st4" d="m148 467.5-1.9 17.4c-.5 4.9.9 9.8 4 13.6s7.6 6.2 12.4 6.8L648 556.6c4.9.5 9.7-.9 13.6-4 3.8-3.1 6.2-7.5 6.8-12.4l1.9-17.4L148 467.5zM457.6 597.1l-58.5-6.2-58.5-6.2c-27.7 2.4-69.5 7.5-69.5 7.5l126.5 13.4L524 618.9s-39.9-13.6-66.4-21.8z"/><path class="st5" d="m397.5 605.5-126.2-13.3c-.6-.1-1.1.1-1.6.4-.4.4-.7.9-.8 1.4l-.5 4.9c-.1.6.1 1.1.4 1.6s.9.7 1.4.8l126.2 13.3L522.6 628c.6.1 1.1-.1 1.6-.4.5-.3.7-.9.8-1.4l.5-4.9c.1-.6-.1-1.1-.4-1.6-.3-.5-.9-.7-1.4-.8l-126.2-13.4zM405.4 530.9l-65.2-6.9-12.9 62.7v.7c.1.2.1.4.3.6.1.2.3.3.5.5.2.1.4.2.6.2l69.7 7.4 69.7 7.4c.2 0 .5 0 .7-.1l.6-.3c.2-.2.3-.3.4-.5.1-.2.2-.4.2-.7l.5-64-65.1-7z"/><path class="st6" d="M406.3 522c-2-.2-3.9-1-5.4-2.3s-2.7-3-3.2-4.9c-.6-1.9-.5-4 .1-5.9s1.8-3.6 3.3-4.9 3.5-2 5.5-2.2 4 .2 5.8 1.2 3.2 2.4 4.1 4.2c.9 1.8 1.3 3.8 1.1 5.8a8.9 8.9 0 0 1-1.2 3.8c-.6 1.2-1.5 2.2-2.6 3.1-1 .8-2.2 1.5-3.5 1.8-1.3.3-2.7.5-4 .3zm2-18.7c-1.7-.2-3.4.1-4.9.9-1.5.8-2.7 2-3.6 3.5-.8 1.5-1.2 3.2-1 4.9s.8 3.3 1.9 4.6c1.1 1.3 2.5 2.3 4.1 2.8s3.4.5 5 0 3.1-1.4 4.2-2.7c1.1-1.3 1.8-2.9 1.9-4.6.2-2.3-.5-4.5-1.9-6.3-1.4-1.7-3.5-2.8-5.7-3.1z"/><path d="m686.9 242.2-496.5-52.4L162 459.2l496.5 52.4 28.4-269.4z" style="fill:#3919a4"/><path class="st1" d="M673.4 224c.1-3.6-19.1-60.8-24.7-65.1-3.5-2.7-12.7-1.2-19 .3-3-6.2-6-12-8.9-17.2-23.9-42.7-48.4-63.2-49.4-64-1.9-1.4-4.3-2-6.6-1.6-2.3.3-4.5 1.5-6 3.3s-2.3 4.1-2.1 6.5c.1 2.4 1.2 4.6 2.9 6.2 0 0 3.1 2.6 8 7.7C540 171.6 459 210 441.3 217.7c-1.7-3.2-3.1-5.2-3.7-5.3-5.6-.7-145.9 56.7-148.4 58.7-2.2 1.8-4 4.1-5.3 6.6s-2.1 5.3-2.3 8.1c.1.9.2 1.7.5 2.6-3 2.3-8.1 7.2-8 13.1.2 8.3 23.7 58 26.4 60.1 1.3.6 2.7.9 4.2.7h4l.7-.1.9-.1.7-.1.6-.1.6-.1h.6l.9-.2h.1l2 4.3c.7 2.2 24.5-4 53.8-12.7.8 1.9 1.9 4.5 3.1 7.5-3 2.3-5.5 5.1-7.6 8.3-3.6 6.1-3.9 17.1-3.9 17.1-2.8 5.3.4 36-3.9 47.9-4.3 11.9-100.4 71.8-100.4 71.8l112.9 9.1s38.6-36.2 42.2-38.7c2.7-1.4 5.4-2.5 8.3-3.4.2.3.4.7.5 1.1.1.2.2.3.2.5.3.5.5 1.1.8 1.6l.2.4c.3.5.5 1 .8 1.6l.2.3c.6 1.2 1.1 2.3 1.6 3.2.1.1.1.1.1.2l.6 1.1.2.4c.1.3.3.5.4.7l.2.4.3.6.2.3.3.4.2.2.3.3.1.1c.1.1.2.2.3.2H429.4c.3 0 .6-.1.8-.2h.2c.3 0 .7-.1 1.1-.3h.1l1.3-.4c13.7-4 47.4-19.5 48.9-23.2.4-1-1.6-8.6-4.9-19.6-.5-1.6-1-3.2-1.5-4.9 2.5-3.3 4.8-6.7 6.8-10.3 8.1-14.8-1.5-24.8-1.4-26.3 0-1.6 4.8-7.6 3.4-11.8-1.4-4.2-9.5-11.6-9.5-11.6s2.3-8.7 1.4-12.9c-.9-4.2-13.1-9.6-13.1-9.6s.8-10.8-1.7-15-13.1-9.6-16.3-9.7c-1.7.4-3.2 1.2-4.6 2.3-.3-.7-.5-1.4-.7-2 23.4-7.6 40.7-13.7 40.7-14.4-.5-1.9-1.1-3.8-1.8-5.6 1.5-.4 3.4-.8 5.7-1.2 27.3-5.4 104.4-16.1 163.1 20.4 0 3.2 0 6.4-.1 9.6-.1 2.5.9 4.9 2.6 6.7 1.7 1.8 4.1 2.8 6.5 2.9s4.9-.9 6.7-2.6 2.8-4.1 2.9-6.5c1-34.7-2.2-69.3-9.5-103.2 5.9-3.5 16.8-10.4 16.9-13zM193.4 273.3c-.3 1.1-.9 2-1.8 2.7s-1.9 1.2-3 1.3c-1.1.1-2.2-.1-3.2-.6s-1.8-1.3-2.3-2.3-.8-2.1-.7-3.2c.1-1.1.5-2.2 1.2-3 .7-.9 1.7-1.5 2.7-1.8 1.1-.3 2.2-.3 3.3 0 1.4.4 2.6 1.4 3.3 2.7.7 1.3.9 2.8.5 4.2zM188 296.7c-.4 1.3-1.1 2.5-2.2 3.3-1 .9-2.3 1.4-3.7 1.6s-2.7-.1-3.9-.7c-1.2-.6-2.2-1.6-2.9-2.8-.7-1.2-.9-2.6-.8-3.9.1-1.4.6-2.6 1.5-3.7s2-1.9 3.3-2.3 2.7-.4 4-.1c.9.3 1.7.7 2.4 1.2.7.6 1.3 1.3 1.7 2.1.4.8.7 1.7.8 2.6.1.9 0 1.8-.2 2.7zM182.6 320c-.5 1.6-1.4 2.9-2.6 4-1.2 1-2.8 1.7-4.4 1.9-1.6.2-3.2-.1-4.7-.9-1.4-.7-2.6-1.9-3.4-3.3s-1.1-3-1-4.7c.1-1.6.8-3.2 1.8-4.4 1-1.3 2.4-2.2 3.9-2.7s3.2-.5 4.8-.1c2.1.6 3.9 2 4.9 3.9 1.1 1.9 1.3 4.2.7 6.3zM177.2 343.2c-.5 1.8-1.6 3.4-3 4.6s-3.2 2-5.1 2.2-3.8-.1-5.4-1c-1.7-.9-3.1-2.2-4-3.9-.9-1.7-1.3-3.5-1.1-5.4.2-1.9.9-3.7 2.1-5.1 1.2-1.5 2.8-2.6 4.6-3.1 1.8-.6 3.7-.6 5.5-.1 2.4.7 4.5 2.4 5.7 4.6 1.1 2.2 1.4 4.8.7 7.2zM161.4 374.4c6 0 10.9-4.9 10.9-10.9s-4.9-10.9-10.9-10.9-10.9 4.9-10.9 10.9c0 6.1 4.9 10.9 10.9 10.9zM166.4 390c-.7 2.3-2 4.4-3.9 5.9-1.8 1.5-4.1 2.5-6.5 2.8s-4.8-.2-6.9-1.3c-2.1-1.1-3.9-2.8-5.1-4.9s-1.7-4.5-1.5-6.9 1.1-4.7 2.6-6.6 3.5-3.3 5.8-4 4.8-.8 7.1-.1c3.1.9 5.7 3 7.3 5.8 1.7 2.8 2 6.2 1.1 9.3z"/><path class="st1" d="M148.4 423c7.5-.2 13.3-6.4 13.1-13.9-.2-7.5-6.4-13.3-13.9-13.1-7.5.2-13.3 6.4-13.1 13.9.2 7.4 6.5 13.3 13.9 13.1z"/><path class="st1" d="M155.7 436.5c-.8 2.8-2.4 5.3-4.7 7.2-2.2 1.9-5 3.1-7.9 3.4-2.9.3-5.9-.2-8.5-1.6-2.6-1.4-4.8-3.4-6.2-6-1.4-2.6-2-5.5-1.8-8.4.3-2.9 1.4-5.7 3.2-8 1.8-2.3 4.3-4 7.1-4.9 2.8-.9 5.8-.9 8.6-.1 3.8 1.1 7 3.6 8.9 7.1 1.9 3.5 2.4 7.6 1.3 11.3z"/><path class="st1" d="M150.3 459.8c-.9 3.1-2.7 5.8-5.1 7.9-2.4 2.1-5.4 3.3-8.6 3.7s-6.4-.2-9.2-1.7c-2.8-1.5-5.2-3.8-6.7-6.6s-2.2-6-1.9-9.2 1.5-6.2 3.5-8.7 4.7-4.3 7.7-5.3 6.3-1 9.4-.1c4.1 1.2 7.6 4 9.7 7.7s2.4 8.2 1.2 12.3z"/><path class="st1" d="M144.9 483.2c-1 3.3-2.9 6.3-5.6 8.5s-5.9 3.6-9.3 4-6.9-.3-10-1.9c-3.1-1.6-5.6-4.1-7.2-7.1-1.7-3-2.4-6.5-2.1-9.9.3-3.4 1.6-6.7 3.8-9.4s5.1-4.7 8.4-5.7 6.8-1.1 10.1-.1c4.4 1.3 8.2 4.3 10.4 8.4 2.3 3.9 2.8 8.7 1.5 13.2z"/><path class="st1" d="M137.4 511.1c5.5-8.8 2.8-20.4-6-25.9s-20.4-2.8-25.9 6-2.8 20.4 6 25.9 20.4 2.8 25.9-6zM220.5 285.3c2.7-1.5 3.7-4.9 2.2-7.6s-4.9-3.7-7.6-2.2-3.7 4.9-2.2 7.6 4.9 3.7 7.6 2.2zM217.8 305.3c-.4 1.3-1.1 2.5-2.2 3.4-1 .9-2.3 1.4-3.7 1.6-1.4.2-2.7-.1-3.9-.7-1.2-.6-2.2-1.6-2.9-2.8-.7-1.2-.9-2.6-.8-3.9.1-1.4.6-2.7 1.5-3.7.9-1.1 2-1.9 3.3-2.3s2.7-.4 4 0c.9.3 1.7.7 2.4 1.2.7.6 1.3 1.3 1.7 2.1.4.8.7 1.7.8 2.6.1.7 0 1.6-.2 2.5zM212.4 328.6c-.5 1.6-1.4 2.9-2.6 4-1.2 1-2.8 1.7-4.4 1.9-1.6.2-3.2-.1-4.7-.9-1.4-.7-2.6-1.9-3.4-3.3s-1.1-3-1-4.7c.1-1.6.8-3.2 1.8-4.4 1-1.3 2.4-2.2 3.9-2.7s3.2-.5 4.8-.1c1 .3 2 .8 2.9 1.5.8.7 1.5 1.5 2.1 2.5.5.9.8 2 1 3.1 0 1-.1 2.1-.4 3.1zM207 351.9c-.5 1.8-1.6 3.4-3 4.6s-3.2 2-5.1 2.2-3.8-.1-5.4-1c-1.7-.9-3.1-2.2-4-3.9-.9-1.7-1.3-3.5-1.1-5.4.2-1.9.9-3.7 2.1-5.1 1.2-1.5 2.8-2.6 4.6-3.1 1.8-.6 3.7-.6 5.5-.1 1.2.3 2.3.9 3.3 1.7 1 .8 1.8 1.8 2.4 2.8.6 1.1 1 2.3 1.1 3.6s-.1 2.5-.4 3.7zM201.6 375.2c-.6 2.1-1.8 3.9-3.4 5.3s-3.6 2.3-5.8 2.5c-2.1.2-4.3-.1-6.2-1.1-1.9-1-3.5-2.5-4.5-4.4s-1.5-4-1.3-6.1 1-4.2 2.3-5.9c1.3-1.7 3.1-2.9 5.2-3.6 2-.7 4.2-.7 6.3-.1 1.4.4 2.7 1 3.8 1.9 1.1.9 2.1 2 2.8 3.2.7 1.3 1.1 2.6 1.3 4 0 1.5-.1 3-.5 4.3zM196.2 398.5c-.7 2.3-2 4.4-3.9 5.9-1.8 1.6-4.1 2.5-6.5 2.8s-4.8-.2-6.9-1.3c-2.1-1.1-3.9-2.8-5.1-4.9s-1.7-4.5-1.5-6.9 1.1-4.7 2.6-6.6 3.5-3.3 5.8-4 4.8-.8 7.1-.1c1.5.4 3 1.2 4.2 2.2 1.3 1 2.3 2.2 3.1 3.6.8 1.4 1.3 2.9 1.4 4.5.3 1.7.2 3.3-.3 4.8z"/><path class="st1" d="M179.9 431.4c7.4-1.1 12.4-8 11.3-15.4s-8-12.4-15.4-11.3-12.4 8-11.3 15.4 8 12.5 15.4 11.3z"/><path class="st1" d="M178.3 454c7.2-3.9 9.8-12.9 5.9-20.1-3.9-7.2-12.9-9.8-20.1-5.9s-9.8 12.9-5.9 20.1c3.9 7.2 12.9 9.9 20.1 5.9z"/><path class="st1" d="M173.5 477.4c7.4-5 9.4-15 4.5-22.4-5-7.4-15-9.4-22.4-4.5-7.4 5-9.4 15-4.5 22.4 5 7.4 15 9.4 22.4 4.5z"/><path class="st1" d="M174.7 491.8c-1 3.3-2.9 6.3-5.5 8.5s-5.9 3.6-9.3 4-6.9-.3-10-1.9c-3.1-1.6-5.6-4.1-7.3-7.1-1.7-3-2.4-6.5-2.1-9.9s1.6-6.7 3.8-9.4c2.2-2.7 5.1-4.7 8.4-5.7s6.8-1.1 10.1-.1c2.2.6 4.3 1.7 6.1 3.1 1.8 1.4 3.3 3.2 4.4 5.2s1.8 4.2 2.1 6.5c.1 2.3-.1 4.6-.7 6.8z"/><path class="st1" d="M160.8 526c8.9-5.3 11.9-16.8 6.6-25.7s-16.8-11.9-25.7-6.6c-8.9 5.3-11.9 16.8-6.6 25.8 5.3 8.9 16.8 11.8 25.7 6.5zM252.9 290.6c-.3 1.1-.9 2-1.8 2.7s-1.9 1.2-3 1.3c-1.1.1-2.2-.1-3.2-.6s-1.8-1.3-2.3-2.3-.8-2.1-.7-3.2c.1-1.1.5-2.2 1.2-3 .7-.9 1.7-1.5 2.7-1.8 1.1-.3 2.2-.3 3.3 0 1.4.4 2.6 1.4 3.3 2.7.8 1.3.9 2.8.5 4.2zM247.5 313.9c-.4 1.3-1.1 2.5-2.2 3.4-1 .9-2.3 1.4-3.7 1.6-1.4.2-2.7-.1-3.9-.7-1.2-.6-2.2-1.6-2.9-2.8-.7-1.2-.9-2.6-.8-3.9s.6-2.7 1.5-3.7c.9-1.1 2-1.9 3.3-2.3s2.7-.4 4 0c.9.3 1.7.7 2.4 1.2.7.6 1.3 1.3 1.7 2.1.4.8.7 1.7.8 2.6.2.8.1 1.7-.2 2.5zM242.2 337.3c-.5 1.6-1.4 2.9-2.6 4-1.2 1-2.8 1.7-4.4 1.9s-3.2-.1-4.7-.9c-1.4-.7-2.6-1.9-3.4-3.3s-1.1-3-1-4.7c.1-1.6.8-3.2 1.8-4.4 1-1.3 2.4-2.2 3.9-2.7s3.2-.5 4.8-.1c1 .3 2 .8 2.9 1.5.8.7 1.5 1.5 2.1 2.5.5.9.9 2 1 3.1 0 .9-.1 2-.4 3.1zM236.8 360.6c-.5 1.8-1.6 3.4-3 4.7-1.4 1.2-3.2 2-5.1 2.2s-3.8-.1-5.5-1-3.1-2.2-4-3.9-1.3-3.5-1.1-5.4c.2-1.9.9-3.7 2.1-5.2s2.8-2.6 4.6-3.1c1.8-.6 3.7-.6 5.6 0 2.4.7 4.4 2.3 5.6 4.5 1.2 2.2 1.5 4.8.8 7.2zM229.9 387c3.4-4.9 2.2-11.7-2.7-15.1-4.9-3.4-11.7-2.2-15.1 2.7-3.4 4.9-2.2 11.7 2.7 15.1s11.7 2.2 15.1-2.7zM226 407.2c-.7 2.3-2 4.4-3.9 5.9-1.8 1.5-4.1 2.5-6.5 2.8s-4.8-.2-6.9-1.3c-2.1-1.1-3.9-2.8-5.1-4.9s-1.7-4.5-1.5-6.9 1.1-4.7 2.6-6.6 3.5-3.3 5.8-4 4.8-.8 7.1-.1c1.5.4 3 1.2 4.2 2.2 1.3 1 2.3 2.2 3.1 3.6.8 1.4 1.3 2.9 1.4 4.5.3 1.6.1 3.2-.3 4.8z"/><path class="st1" d="M220.6 430.5c-.7 2.6-2.2 4.9-4.3 6.6-2 1.7-4.6 2.8-7.2 3.1-2.7.3-5.3-.2-7.7-1.4-2.4-1.2-4.3-3.1-5.6-5.5-1.3-2.3-1.9-5-1.6-7.7.2-2.7 1.2-5.2 2.9-7.3 1.7-2.1 3.9-3.6 6.5-4.4 2.5-.8 5.3-.8 7.8-.1 1.7.5 3.3 1.3 4.7 2.4 1.4 1.1 2.5 2.5 3.4 4 .9 1.6 1.4 3.3 1.6 5 .2 1.8 0 3.6-.5 5.3z"/><path class="st1" d="M215.2 453.8c-.8 2.8-2.5 5.3-4.7 7.2s-5 3.1-7.9 3.4c-2.9.3-5.9-.2-8.5-1.6-2.6-1.4-4.7-3.4-6.2-6-1.4-2.6-2-5.5-1.8-8.4.3-2.9 1.4-5.7 3.2-8 1.8-2.3 4.3-4 7.1-4.9 2.8-.9 5.8-.9 8.6-.1 1.9.5 3.6 1.4 5.1 2.7 1.5 1.2 2.8 2.7 3.7 4.4.9 1.7 1.5 3.6 1.7 5.5.4 2 .3 3.9-.3 5.8z"/><path class="st1" d="M194.3 488.8c8.9 0 16.1-7.2 16.1-16.1 0-8.9-7.2-16.1-16.1-16.1s-16.1 7.2-16.1 16.1c0 8.8 7.2 16.1 16.1 16.1z"/><path class="st1" d="M201.8 505.8c5.6-7.8 3.9-18.7-4-24.4-7.8-5.6-18.7-3.9-24.4 4-5.6 7.8-3.9 18.7 4 24.4 7.9 5.6 18.8 3.8 24.4-4z"/><path class="st1" d="M199.1 523.7c-1 3.6-3.1 6.8-6 9.1s-6.3 3.9-10 4.3c-3.7.4-7.4-.3-10.7-2-3.3-1.7-6-4.4-7.8-7.6-1.8-3.3-2.6-7-2.3-10.7.3-3.7 1.7-7.2 4.1-10.1 2.3-2.9 5.5-5.1 9-6.2 3.5-1.1 7.3-1.2 10.9-.1 2.4.7 4.6 1.8 6.5 3.4 1.9 1.5 3.5 3.4 4.7 5.6 1.2 2.2 1.9 4.5 2.2 7 .3 2.5.1 5-.6 7.3zM282.7 299.3c-.3 1.1-.9 2-1.8 2.7s-1.9 1.2-3 1.3c-1.1.1-2.2-.1-3.2-.6s-1.8-1.3-2.3-2.3-.8-2.1-.7-3.2c.1-1.1.5-2.2 1.2-3s1.7-1.5 2.7-1.8c1.1-.3 2.2-.3 3.3 0 1.4.4 2.6 1.4 3.3 2.7.7 1.2.9 2.8.5 4.2zM277.3 322.6c-.4 1.3-1.1 2.5-2.2 3.4-1 .9-2.3 1.4-3.7 1.6-1.4.1-2.7-.1-3.9-.7-1.2-.6-2.2-1.6-2.9-2.8-.7-1.2-.9-2.6-.8-3.9.1-1.4.6-2.6 1.5-3.7s2-1.8 3.3-2.3c1.3-.4 2.7-.4 4 0 .9.2 1.7.7 2.4 1.2.7.6 1.3 1.3 1.7 2.1.4.8.7 1.7.8 2.6.2.8.1 1.7-.2 2.5zM271.9 345.9c-.5 1.6-1.4 3-2.6 4s-2.8 1.7-4.4 1.9c-1.6.2-3.2-.1-4.7-.9-1.4-.7-2.6-1.9-3.4-3.3s-1.1-3-1-4.7c.1-1.6.8-3.2 1.8-4.4 1-1.3 2.4-2.2 3.9-2.7s3.2-.5 4.8-.1c1 .3 2 .8 2.8 1.5s1.5 1.5 2.1 2.5.9 2 1 3.1c.1 1 0 2-.3 3.1zM266.5 369.2c-.5 1.8-1.6 3.4-3 4.6s-3.2 2-5.1 2.2-3.8-.1-5.4-1c-1.7-.9-3.1-2.2-4-3.9s-1.3-3.5-1.1-5.4c.2-1.9.9-3.7 2.1-5.1 1.2-1.5 2.8-2.6 4.6-3.1 1.8-.6 3.7-.6 5.5-.1 1.2.3 2.3.9 3.3 1.7 1 .8 1.8 1.8 2.4 2.8.6 1.1 1 2.3 1.1 3.6.1 1.2 0 2.5-.4 3.7zM256 399c5.3-2.9 7.2-9.5 4.3-14.7-2.9-5.3-9.5-7.2-14.7-4.3-5.3 2.9-7.2 9.5-4.3 14.7 2.8 5.2 9.4 7.2 14.7 4.3z"/><path class="st1" d="M255.8 415.8c-.7 2.3-2 4.4-3.9 5.9-1.8 1.5-4.1 2.5-6.5 2.8s-4.8-.2-6.9-1.3c-2.1-1.1-3.9-2.8-5.1-4.9s-1.7-4.5-1.5-6.9 1.1-4.7 2.6-6.6 3.5-3.3 5.8-4 4.8-.8 7.1-.1c1.5.4 3 1.2 4.2 2.2s2.3 2.2 3.1 3.6c.8 1.4 1.3 2.9 1.4 4.5s.1 3.3-.3 4.8z"/><path class="st1" d="M250.4 439.1c-.8 2.6-2.3 4.8-4.3 6.5s-4.6 2.8-7.2 3c-2.7.3-5.3-.2-7.7-1.5-2.4-1.2-4.3-3.1-5.6-5.5-1.3-2.3-1.8-5-1.6-7.7.2-2.7 1.2-5.2 2.9-7.3 1.7-2.1 3.9-3.6 6.4-4.4s5.3-.8 7.8-.1c1.7.5 3.3 1.3 4.7 2.4 1.4 1.1 2.6 2.5 3.4 4.1.9 1.6 1.4 3.3 1.6 5.1.3 1.9.1 3.7-.4 5.4z"/><path class="st1" d="M245 462.5c-.8 2.8-2.4 5.3-4.7 7.2-2.2 1.9-5 3.1-7.9 3.4-2.9.3-5.9-.2-8.5-1.6-2.6-1.3-4.8-3.4-6.2-6-1.4-2.6-2-5.5-1.8-8.4.3-2.9 1.4-5.7 3.2-8 1.8-2.3 4.3-4 7.1-4.9 2.8-.9 5.8-.9 8.6-.1 3.8 1.1 7 3.6 8.9 7.1 2 3.4 2.4 7.5 1.3 11.3z"/><path class="st1" d="M232 495.3c7.8-4.4 10.6-14.2 6.2-22s-14.2-10.6-22-6.2c-7.8 4.4-10.6 14.2-6.2 22 4.4 7.8 14.3 10.6 22 6.2z"/><path class="st1" d="M232.5 513.1c4.9-8.3 2.1-19-6.2-23.9-8.3-4.9-19-2.1-23.9 6.2s-2.1 19 6.2 23.9c8.3 4.9 19 2.1 23.9-6.2z"/><path class="st1" d="M220.2 543.4c9-5.2 12.1-16.7 6.9-25.7s-16.7-12.1-25.7-6.9c-9 5.2-12.1 16.7-6.9 25.7 5.3 9 16.8 12.1 25.7 6.9zM312.5 307.9c-.3 1.1-.9 2-1.8 2.7s-1.9 1.2-3 1.3c-1.1.1-2.2-.1-3.2-.6s-1.8-1.3-2.3-2.3-.8-2.1-.7-3.2c.1-1.1.5-2.2 1.2-3s1.7-1.5 2.7-1.8c1.1-.3 2.2-.3 3.3 0 1.4.4 2.6 1.4 3.3 2.7.7 1.3.9 2.8.5 4.2zM307.1 331.2c-.4 1.3-1.1 2.5-2.2 3.4-1 .9-2.3 1.4-3.7 1.6-1.4.2-2.7-.1-3.9-.7-1.2-.6-2.2-1.6-2.9-2.8-.7-1.2-1-2.6-.8-3.9.1-1.4.6-2.7 1.5-3.7.9-1.1 2-1.9 3.3-2.3s2.7-.4 4-.1c.9.3 1.7.7 2.4 1.2.7.6 1.3 1.3 1.7 2.1.4.8.7 1.7.8 2.6.1.8.1 1.8-.2 2.6zM301.7 354.5c-.5 1.6-1.4 3-2.6 4s-2.8 1.7-4.4 1.9c-1.6.2-3.2-.1-4.7-.9-1.4-.7-2.6-1.9-3.4-3.3s-1.1-3-1-4.7c.1-1.6.8-3.2 1.8-4.4 1-1.3 2.4-2.2 3.9-2.7s3.2-.5 4.8-.1c2.1.6 3.9 2 4.9 3.9 1.1 2 1.3 4.2.7 6.3zM296.3 377.9c-.5 1.8-1.6 3.4-3 4.6s-3.2 2-5.1 2.2-3.8-.1-5.4-1c-1.7-.9-3.1-2.2-4-3.9-.9-1.7-1.3-3.5-1.1-5.4.2-1.9.9-3.7 2.1-5.1 1.2-1.5 2.8-2.6 4.6-3.1 1.8-.6 3.7-.6 5.5-.1 1.2.3 2.3.9 3.3 1.7 1 .8 1.8 1.8 2.4 2.8.6 1.1 1 2.3 1.1 3.5.1 1.3 0 2.5-.4 3.8zM291 401.2c-.6 2.1-1.8 3.9-3.4 5.3s-3.7 2.3-5.8 2.5-4.3-.1-6.2-1.1c-1.9-1-3.5-2.5-4.5-4.4s-1.5-4-1.3-6.2c.2-2.1 1-4.2 2.3-5.9 1.3-1.7 3.1-2.9 5.2-3.6s4.2-.7 6.3-.1c1.4.4 2.7 1 3.8 1.9 1.1.9 2.1 2 2.8 3.2.7 1.2 1.1 2.6 1.3 4s-.2 3-.5 4.4zM285.6 424.5c-.7 2.3-2 4.4-3.9 5.9-1.8 1.5-4.1 2.5-6.5 2.8s-4.8-.2-6.9-1.3c-2.1-1.1-3.9-2.8-5.1-4.9s-1.7-4.5-1.5-6.9 1.1-4.7 2.6-6.6 3.5-3.3 5.8-4 4.8-.8 7.1-.1c1.5.4 3 1.2 4.2 2.2 1.3 1 2.3 2.2 3.1 3.6.8 1.4 1.3 2.9 1.4 4.5.3 1.6.1 3.2-.3 4.8z"/><path class="st1" d="M273.9 455.8c6.5-3.7 8.8-11.9 5.1-18.4-3.7-6.5-11.9-8.8-18.4-5.1s-8.8 11.9-5.1 18.4c3.6 6.5 11.9 8.7 18.4 5.1z"/><path class="st1" d="M274.8 471.1c-.8 2.8-2.5 5.3-4.7 7.2s-5 3.1-7.9 3.4c-2.9.3-5.9-.2-8.5-1.6-2.6-1.4-4.8-3.4-6.2-6s-2-5.5-1.8-8.4c.3-2.9 1.4-5.7 3.2-8 1.8-2.3 4.3-4 7.1-4.9 2.8-.9 5.8-.9 8.6-.1 3.8 1.1 7 3.7 8.9 7.1 1.9 3.5 2.4 7.5 1.3 11.3z"/><path class="st1" d="M256.8 505.8c8.8-1.6 14.6-10.1 13-18.8-1.6-8.8-10.1-14.6-18.8-13-8.8 1.6-14.6 10.1-13 18.8 1.6 8.8 10 14.6 18.8 13z"/><path class="st1" d="M264 517.7c-1 3.3-2.9 6.3-5.5 8.5s-5.9 3.6-9.3 4-6.9-.3-10-1.9c-3.1-1.6-5.6-4.1-7.3-7.1-1.7-3-2.4-6.5-2.1-9.9s1.6-6.7 3.8-9.4 5.1-4.7 8.4-5.7 6.8-1.1 10.1-.1c2.2.6 4.3 1.7 6.1 3.1 1.8 1.4 3.3 3.2 4.4 5.2s1.8 4.2 2.1 6.5c.1 2.3-.1 4.6-.7 6.8z"/><path class="st1" d="M258.6 541c-1 3.5-3.1 6.7-5.9 9.1-2.8 2.4-6.3 3.8-10 4.2s-7.4-.3-10.7-2c-3.3-1.7-6-4.3-7.8-7.6-1.8-3.2-2.6-6.9-2.3-10.6.3-3.7 1.7-7.2 4-10.1 2.3-2.9 5.4-5 8.9-6.2 3.5-1.1 7.3-1.2 10.8-.2 2.4.7 4.6 1.8 6.5 3.4 1.9 1.5 3.5 3.4 4.7 5.6 1.2 2.2 1.9 4.5 2.2 7 .6 2.6.3 5.1-.4 7.4zM342.3 316.6c-.3 1.1-.9 2-1.8 2.7s-1.9 1.2-3 1.3c-1.1.1-2.2-.1-3.2-.6s-1.8-1.3-2.3-2.3-.8-2.1-.7-3.2c.1-1.1.5-2.2 1.2-3s1.7-1.5 2.7-1.8c1.1-.3 2.2-.3 3.3 0 1.4.4 2.6 1.4 3.3 2.7.7 1.2.9 2.7.5 4.2zM336.9 339.9c-.4 1.3-1.1 2.5-2.2 3.4-1 .9-2.3 1.4-3.7 1.6s-2.7-.1-3.9-.7c-1.2-.6-2.2-1.6-2.9-2.8s-.9-2.6-.8-3.9c.1-1.4.6-2.7 1.5-3.7.9-1.1 2-1.9 3.3-2.3s2.7-.4 4 0c1.8.5 3.2 1.7 4.1 3.3.9 1.4 1.1 3.3.6 5.1zM331.5 363.2c-.5 1.6-1.4 3-2.6 4s-2.8 1.7-4.4 1.9c-1.6.2-3.2-.1-4.7-.9-1.4-.7-2.6-1.9-3.4-3.3s-1.1-3-1-4.7c.1-1.6.8-3.2 1.8-4.4 1-1.3 2.4-2.2 3.9-2.7s3.2-.5 4.8-.1c2.1.6 3.9 2 4.9 3.9 1.1 1.9 1.3 4.2.7 6.3zM326.1 386.5c-.5 1.8-1.6 3.4-3 4.6s-3.2 2-5.1 2.2-3.8-.1-5.4-1c-1.7-.9-3.1-2.2-4-3.9-.9-1.7-1.3-3.5-1.1-5.4.2-1.9.9-3.7 2.1-5.1 1.2-1.5 2.8-2.6 4.6-3.1 1.8-.6 3.7-.6 5.5-.1 1.2.3 2.3.9 3.3 1.7 1 .8 1.8 1.8 2.4 2.8.6 1.1 1 2.3 1.1 3.6s0 2.5-.4 3.7zM310.3 417.6c6 0 10.9-4.9 10.9-10.9s-4.9-10.9-10.9-10.9-10.9 4.9-10.9 10.9c0 6.1 4.9 10.9 10.9 10.9zM315.3 433.1c-.7 2.3-2 4.4-3.8 5.9-1.8 1.6-4.1 2.5-6.5 2.8s-4.8-.2-7-1.3c-2.1-1.1-3.9-2.8-5.1-4.9-1.2-2.1-1.7-4.5-1.5-6.9s1.1-4.7 2.6-6.6 3.5-3.3 5.8-4 4.8-.8 7.1-.1c1.5.4 3 1.2 4.2 2.2 1.3 1 2.3 2.2 3.1 3.6.8 1.4 1.3 2.9 1.4 4.5.3 1.7.2 3.3-.3 4.8z"/><path class="st1" d="M297.4 466.1c7.5-.2 13.3-6.5 13.1-13.9-.2-7.5-6.5-13.3-13.9-13.1s-13.3 6.5-13.1 13.9c.3 7.5 6.5 13.4 13.9 13.1z"/><path class="st1" d="M304.6 479.8c-.8 2.8-2.5 5.3-4.7 7.2s-5 3.1-7.9 3.4c-2.9.3-5.9-.2-8.4-1.6-2.6-1.4-4.7-3.4-6.1-6s-2-5.5-1.8-8.4c.3-2.9 1.4-5.7 3.2-8 1.8-2.3 4.3-4 7.1-4.9 2.8-.9 5.8-.9 8.6-.1 1.9.5 3.6 1.4 5.1 2.7 1.5 1.2 2.8 2.7 3.7 4.4.9 1.7 1.5 3.6 1.7 5.5.2 1.9 0 3.9-.5 5.8z"/><path class="st1" d="M299.2 503c-.9 3.1-2.7 5.8-5.1 7.8-2.4 2.1-5.4 3.3-8.6 3.7-3.2.3-6.4-.3-9.2-1.7-2.8-1.5-5.2-3.8-6.7-6.5-1.5-2.8-2.2-6-1.9-9.2.3-3.2 1.5-6.2 3.5-8.7s4.7-4.3 7.7-5.3 6.3-1 9.4-.1c2 .6 3.9 1.6 5.6 2.9 1.7 1.3 3 3 4.1 4.8 1 1.9 1.7 3.9 1.9 6 .1 2.2-.1 4.3-.7 6.3z"/><path class="st1" d="M293.7 526.6c2.8-9.2-2.4-19-11.6-21.8s-19 2.4-21.8 11.6c-2.8 9.2 2.4 19 11.6 21.8 9.3 2.8 19-2.4 21.8-11.6z"/><path class="st1" d="M288.4 549.7c-1 3.6-3.1 6.8-6 9.1-2.8 2.4-6.3 3.9-10 4.3-3.7.4-7.4-.3-10.7-2-3.3-1.7-6-4.4-7.8-7.6-1.8-3.3-2.6-7-2.3-10.7.3-3.7 1.7-7.2 4-10.1 2.3-2.9 5.4-5.1 9-6.2 3.5-1.1 7.3-1.2 10.9-.1 4.8 1.4 8.8 4.6 11.2 9 2.5 4.3 3.1 9.5 1.7 14.3zM372.1 325.2c-.3 1.1-.9 2-1.8 2.7s-1.9 1.2-3 1.3c-1.1.1-2.2-.1-3.2-.6s-1.8-1.3-2.3-2.3-.8-2.1-.7-3.2c.1-1.1.5-2.2 1.2-3s1.7-1.5 2.7-1.8c1.1-.3 2.2-.3 3.3 0 1.4.4 2.6 1.4 3.3 2.7.7 1.3.9 2.8.5 4.2zM366.7 348.5c-.4 1.3-1.1 2.5-2.2 3.4-1 .9-2.3 1.4-3.7 1.6-1.4.1-2.7-.1-3.9-.7-1.2-.6-2.2-1.6-2.9-2.8-.7-1.2-.9-2.6-.8-3.9.1-1.4.6-2.7 1.5-3.7.9-1.1 2-1.9 3.3-2.3s2.7-.4 4 0c.9.3 1.7.7 2.4 1.2.7.6 1.3 1.3 1.7 2.1.4.8.7 1.7.8 2.6.1.7 0 1.6-.2 2.5zM361.2 371.8c-.5 1.6-1.4 3-2.6 4s-2.8 1.7-4.4 1.9c-1.6.2-3.2-.1-4.7-.9-1.4-.7-2.6-1.9-3.4-3.3s-1.1-3-1-4.7c.1-1.6.8-3.2 1.8-4.4 1-1.3 2.4-2.2 3.9-2.7s3.2-.5 4.8-.1c1 .3 2 .8 2.8 1.5s1.5 1.5 2.1 2.5c.5.9.9 2 1 3.1.1 1 0 2.1-.3 3.1zM355.9 395.1c-.5 1.8-1.6 3.4-3 4.6s-3.2 2-5.1 2.2-3.8-.1-5.4-1c-1.7-.9-3.1-2.2-4-3.9-.9-1.7-1.3-3.5-1.1-5.4.2-1.9.9-3.7 2.1-5.1 1.2-1.5 2.8-2.6 4.6-3.1 1.8-.6 3.7-.6 5.5-.1 1.2.3 2.3.9 3.3 1.7s1.8 1.8 2.4 2.9 1 2.3 1.1 3.5c.1 1.3-.1 2.5-.4 3.7zM350.5 418.4c-.6 2.1-1.8 3.9-3.4 5.3s-3.7 2.2-5.8 2.5c-2.1.2-4.3-.2-6.2-1.2-1.9-1-3.5-2.5-4.5-4.4s-1.5-4-1.3-6.2c.2-2.1 1-4.2 2.4-5.9 1.3-1.7 3.2-2.9 5.2-3.6 2-.6 4.2-.7 6.3-.1 1.4.4 2.6 1.1 3.8 2 1.1.9 2 2 2.7 3.2s1.1 2.6 1.3 4c0 1.6-.1 3.1-.5 4.4zM345.1 441.7c-.7 2.3-2 4.4-3.9 5.9-1.8 1.6-4.1 2.5-6.5 2.8s-4.8-.2-7-1.3c-2.1-1.1-3.9-2.8-5.1-4.9-1.2-2.1-1.7-4.5-1.5-6.9s1.1-4.7 2.6-6.6 3.5-3.3 5.8-4 4.8-.8 7.1-.1c3.1.9 5.7 3 7.3 5.8s2.1 6.2 1.2 9.3z"/><path class="st1" d="M338.3 468.4c3.9-6.4 1.9-14.7-4.5-18.6-6.4-3.9-14.7-1.9-18.6 4.5s-1.9 14.7 4.5 18.6c6.4 3.8 14.7 1.8 18.6-4.5z"/><path class="st1" d="M334.4 488.4c-.8 2.8-2.5 5.3-4.7 7.2s-5 3.1-7.9 3.4c-2.9.3-5.9-.2-8.5-1.6s-4.7-3.4-6.2-6c-1.4-2.6-2-5.5-1.8-8.4.3-2.9 1.4-5.7 3.2-8 1.8-2.3 4.3-4 7.1-4.9 2.8-.9 5.8-.9 8.6-.1 1.9.5 3.6 1.4 5.1 2.7 1.5 1.2 2.8 2.7 3.7 4.4s1.5 3.6 1.7 5.5c.4 1.9.2 3.9-.3 5.8z"/><path class="st1" d="M329 511.7c-.9 3.1-2.7 5.8-5.1 7.9-2.4 2.1-5.4 3.3-8.6 3.7s-6.4-.2-9.2-1.7c-2.8-1.5-5.2-3.8-6.7-6.6s-2.2-6-1.9-9.2c.3-3.2 1.5-6.2 3.5-8.7s4.7-4.3 7.7-5.3 6.3-1 9.4-.1c4.1 1.2 7.6 4 9.7 7.7 1.9 3.7 2.4 8.2 1.2 12.3z"/><path class="st1" d="M323.6 535c-.9 3.3-2.9 6.3-5.5 8.5s-5.9 3.6-9.3 4-6.9-.2-10-1.8-5.6-4-7.3-7.1c-1.7-3-2.4-6.5-2.1-9.9s1.6-6.7 3.8-9.4c2.2-2.7 5.1-4.7 8.4-5.7s6.8-1.1 10.2-.1c4.4 1.3 8.2 4.3 10.4 8.3s2.7 8.7 1.4 13.2z"/><path class="st1" d="M309.4 569.4c9.1-5.1 12.3-16.5 7.2-25.6-5.1-9.1-16.5-12.3-25.6-7.2s-12.3 16.5-7.2 25.6c5 9.1 16.5 12.3 25.6 7.2zM401.8 333.9c-.3 1.1-.9 2-1.8 2.7-.9.7-1.9 1.2-3 1.3-1.1.1-2.2-.1-3.2-.6s-1.8-1.3-2.3-2.3-.8-2.1-.7-3.2.5-2.2 1.2-3c.7-.9 1.7-1.5 2.7-1.8 1.1-.3 2.2-.3 3.3 0 1.4.4 2.6 1.4 3.3 2.7.8 1.2.9 2.7.5 4.2zM396.5 357.1c-.4 1.3-1.1 2.5-2.2 3.4s-2.3 1.4-3.7 1.6-2.7-.1-3.9-.7-2.2-1.6-2.9-2.8c-.7-1.2-.9-2.6-.8-3.9.1-1.4.6-2.7 1.5-3.7.9-1.1 2-1.9 3.3-2.3s2.7-.4 4-.1c.9.3 1.7.7 2.4 1.2.7.6 1.3 1.3 1.7 2.1.4.8.7 1.7.8 2.6.1.9 0 1.8-.2 2.6zM391.2 380.5c-.5 1.6-1.4 2.9-2.6 4-1.2 1-2.8 1.7-4.4 1.9-1.6.2-3.2-.1-4.7-.9-1.4-.7-2.6-1.9-3.4-3.3s-1.1-3-1-4.7c.1-1.6.8-3.2 1.8-4.4 1-1.3 2.4-2.2 3.9-2.7s3.2-.5 4.8-.1c2.1.6 3.8 2 4.9 3.9 1 1.9 1.3 4.2.7 6.3zM385.7 403.8c-.5 1.8-1.6 3.4-3 4.6s-3.2 2-5.1 2.2c-1.9.2-3.8-.1-5.4-1-1.7-.9-3.1-2.2-4-3.9-.9-1.7-1.3-3.5-1.1-5.4.2-1.9.9-3.7 2.1-5.1 1.2-1.5 2.8-2.6 4.6-3.1 1.8-.6 3.7-.6 5.5-.1 1.2.3 2.3.9 3.3 1.7 1 .8 1.8 1.8 2.4 2.8.6 1.1 1 2.3 1.1 3.5.1 1.3-.1 2.6-.4 3.8zM369.9 434.9c6 0 10.9-4.9 10.9-10.9s-4.9-10.9-10.9-10.9S359 418 359 424c0 6.1 4.9 10.9 10.9 10.9zM374.9 450.4c-.7 2.3-2 4.4-3.9 5.9-1.8 1.5-4.1 2.5-6.5 2.8s-4.8-.2-6.9-1.3-3.9-2.8-5.1-4.9c-1.2-2.1-1.7-4.5-1.5-6.9s1.1-4.7 2.6-6.6c1.5-1.9 3.5-3.3 5.8-4s4.8-.8 7.1-.1c1.5.4 3 1.2 4.2 2.2s2.3 2.2 3.1 3.6c.8 1.4 1.3 2.9 1.4 4.5.3 1.6.2 3.3-.3 4.8z"/><path class="st1" d="M356.6 483.4c7.5 0 13.5-6 13.5-13.5s-6-13.5-13.5-13.5-13.5 6-13.5 13.5c-.1 7.5 6 13.5 13.5 13.5z"/><path class="st1" d="M364.1 497c-.8 2.8-2.5 5.3-4.7 7.2s-5 3.1-7.9 3.4c-2.9.3-5.9-.2-8.5-1.6-2.6-1.4-4.7-3.4-6.2-6-1.4-2.6-2-5.5-1.8-8.4.3-2.9 1.4-5.7 3.2-8 1.8-2.3 4.3-4 7.1-4.9 2.8-.9 5.8-.9 8.6-.1 1.9.5 3.6 1.4 5.1 2.7 1.5 1.2 2.8 2.7 3.7 4.4.9 1.7 1.5 3.6 1.7 5.5.5 2 .3 3.9-.3 5.8z"/><path class="st1" d="M358.8 520.3c-.9 3.1-2.7 5.8-5.1 7.9-2.4 2.1-5.4 3.3-8.6 3.7s-6.4-.2-9.2-1.7c-2.8-1.5-5.2-3.8-6.7-6.6s-2.2-6-1.9-9.2c.3-3.2 1.5-6.2 3.5-8.7s4.7-4.3 7.7-5.3 6.3-1 9.4-.1c4.1 1.2 7.6 4 9.7 7.7s2.3 8.2 1.2 12.3z"/><path class="st1" d="M353.4 543.6c-1 3.3-2.9 6.3-5.5 8.5s-5.9 3.6-9.3 4-6.9-.3-10-1.9c-3.1-1.6-5.6-4.1-7.3-7.1-1.7-3-2.4-6.5-2.1-9.9s1.6-6.7 3.8-9.4 5.1-4.7 8.4-5.7 6.8-1.1 10.1-.1c2.2.6 4.3 1.7 6.1 3.1 1.8 1.4 3.3 3.2 4.4 5.2s1.8 4.2 2.1 6.5c.1 2.3-.1 4.6-.7 6.8z"/><path class="st1" d="M346 571.5c5.4-8.9 2.5-20.4-6.4-25.8-8.9-5.4-20.4-2.5-25.8 6.4s-2.5 20.4 6.4 25.8c8.9 5.3 20.5 2.5 25.8-6.4zM431.6 342.5c-.3 1.1-.9 2-1.8 2.7s-1.9 1.2-3 1.3c-1.1.1-2.2-.1-3.2-.6s-1.8-1.3-2.3-2.3-.8-2.1-.7-3.2.5-2.2 1.2-3c.7-.9 1.7-1.5 2.7-1.8 1.1-.3 2.2-.3 3.3 0 1.4.4 2.6 1.4 3.3 2.7.8 1.3.9 2.8.5 4.2zM426.2 365.8c-.4 1.3-1.1 2.5-2.2 3.4-1 .9-2.3 1.4-3.7 1.6-1.4.1-2.7-.1-3.9-.7s-2.2-1.6-2.9-2.8c-.7-1.2-.9-2.6-.8-3.9.1-1.4.6-2.7 1.5-3.7.9-1.1 2-1.9 3.3-2.3s2.7-.4 4 0c1.8.5 3.2 1.7 4.1 3.3.9 1.4 1.2 3.3.6 5.1zM420.9 389.1c-.5 1.6-1.4 2.9-2.6 4-1.2 1-2.8 1.7-4.4 1.9-1.6.2-3.2-.1-4.7-.9-1.4-.7-2.6-1.9-3.4-3.3s-1.1-3-1-4.7c.1-1.6.8-3.2 1.8-4.4 1-1.3 2.4-2.2 3.9-2.7s3.2-.5 4.8-.1c2.1.6 3.9 2 4.9 3.9 1 2 1.3 4.2.7 6.3zM415.5 412.4c-.5 1.8-1.6 3.4-3 4.6s-3.2 2-5.1 2.2c-1.9.2-3.8-.1-5.4-1-1.7-.9-3.1-2.2-4-3.9-.9-1.7-1.3-3.5-1.2-5.4.2-1.9.9-3.7 2.1-5.1 1.2-1.5 2.8-2.6 4.6-3.1 1.8-.6 3.7-.6 5.5-.1 1.2.3 2.3.9 3.3 1.7 1 .8 1.8 1.7 2.4 2.8.6 1.1 1 2.3 1.1 3.5.1 1.4 0 2.6-.3 3.8zM409.7 436.8c2.2-5.6-.5-11.9-6-14.1-5.6-2.2-11.9.5-14.1 6-2.2 5.6.5 11.9 6 14.1 5.6 2.2 11.9-.5 14.1-6zM404.7 459c-.7 2.3-2 4.4-3.9 5.9-1.8 1.5-4.1 2.5-6.5 2.8s-4.8-.2-6.9-1.3c-2.1-1.1-3.9-2.8-5.1-4.9-1.2-2.1-1.7-4.5-1.5-6.9s1.1-4.7 2.6-6.6c1.5-1.9 3.5-3.3 5.8-4s4.8-.8 7.1-.1c3.1.9 5.7 3 7.3 5.8 1.6 2.9 2 6.2 1.1 9.3z"/><path class="st1" d="M399.8 479.9c.7-7.4-4.7-14-12.1-14.7-7.4-.7-14 4.7-14.7 12.1-.7 7.4 4.7 14 12.1 14.7 7.4.8 14-4.7 14.7-12.1z"/><path class="st1" d="M386.7 514.6c7.2-3.9 9.9-12.9 5.9-20.1-3.9-7.2-12.9-9.9-20.1-5.9-7.2 3.9-9.9 12.9-5.9 20.1 3.9 7.2 13 9.8 20.1 5.9z"/><path class="st1" d="M380.9 538.5c7.8-4.4 10.6-14.2 6.2-22-4.4-7.8-14.2-10.6-22-6.2-7.8 4.4-10.6 14.2-6.2 22s14.3 10.6 22 6.2z"/><path class="st1" d="M383.1 552.3c-1 3.3-2.9 6.3-5.5 8.5s-5.9 3.6-9.3 4-6.9-.3-10-1.9c-3.1-1.6-5.6-4.1-7.3-7.1-1.7-3-2.4-6.5-2.1-9.9s1.6-6.7 3.8-9.4c2.2-2.7 5.1-4.7 8.4-5.7s6.8-1.1 10.1-.1c2.2.6 4.3 1.7 6.1 3.1 1.8 1.4 3.3 3.2 4.4 5.2s1.8 4.2 2.1 6.5c.2 2.3 0 4.6-.7 6.8z"/><path class="st1" d="M371 585.3c8.3-6.2 10-18 3.8-26.3s-18-10-26.3-3.8-10 18-3.8 26.3c6.2 8.4 18 10.1 26.3 3.8zM461.4 351.1c-.3 1.1-.9 2-1.8 2.7-.9.7-1.9 1.2-3 1.3-1.1.1-2.2-.1-3.2-.6s-1.8-1.3-2.3-2.3-.8-2.1-.7-3.2.5-2.2 1.2-3c.7-.9 1.7-1.5 2.7-1.8 1.1-.3 2.2-.3 3.3 0 1.4.4 2.6 1.4 3.3 2.7.7 1.3.9 2.8.5 4.2zM456 374.4c-.4 1.3-1.1 2.5-2.2 3.4s-2.3 1.4-3.7 1.6-2.7-.1-3.9-.7-2.2-1.6-2.9-2.8c-.7-1.2-.9-2.6-.8-3.9.1-1.4.6-2.7 1.5-3.7.9-1.1 2-1.9 3.3-2.3s2.7-.4 4 0c.9.3 1.7.7 2.4 1.2.7.6 1.3 1.3 1.7 2.1.4.8.7 1.7.8 2.6.2.7.1 1.7-.2 2.5zM450.6 397.7c-.5 1.6-1.4 2.9-2.6 4-1.2 1-2.8 1.7-4.4 1.9-1.6.2-3.2-.1-4.7-.9-1.4-.7-2.6-1.9-3.4-3.3-.8-1.4-1.1-3-1-4.7.1-1.6.8-3.2 1.8-4.4 1-1.3 2.4-2.2 3.9-2.7s3.2-.5 4.8-.1c1 .3 2 .8 2.8 1.5s1.5 1.5 2.1 2.5.9 2 1 3.1c.1 1 0 2.1-.3 3.1zM445.2 421c-.5 1.8-1.6 3.4-3 4.6s-3.2 2-5.1 2.2c-1.9.2-3.8-.1-5.4-1-1.7-.9-3.1-2.2-4-3.9-.9-1.7-1.3-3.5-1.1-5.4s.9-3.7 2.1-5.1c1.2-1.5 2.8-2.6 4.6-3.1 1.8-.6 3.7-.6 5.5-.1 2.4.7 4.5 2.3 5.7 4.6 1.2 2.2 1.4 4.8.7 7.2zM439.8 444.4c-.6 2.1-1.8 3.9-3.4 5.3s-3.7 2.3-5.8 2.5-4.3-.2-6.2-1.1c-1.9-1-3.5-2.5-4.5-4.4s-1.5-4-1.3-6.2 1-4.2 2.3-5.9 3.1-2.9 5.2-3.6c2-.7 4.2-.7 6.3-.1 1.4.4 2.7 1 3.8 1.9s2.1 2 2.8 3.2c.7 1.3 1.1 2.6 1.3 4.1 0 1.4-.1 2.9-.5 4.3zM434.5 467.7c-.7 2.3-2 4.4-3.9 5.9-1.8 1.5-4.1 2.5-6.5 2.8s-4.8-.2-6.9-1.3c-2.1-1.1-3.9-2.8-5.1-4.9-1.2-2.1-1.7-4.5-1.5-6.9s1.1-4.7 2.6-6.6c1.5-1.9 3.5-3.3 5.8-4s4.8-.8 7.1-.1c3.1.9 5.7 3 7.3 5.8s2 6.2 1.1 9.3z"/><path class="st1" d="M429.1 491c-.7 2.6-2.2 4.9-4.3 6.6-2 1.7-4.6 2.8-7.2 3.1-2.7.3-5.3-.2-7.7-1.4s-4.3-3.1-5.6-5.5c-1.3-2.3-1.9-5-1.6-7.7.2-2.7 1.2-5.2 2.9-7.3s3.9-3.6 6.5-4.4c2.5-.8 5.3-.8 7.8-.1 3.4 1 6.3 3.3 8.1 6.5 1.7 3 2.1 6.7 1.1 10.2z"/><path class="st1" d="M423.7 514.3c-.8 2.8-2.5 5.3-4.7 7.2s-5 3.1-7.9 3.4c-2.9.3-5.9-.2-8.5-1.6-2.6-1.4-4.7-3.4-6.2-6-1.4-2.6-2-5.5-1.8-8.4.3-2.9 1.4-5.7 3.2-8s4.3-4 7.1-4.9 5.8-.9 8.6-.1c1.9.5 3.6 1.4 5.1 2.7 1.5 1.2 2.8 2.7 3.7 4.4s1.5 3.6 1.7 5.5c.4 2 .3 3.9-.3 5.8z"/><path class="st1" d="M418.3 537.6c-.9 3.1-2.7 5.8-5.1 7.9-2.4 2.1-5.4 3.3-8.6 3.7-3.2.4-6.4-.2-9.2-1.7s-5.2-3.8-6.7-6.6-2.2-6-1.9-9.2 1.5-6.2 3.5-8.7 4.7-4.3 7.7-5.3 6.3-1 9.4-.1c4.1 1.2 7.6 4 9.6 7.7 2 3.8 2.5 8.2 1.3 12.3z"/><path class="st1" d="M412.9 560.9c-1 3.3-2.9 6.3-5.5 8.5s-5.9 3.6-9.3 4c-3.4.4-6.9-.3-10-1.9-3.1-1.6-5.6-4.1-7.3-7.1s-2.4-6.5-2.1-9.9c.3-3.4 1.6-6.7 3.8-9.4s5.1-4.7 8.4-5.7c3.3-1 6.8-1.1 10.2-.1 4.4 1.3 8.2 4.3 10.4 8.4 2.2 4 2.7 8.8 1.4 13.2z"/><path class="st1" d="M407.6 584.2c-1 3.6-3.1 6.8-6 9.1-2.8 2.4-6.3 3.9-10 4.3-3.7.4-7.4-.3-10.7-2s-6-4.4-7.8-7.6c-1.8-3.3-2.6-7-2.3-10.7.3-3.7 1.7-7.2 4.1-10.1 2.3-2.9 5.5-5.1 9-6.2 3.5-1.1 7.3-1.2 10.9-.1 4.8 1.4 8.8 4.6 11.2 9 2.4 4.4 2.9 9.5 1.6 14.3zM491.2 359.7c-.3 1.1-.9 2-1.8 2.8-.9.7-1.9 1.2-3 1.3s-2.2-.1-3.2-.6-1.8-1.3-2.3-2.3-.8-2.1-.7-3.2.5-2.2 1.2-3c.7-.9 1.7-1.5 2.7-1.8 1.1-.3 2.2-.3 3.3 0 1.4.4 2.6 1.4 3.3 2.7.7 1.2.9 2.7.5 4.1zM485.8 383.1c-.4 1.3-1.1 2.5-2.2 3.3-1 .9-2.3 1.4-3.7 1.6-1.4.1-2.7-.1-3.9-.7s-2.2-1.6-2.9-2.8c-.7-1.2-.9-2.6-.8-3.9.1-1.4.6-2.6 1.5-3.7.8-1.1 2-1.8 3.3-2.3 1.3-.4 2.7-.4 4-.1.9.3 1.7.7 2.4 1.2.7.6 1.3 1.3 1.7 2.1.4.8.7 1.7.8 2.6.1.9.1 1.8-.2 2.7zM480.4 406.4c-.5 1.6-1.4 3-2.6 4s-2.8 1.7-4.4 1.9c-1.6.2-3.2-.1-4.7-.9-1.4-.7-2.6-1.9-3.4-3.3s-1.1-3-1-4.7c.1-1.6.8-3.2 1.8-4.4 1-1.3 2.4-2.2 3.9-2.7s3.2-.5 4.8-.1c1 .3 2 .8 2.9 1.5.8.7 1.5 1.5 2.1 2.5.5.9.8 2 1 3.1 0 1-.1 2-.4 3.1zM475 429.7c-.5 1.8-1.6 3.4-3 4.6-1.4 1.2-3.2 2-5.1 2.2-1.9.2-3.8-.1-5.4-1-1.7-.9-3.1-2.2-4-3.9-.9-1.7-1.3-3.5-1.2-5.4.2-1.9.9-3.7 2.1-5.1 1.2-1.5 2.8-2.6 4.6-3.1 1.8-.6 3.7-.6 5.5-.1 2.4.7 4.5 2.3 5.7 4.6 1.2 2.1 1.5 4.8.8 7.2zM469.7 453c-.6 2.1-1.8 3.9-3.4 5.3-1.6 1.4-3.7 2.3-5.8 2.5s-4.3-.2-6.2-1.1c-1.9-1-3.5-2.5-4.5-4.4s-1.5-4-1.3-6.2c.2-2.1 1-4.2 2.3-5.9s3.1-2.9 5.2-3.6c2-.7 4.2-.7 6.3-.1 1.4.4 2.7 1 3.8 1.9s2.1 2 2.8 3.2c.7 1.3 1.1 2.6 1.3 4.1.1 1.5-.1 2.9-.5 4.3zM464.3 476.3c-.7 2.3-2 4.4-3.9 5.9-1.8 1.5-4.1 2.5-6.5 2.8s-4.8-.2-6.9-1.3c-2.1-1.1-3.9-2.8-5.1-4.9-1.2-2.1-1.7-4.5-1.5-6.9s1.1-4.7 2.6-6.6c1.5-1.9 3.5-3.3 5.8-4s4.8-.8 7.1-.1c3.1.9 5.7 3 7.3 5.8s2 6.2 1.1 9.3z"/><path class="st1" d="M446.7 509.3c7.4-.4 13.1-6.8 12.7-14.3-.4-7.4-6.8-13.1-14.3-12.7-7.4.4-13.1 6.8-12.7 14.3s6.8 13.2 14.3 12.7z"/><path class="st1" d="M453.5 522.9c-.8 2.8-2.4 5.3-4.7 7.2-2.2 1.9-5 3.1-7.9 3.4s-5.9-.2-8.5-1.6c-2.6-1.3-4.8-3.4-6.2-6s-2-5.5-1.8-8.4c.3-2.9 1.4-5.7 3.2-8s4.3-4 7.1-4.9 5.8-.9 8.6-.1c3.8 1.1 7 3.6 8.9 7.1 1.9 3.5 2.4 7.5 1.3 11.3z"/><path class="st1" d="M440.5 555.8c7.8-4.3 10.6-14.2 6.3-22s-14.2-10.6-22-6.3-10.6 14.2-6.3 22 14.2 10.6 22 6.3z"/><path class="st1" d="M442.7 569.5c-1 3.3-2.9 6.3-5.5 8.5s-5.9 3.6-9.3 4c-3.4.4-6.9-.3-10-1.9-3.1-1.6-5.6-4.1-7.3-7.1s-2.4-6.5-2.1-9.9c.3-3.4 1.6-6.7 3.8-9.4s5.1-4.7 8.4-5.7 6.8-1.1 10.1-.1c4.4 1.3 8.2 4.3 10.4 8.4 2.3 4 2.8 8.8 1.5 13.2z"/><path class="st1" d="M428.2 604.2c9.1-4.9 12.6-16.3 7.7-25.5-4.9-9.1-16.3-12.6-25.5-7.7-9.1 4.9-12.6 16.3-7.7 25.5s16.3 12.6 25.5 7.7zM521 368.4c-.3 1.1-.9 2-1.8 2.8-.9.7-1.9 1.2-3 1.3-1.1.1-2.2-.1-3.2-.6s-1.8-1.3-2.3-2.3-.8-2.1-.7-3.2.5-2.2 1.2-3c.7-.9 1.7-1.5 2.7-1.8 1.1-.3 2.2-.3 3.3 0 1.4.4 2.6 1.4 3.3 2.7.7 1.2.9 2.7.5 4.1zM515.6 391.7c-.4 1.3-1.1 2.5-2.2 3.4-1 .9-2.3 1.4-3.7 1.6s-2.7-.1-3.9-.7-2.2-1.6-2.9-2.8c-.7-1.2-.9-2.6-.8-3.9.1-1.4.6-2.7 1.5-3.7.9-1.1 2-1.9 3.3-2.3s2.7-.4 4-.1c.9.3 1.7.7 2.4 1.2.7.6 1.3 1.3 1.7 2.1.4.8.7 1.7.8 2.6.1.8 0 1.7-.2 2.6zM510.2 415c-.5 1.6-1.4 3-2.6 4-1.2 1-2.8 1.7-4.4 1.9-1.6.2-3.2-.1-4.7-.9-1.4-.7-2.6-1.9-3.4-3.3-.8-1.4-1.1-3-1-4.7.1-1.6.8-3.2 1.8-4.4 1-1.3 2.4-2.2 3.9-2.7s3.2-.5 4.8-.1c1 .3 2 .8 2.8 1.5s1.5 1.5 2.1 2.5c.5.9.9 2 1 3.1.1 1 0 2.1-.3 3.1zM504.8 438.3c-.5 1.8-1.6 3.4-3 4.6-1.4 1.2-3.2 2-5.1 2.2s-3.8-.1-5.4-1c-1.7-.9-3.1-2.2-4-3.9s-1.3-3.5-1.1-5.4c.2-1.9.9-3.7 2.1-5.1 1.2-1.5 2.8-2.6 4.6-3.1 1.8-.6 3.7-.6 5.5-.1 1.2.3 2.3.9 3.3 1.7 1 .8 1.8 1.8 2.4 2.8.6 1.1 1 2.3 1.1 3.5.1 1.4 0 2.6-.4 3.8zM499.4 461.6c-.6 2.1-1.8 3.9-3.4 5.3-1.6 1.4-3.7 2.3-5.8 2.5s-4.3-.2-6.2-1.1c-1.9-1-3.5-2.5-4.5-4.4s-1.5-4-1.3-6.2c.2-2.1 1-4.2 2.3-5.9s3.1-2.9 5.2-3.6c2-.7 4.2-.7 6.3-.1 1.4.4 2.7 1 3.8 1.9s2.1 2 2.8 3.2c.7 1.3 1.1 2.6 1.3 4.1.1 1.5-.1 3-.5 4.3zM494 485c-.7 2.3-2 4.4-3.9 5.9-1.8 1.6-4.1 2.5-6.5 2.8s-4.8-.2-6.9-1.3c-2.1-1.1-3.9-2.8-5.1-4.9-1.2-2.1-1.7-4.5-1.5-6.9s1.1-4.7 2.6-6.6c1.5-1.9 3.5-3.3 5.8-4s4.8-.8 7.1-.1c3.1.9 5.7 3 7.3 5.8 1.7 2.8 2 6.2 1.1 9.3z"/><path class="st1" d="M482.2 516.3c6.5-3.6 9-11.8 5.4-18.3s-11.8-9-18.3-5.4-9 11.8-5.4 18.3c3.5 6.6 11.7 9 18.3 5.4z"/><path class="st1" d="M483.3 531.6c-.8 2.8-2.5 5.3-4.7 7.2s-5 3.1-7.9 3.4c-2.9.3-5.9-.2-8.5-1.6-2.6-1.4-4.8-3.4-6.2-6s-2-5.5-1.8-8.4c.3-2.9 1.4-5.7 3.2-8s4.3-4 7.1-4.9 5.8-.9 8.6-.1c3.8 1.1 7 3.7 8.9 7.1 1.9 3.4 2.4 7.5 1.3 11.3z"/><path class="st1" d="M465.3 566.3c8.8-1.6 14.6-10.1 13-18.8-1.6-8.8-10.1-14.6-18.8-13-8.8 1.6-14.6 10.1-13 18.8 1.6 8.8 10 14.6 18.8 13z"/><path class="st1" d="M472.5 578.2c-1 3.3-2.9 6.3-5.5 8.5s-5.9 3.6-9.3 4c-3.4.4-6.9-.3-10-1.9-3.1-1.6-5.6-4.1-7.3-7.1s-2.4-6.5-2.1-9.9c.3-3.4 1.6-6.7 3.8-9.4s5.1-4.7 8.4-5.7c3.3-1 6.8-1.1 10.1-.1 2.2.6 4.3 1.7 6.1 3.1 1.8 1.4 3.3 3.2 4.4 5.2 1.1 2 1.8 4.2 2.1 6.5s-.1 4.6-.7 6.8z"/><path class="st1" d="M464.2 607.4c6.1-8.4 4.3-20.1-4.1-26.3-8.4-6.1-20.1-4.3-26.3 4.1-6.1 8.4-4.3 20.1 4.1 26.3 8.4 6 20.2 4.2 26.3-4.1zM550.8 377c-.3 1.1-.9 2-1.8 2.7-.9.7-1.9 1.2-3 1.3-1.1.1-2.2-.1-3.2-.6s-1.8-1.3-2.3-2.3-.8-2.1-.7-3.2.5-2.2 1.2-3c.7-.9 1.7-1.5 2.7-1.8 1.1-.3 2.2-.3 3.3 0 1.4.4 2.6 1.4 3.3 2.7.7 1.3.9 2.8.5 4.2zM545.4 400.4c-.4 1.3-1.1 2.5-2.2 3.4s-2.3 1.4-3.7 1.6c-1.4.1-2.7-.1-3.9-.7s-2.2-1.6-2.9-2.8c-.7-1.2-.9-2.6-.8-3.9.1-1.4.6-2.7 1.5-3.7.9-1.1 2-1.9 3.3-2.3s2.7-.4 4 0c1.8.5 3.2 1.7 4.1 3.3.9 1.4 1.1 3.3.6 5.1zM540 423.6c-.5 1.6-1.4 2.9-2.6 4-1.2 1-2.8 1.7-4.4 1.9-1.6.2-3.2-.1-4.7-.9-1.4-.7-2.6-1.9-3.4-3.3-.8-1.4-1.1-3-1-4.7.1-1.6.8-3.2 1.8-4.4 1-1.3 2.4-2.2 3.9-2.7s3.2-.5 4.8-.1c1 .3 2 .8 2.8 1.5s1.5 1.5 2.1 2.5c.5.9.9 2 1 3.1.1 1 0 2.1-.3 3.1zM534.6 447c-.5 1.8-1.6 3.4-3 4.6-1.4 1.2-3.2 2-5.1 2.2-1.9.2-3.8-.1-5.4-1-1.7-.9-3.1-2.2-4-3.9s-1.3-3.5-1.1-5.4.9-3.7 2.1-5.1c1.2-1.5 2.8-2.6 4.6-3.1 1.8-.6 3.7-.6 5.5-.1 2.4.7 4.5 2.3 5.7 4.6 1.1 2.1 1.4 4.7.7 7.2zM518.8 478.1c6 0 10.9-4.9 10.9-10.9s-4.9-10.9-10.9-10.9-10.9 4.9-10.9 10.9c0 6.1 4.9 10.9 10.9 10.9zM523.8 493.6c-.7 2.3-2 4.4-3.9 5.9-1.8 1.5-4.1 2.5-6.5 2.8s-4.8-.2-6.9-1.3c-2.1-1.1-3.9-2.8-5.1-4.9-1.2-2.1-1.7-4.5-1.5-6.9s1.1-4.7 2.6-6.6c1.5-1.9 3.5-3.3 5.8-4s4.8-.8 7.1-.1c3.1.9 5.7 3 7.3 5.8 1.7 2.9 2 6.2 1.1 9.3z"/><path class="st1" d="M518.4 516.9c-.7 2.6-2.2 4.9-4.3 6.6-2 1.7-4.6 2.8-7.2 3.1-2.7.3-5.3-.2-7.7-1.4s-4.3-3.1-5.6-5.5c-1.3-2.3-1.8-5-1.6-7.7s1.2-5.2 2.9-7.3 3.9-3.6 6.5-4.4c2.5-.8 5.3-.8 7.8-.1 1.7.5 3.3 1.3 4.7 2.4 1.4 1.1 2.5 2.5 3.4 4 .9 1.6 1.4 3.3 1.6 5 .1 1.8 0 3.6-.5 5.3z"/><path class="st1" d="M513.1 540.2c-.8 2.8-2.5 5.3-4.7 7.2s-5 3.1-7.9 3.4c-2.9.3-5.9-.2-8.5-1.6-2.6-1.3-4.7-3.4-6.2-6-1.4-2.6-2-5.5-1.8-8.4.3-2.9 1.4-5.7 3.2-8s4.3-4 7.1-4.9 5.8-.9 8.6-.1c1.9.5 3.6 1.4 5.1 2.7 1.5 1.2 2.8 2.7 3.7 4.4s1.5 3.6 1.7 5.5c.4 2 .2 3.9-.3 5.8z"/><path class="st1" d="M507.7 563.5c-.9 3.1-2.7 5.8-5.1 7.9-2.4 2.1-5.4 3.3-8.6 3.7-3.2.4-6.4-.2-9.2-1.7s-5.2-3.8-6.7-6.6-2.2-6-1.9-9.2 1.5-6.2 3.5-8.7 4.7-4.3 7.7-5.3 6.3-1 9.4-.1c2 .6 3.9 1.6 5.6 2.9 1.7 1.3 3 3 4.1 4.8 1 1.9 1.7 3.9 1.9 6 .1 2.2-.1 4.3-.7 6.3z"/><path class="st1" d="M502.8 584.6c1.4-9.5-5.1-18.4-14.7-19.9-9.5-1.4-18.4 5.1-19.9 14.7-1.4 9.5 5.1 18.4 14.7 19.9 9.6 1.4 18.5-5.2 19.9-14.7z"/><path class="st1" d="M496.9 610.1c-1 3.6-3.1 6.8-6 9.1-2.8 2.4-6.3 3.9-10 4.3-3.7.4-7.4-.3-10.7-2s-6-4.4-7.8-7.6c-1.8-3.3-2.6-7-2.3-10.7s1.7-7.2 4.1-10.1c2.3-2.9 5.5-5.1 9-6.2 3.5-1.1 7.3-1.2 10.9-.1 2.4.7 4.6 1.8 6.5 3.4 1.9 1.5 3.5 3.4 4.7 5.6 1.2 2.2 1.9 4.5 2.2 7 .3 2.5.1 5-.6 7.3zM580.5 385.7c-.3 1.1-.9 2-1.8 2.7s-1.9 1.2-3 1.3c-1.1.1-2.2-.1-3.2-.6s-1.8-1.3-2.3-2.3-.8-2.1-.7-3.2.5-2.2 1.2-3c.7-.9 1.7-1.5 2.7-1.8 1.1-.3 2.2-.3 3.3 0 1.4.4 2.6 1.4 3.3 2.7.8 1.2.9 2.8.5 4.2zM575.2 409c-.4 1.3-1.1 2.5-2.2 3.3-1 .9-2.3 1.4-3.7 1.6-1.4.1-2.7-.1-3.9-.7s-2.2-1.6-2.9-2.8c-.7-1.2-.9-2.6-.8-3.9.1-1.4.6-2.6 1.5-3.7s2-1.8 3.3-2.3c1.3-.4 2.7-.4 4-.1.9.3 1.7.7 2.4 1.2.7.6 1.3 1.3 1.7 2.1.4.8.7 1.7.8 2.6.1.9 0 1.8-.2 2.7zM569.8 432.3c-.5 1.6-1.4 3-2.6 4-1.2 1-2.8 1.7-4.4 1.9-1.6.2-3.2-.1-4.7-.9-1.4-.7-2.6-1.9-3.4-3.3-.8-1.4-1.1-3-1-4.7.1-1.6.8-3.2 1.8-4.4 1-1.3 2.4-2.2 3.9-2.7s3.2-.5 4.8-.1c1 .3 2 .8 2.9 1.5.8.7 1.5 1.5 2.1 2.5.5.9.9 2 1 3.1 0 1-.1 2.1-.4 3.1zM564.4 455.6c-.5 1.8-1.6 3.4-3 4.6s-3.2 2-5.1 2.2c-1.9.2-3.8-.1-5.4-1-1.7-.9-3.1-2.2-4-3.9s-1.3-3.5-1.1-5.4.9-3.7 2.1-5.1c1.2-1.5 2.8-2.6 4.6-3.1 1.8-.6 3.7-.6 5.5-.1 1.2.3 2.3.9 3.3 1.7s1.8 1.8 2.4 2.9c.6 1.1 1 2.3 1.1 3.5 0 1.2-.1 2.5-.4 3.7zM559 478.9c-.6 2.1-1.8 3.9-3.4 5.3-1.6 1.4-3.7 2.3-5.8 2.5s-4.3-.1-6.2-1.1-3.5-2.5-4.5-4.4-1.5-4-1.3-6.2 1-4.2 2.3-5.9 3.1-2.9 5.2-3.6c2-.7 4.2-.7 6.3-.1 1.4.4 2.7 1 3.8 1.9s2.1 2 2.8 3.2 1.1 2.6 1.3 4c0 1.6-.1 3-.5 4.4zM553.6 502.2c-.7 2.3-2 4.4-3.9 5.9-1.8 1.6-4.1 2.5-6.5 2.8s-4.8-.2-7-1.3c-2.1-1.1-3.9-2.8-5.1-4.9-1.2-2.1-1.7-4.5-1.5-6.9s1.1-4.7 2.6-6.6c1.5-1.9 3.5-3.3 5.8-4s4.8-.8 7.1-.1c3.1.9 5.7 3 7.3 5.8 1.7 2.9 2.1 6.2 1.2 9.3z"/><path class="st1" d="M546.5 529.2c4.1-6.2 2.4-14.6-3.8-18.7-6.2-4.1-14.6-2.4-18.7 3.8-4.1 6.2-2.4 14.6 3.8 18.7 6.2 4.1 14.6 2.4 18.7-3.8z"/><path class="st1" d="M542.8 548.8c-.8 2.8-2.4 5.3-4.7 7.2-2.2 1.9-5 3.1-7.9 3.4-2.9.3-5.9-.2-8.5-1.6-2.6-1.3-4.8-3.4-6.2-6s-2-5.5-1.8-8.4c.3-2.9 1.4-5.7 3.2-8s4.3-4 7.1-4.9 5.8-.9 8.6-.1c3.8 1.1 7 3.6 8.9 7.1 2 3.5 2.4 7.6 1.3 11.3z"/><path class="st1" d="M537.5 572.2c-.9 3.1-2.7 5.8-5.1 7.9-2.4 2.1-5.4 3.3-8.6 3.7-3.2.4-6.4-.2-9.2-1.7s-5.2-3.8-6.7-6.6-2.2-6-1.9-9.2 1.5-6.2 3.5-8.7 4.7-4.3 7.7-5.3 6.3-1 9.4-.1c2 .6 3.9 1.6 5.6 2.9 1.7 1.3 3 3 4.1 4.8 1 1.9 1.7 3.9 1.9 6 0 2.1-.1 4.2-.7 6.3z"/><path class="st1" d="M532.1 595.5c-1 3.3-2.9 6.3-5.6 8.5-2.7 2.2-5.9 3.6-9.3 4-3.4.4-6.9-.3-10-1.9-3.1-1.6-5.6-4.1-7.3-7.1s-2.4-6.5-2.1-9.9c.3-3.4 1.6-6.7 3.8-9.4s5.1-4.7 8.4-5.7c3.3-1 6.8-1.1 10.2-.1 4.4 1.3 8.2 4.3 10.4 8.4 2.2 4 2.8 8.7 1.5 13.2z"/><path class="st1" d="M517.7 630c9.1-5 12.3-16.5 7.3-25.6s-16.5-12.3-25.6-7.3-12.3 16.5-7.3 25.6c5.1 9.1 16.6 12.4 25.6 7.3zM610.3 394.3c-.3 1.1-.9 2-1.8 2.7-.9.7-1.9 1.2-3 1.3-1.1.1-2.2-.1-3.2-.6s-1.8-1.3-2.3-2.3-.8-2.1-.7-3.2.5-2.2 1.2-3c.7-.9 1.7-1.5 2.7-1.8 1.1-.3 2.2-.3 3.3 0 1.4.4 2.6 1.4 3.3 2.7.8 1.3.9 2.8.5 4.2zM604.9 417.6c-.4 1.3-1.1 2.5-2.2 3.4s-2.3 1.4-3.7 1.6-2.7-.1-3.9-.7-2.2-1.6-2.9-2.8c-.7-1.2-1-2.6-.8-3.9.1-1.4.6-2.7 1.5-3.7.9-1.1 2-1.9 3.3-2.3s2.7-.4 4-.1c1.8.5 3.2 1.7 4.1 3.3.9 1.6 1.2 3.5.6 5.2zM599.6 440.9c-.5 1.6-1.4 2.9-2.6 4-1.2 1-2.8 1.7-4.4 1.9-1.6.2-3.2-.1-4.7-.9-1.4-.7-2.6-1.9-3.4-3.3-.8-1.4-1.1-3-1-4.7.1-1.6.8-3.2 1.8-4.4 1-1.3 2.4-2.2 3.9-2.7s3.2-.5 4.8-.1c1 .3 2 .8 2.8 1.5s1.5 1.5 2.1 2.5c.5.9.9 2 1 3.1.1 1 0 2.1-.3 3.1zM594.2 464.2c-.5 1.8-1.6 3.4-3 4.6-1.4 1.2-3.2 2-5.1 2.2s-3.8-.1-5.4-1c-1.7-.9-3.1-2.2-4-3.9s-1.3-3.5-1.1-5.4.9-3.7 2.1-5.1c1.2-1.5 2.8-2.6 4.6-3.1 1.8-.6 3.7-.6 5.5-.1 2.4.7 4.5 2.3 5.7 4.6 1.1 2.2 1.4 4.8.7 7.2zM588.8 487.6c-.6 2.1-1.8 3.9-3.4 5.3-1.6 1.4-3.6 2.3-5.8 2.5-2.1.2-4.3-.2-6.2-1.1-1.9-1-3.5-2.5-4.5-4.4s-1.5-4-1.3-6.1 1-4.2 2.3-5.9 3.1-2.9 5.2-3.6c2-.7 4.2-.7 6.3-.1 1.4.4 2.7 1 3.8 1.9s2.1 2 2.8 3.2 1.1 2.6 1.3 4c0 1.4-.1 2.9-.5 4.3zM583.4 510.9c-.7 2.3-2 4.4-3.9 5.9-1.8 1.5-4.1 2.5-6.5 2.8s-4.8-.2-6.9-1.3c-2.1-1.1-3.9-2.8-5.1-4.9-1.2-2.1-1.7-4.5-1.5-6.9s1.1-4.7 2.6-6.6c1.5-1.9 3.5-3.3 5.8-4s4.8-.8 7.1-.1c3.1.9 5.7 3 7.3 5.8 1.6 2.8 2 6.2 1.1 9.3z"/><path class="st1" d="M565 543.9c7.5 0 13.5-6 13.5-13.5s-6-13.5-13.5-13.5-13.5 6-13.5 13.5 6.1 13.5 13.5 13.5z"/><path class="st1" d="M572.6 557.5c-.8 2.8-2.5 5.3-4.7 7.2s-5 3.1-7.9 3.4c-2.9.3-5.9-.2-8.5-1.6-2.6-1.4-4.8-3.4-6.2-6s-2-5.5-1.8-8.4c.3-2.9 1.4-5.7 3.2-8s4.3-4 7.1-4.9 5.8-.9 8.6-.1c3.8 1.1 7 3.7 8.9 7.1 2 3.5 2.4 7.5 1.3 11.3z"/><path class="st1" d="M567.2 580.8c-.9 3.1-2.7 5.8-5.1 7.9-2.4 2.1-5.4 3.3-8.6 3.7-3.2.3-6.4-.2-9.2-1.7s-5.2-3.7-6.7-6.5-2.2-6-1.9-9.2 1.5-6.2 3.5-8.7 4.7-4.3 7.7-5.3 6.3-1 9.4-.1c2 .6 3.9 1.6 5.6 2.9 1.7 1.3 3 3 4.1 4.8 1 1.9 1.7 3.9 1.9 6 .1 2-.1 4.1-.7 6.2z"/><path class="st1" d="M561.9 604.1c-1 3.3-2.9 6.3-5.5 8.5s-5.9 3.6-9.3 4c-3.4.4-6.9-.3-10-1.9-3.1-1.6-5.6-4.1-7.3-7.1s-2.4-6.5-2.1-9.9c.3-3.4 1.6-6.7 3.8-9.4s5.1-4.7 8.4-5.7c3.3-1 6.8-1.1 10.1-.1 4.5 1.3 8.2 4.3 10.4 8.4 2.2 4 2.7 8.8 1.5 13.2z"/><path class="st1" d="M556.5 627.5c-1 3.5-3.1 6.7-5.9 9.1-2.8 2.4-6.3 3.8-10 4.2s-7.4-.3-10.7-2-6-4.3-7.8-7.6c-1.8-3.2-2.6-6.9-2.2-10.6.3-3.7 1.7-7.2 4-10.1 2.3-2.9 5.4-5 8.9-6.2 3.5-1.1 7.3-1.2 10.8-.2 2.4.7 4.6 1.8 6.5 3.4 1.9 1.5 3.5 3.4 4.7 5.6 1.2 2.2 1.9 4.5 2.2 7 .4 2.6.2 5.1-.5 7.4zM640.1 403c-.3 1.1-.9 2-1.8 2.7-.9.7-1.9 1.2-3 1.3-1.1.1-2.2-.1-3.2-.6s-1.8-1.3-2.3-2.3-.8-2.1-.7-3.2.5-2.2 1.2-3c.7-.9 1.7-1.5 2.7-1.8 1.1-.3 2.2-.3 3.3 0 1.4.4 2.6 1.4 3.3 2.7s.9 2.7.5 4.2zM634.7 426.3c-.4 1.3-1.1 2.5-2.2 3.4-1 .9-2.3 1.4-3.7 1.6s-2.7-.1-3.9-.7-2.2-1.6-2.9-2.8-.9-2.6-.8-3.9c.1-1.4.6-2.7 1.5-3.7.9-1.1 2-1.9 3.3-2.3s2.7-.4 4 0c1.8.5 3.2 1.7 4.1 3.3.9 1.4 1.1 3.3.6 5.1zM629.3 449.6c-.5 1.6-1.4 3-2.6 4-1.2 1-2.8 1.7-4.4 1.9-1.6.2-3.2-.1-4.7-.9-1.4-.7-2.6-1.9-3.4-3.3s-1.1-3-1-4.7c.1-1.6.8-3.2 1.8-4.4s2.4-2.2 3.9-2.7 3.2-.5 4.8-.1c1 .3 2 .8 2.8 1.5s1.5 1.5 2.1 2.5c.5.9.9 2 1 3.1.1 1 0 2-.3 3.1zM624 472.9c-.5 1.8-1.6 3.4-3 4.6-1.4 1.2-3.2 2-5.1 2.2-1.9.2-3.8-.2-5.4-1-1.7-.9-3-2.2-3.9-3.9s-1.3-3.5-1.1-5.4.9-3.7 2.1-5.1c1.2-1.5 2.8-2.6 4.6-3.1 1.8-.6 3.7-.6 5.5 0 2.4.7 4.5 2.4 5.7 4.6 1 2.1 1.3 4.7.6 7.1zM618.2 497.2c2.2-5.6-.5-11.9-6-14.1-5.6-2.2-11.9.5-14.1 6-2.2 5.6.5 11.9 6 14.1 5.6 2.3 11.9-.4 14.1-6zM613.2 519.5c-.7 2.3-2 4.4-3.9 5.9-1.8 1.5-4.1 2.5-6.5 2.8s-4.8-.2-6.9-1.3c-2.1-1.1-3.9-2.8-5.1-4.9-1.2-2.1-1.7-4.5-1.5-6.9s1.1-4.7 2.6-6.6c1.5-1.9 3.5-3.3 5.8-4s4.8-.8 7.1-.1c3.1.9 5.7 3 7.3 5.8s2 6.2 1.1 9.3z"/><path class="st1" d="M607.8 542.8c-.8 2.6-2.3 4.8-4.3 6.5s-4.6 2.8-7.2 3c-2.7.3-5.3-.2-7.7-1.5-2.4-1.2-4.3-3.1-5.6-5.5-1.3-2.3-1.8-5-1.6-7.7s1.2-5.2 2.9-7.3 3.9-3.6 6.5-4.4c2.5-.8 5.3-.8 7.8-.1 1.7.5 3.3 1.3 4.7 2.4 1.4 1.1 2.6 2.5 3.4 4.1.9 1.6 1.4 3.3 1.6 5.1.2 1.9 0 3.7-.5 5.4z"/><path class="st1" d="M602.4 566.1c-.8 2.8-2.5 5.3-4.7 7.2s-5 3.1-7.9 3.4c-2.9.3-5.9-.2-8.5-1.6-2.6-1.4-4.7-3.4-6.2-6-1.4-2.6-2-5.5-1.8-8.4.3-2.9 1.4-5.7 3.2-8s4.3-4 7.1-4.9 5.8-.9 8.6-.1c1.9.5 3.6 1.4 5.1 2.7 1.5 1.2 2.8 2.7 3.7 4.4s1.5 3.6 1.7 5.5c.4 2 .2 4-.3 5.8z"/><path class="st1" d="M591.7 597.6c6.9-5.6 8-15.8 2.4-22.7s-15.8-8-22.7-2.4-8 15.8-2.4 22.7 15.7 8 22.7 2.4z"/><path class="st1" d="M591.6 612.8c-1 3.3-2.9 6.3-5.5 8.5s-5.9 3.6-9.3 4c-3.4.4-6.9-.3-10-1.9-3.1-1.6-5.6-4.1-7.3-7.1s-2.4-6.5-2.1-9.9c.3-3.4 1.6-6.7 3.8-9.4s5.1-4.7 8.4-5.7c3.3-1 6.8-1.1 10.1-.1 4.4 1.3 8.2 4.3 10.4 8.4 2.3 3.9 2.8 8.7 1.5 13.2z"/><path class="st1" d="M577.1 647.4c9.1-4.9 12.6-16.3 7.7-25.5-4.9-9.1-16.3-12.6-25.5-7.7-9.1 4.9-12.6 16.3-7.7 25.5 4.9 9.2 16.3 12.6 25.5 7.7z"/><path class="st6" d="M334.9 548.5c20.3-5.3 63.4-8.8 135.1 20.7l.3-31.4L339.9 524l-5 24.5z"/><path d="m456.9 537.1-103.1-10.9c-.1 0-.3-.1-.4-.1-.1-.1-.2-.1-.3-.2-.1-.1-.1-.2-.2-.3 0-.1-.1-.3 0-.4 0-.1.1-.3.1-.4.1-.1.1-.2.2-.3s.2-.1.3-.2h.4l103.2 10.9c.1 0 .3 0 .4.1.1.1.2.1.3.2.1.1.1.2.2.3 0 .1.1.3 0 .4 0 .1-.1.3-.1.4l-.3.3c-.1.1-.2.1-.4.2h-.3z" style="fill:#7b7b8f"/><path class="st9" d="M338.1 363.1s.3-11 3.9-17.1 12.7-12.1 12.7-12.1l7.6 23.6-24.2 5.6z"/><path class="st10" d="M356.2 339.8c-3.4 2.2-6.5 4.9-9 8.1-3.2 9.9 13 3.7 13 3.7l-4-11.8z"/><path class="st4" d="M344.9 326.1s55 136.1 59.9 137.6c4.8 1.5 52.4-19.7 54.2-24.1 1.9-4.4-42.1-131.7-43-133.8s-45.4 8.6-71.1 20.3z"/><path class="st6" d="m450.1 407.5-23.4 4.2-35.9 24c7.1 16.2 12.6 27.7 14 28.1 1.4.4 5.3-.7 10.6-2.7 14.3-13.3 32.8-34.3 38.7-41.2-1.2-3.7-2.5-7.9-4-12.4zM415.9 305.9c-1-2.1-45.2 8.5-71 20.2 0 0 3.7 9.1 9.2 22.4 17.7-6.1 46.9-18.1 67.5-26.6-3.3-9.4-5.5-15.6-5.7-16z"/><path class="st4" d="M261.2 264.2s-10.1 6.3-10 14.5c.1 8.3 23.6 58 26.3 60.1 2.7 2.1 16.5-1 16.5-1l-32.8-73.6z"/><path class="st5" d="M281.7 339.6c4.2-.2 8.3-.8 12.4-1.7l-32.9-73.7c-1.8 1.2-3.5 2.6-5 4.1l25.5 71.3z"/><path class="st4" d="M600.7 138.1s19.8-6.2 25.3-1.9c5.6 4.3 24.8 61.5 24.7 65.1s-21 15.5-21 15.5l-29-78.7zM612.1 173.4c-8.6-29.4-64.4-104.7-64.4-104.7C520.8 155.2 415 196.4 415 196.4l36.3 93s109.6-29.4 182.5 24.3c0 .1 3.5-54-21.7-140.3z"/><path class="st5" d="M617.6 199.9s-8 53.4-34.8 49.7c-26.7-3.8-142.2 12.4-142.2 12.4l.3.8 10.4 26.6s104.2-27.9 176.9 20.6c-.5-18.5-10.6-110.1-10.6-110.1z"/><path class="st11" d="M633.5 326.7c-2.5-.1-4.8-1.1-6.5-2.9s-2.6-4.2-2.6-6.7c2.2-88.4-21.7-151-42.2-187.9-22.2-40-45.3-59.4-45.5-59.6-1.7-1.6-2.7-3.9-2.9-6.2-.1-2.4.6-4.7 2.1-6.5s3.6-3 6-3.3c2.3-.3 4.7.3 6.6 1.6 1 .9 25.5 21.3 49.4 64 21.8 39.1 47.4 105.2 45.1 198.4-.1 2.5-1.1 4.8-2.9 6.5-1.7 1.7-4.1 2.6-6.6 2.6z"/><path class="st12" d="M633.5 326.7c2.5.1 4.9-.9 6.7-2.6s2.8-4 2.9-6.5c.7-25.4-.8-50.8-4.5-75.9-2.1 3.2-4.4 5.3-6.9 5.6-4.3.4-8.5-2.6-12.1-6.7 4 25.3 5.6 50.9 4.9 76.6 0 2.5.9 4.8 2.6 6.6 1.6 1.8 4 2.8 6.4 2.9z"/><path class="st4" d="M565.1 82.8c-.2 0-.4-.1-.5-.1-.2-.1-.3-.2-.4-.3-3.6-4.4-7.5-8.6-11.6-12.5-.3-.2-.4-.6-.4-1s.1-.7.4-1c.2-.3.6-.4 1-.4s.7.1 1 .4c4.2 4 8.2 8.3 11.9 12.8.1.1.2.3.3.5s.1.3.1.5-.1.3-.2.5-.2.3-.3.4c-.1.1-.3.2-.4.3-.5-.1-.7 0-.9-.1zM627.1 213.3c-.3 0-.6-.1-.8-.3-.2-.2-.4-.5-.4-.7-8.9-40.6-25.6-79.2-49.1-113.4-.2-.3-.3-.6-.2-1 .1-.3.3-.7.6-.9s.6-.3 1-.2c.3.1.7.3.9.6 23.8 34.6 40.6 73.4 49.5 114.4.1.3 0 .7-.2 1s-.5.5-.8.6l-.5-.1z"/><path class="st11" d="M292.8 342.9s-34.3-73.1-34.1-79.8c.2-2.8 1-5.6 2.3-8.1s3.1-4.8 5.3-6.6c2.6-2 142.8-59.4 148.4-58.7 5.7.7 42.8 102.1 42.8 104.2-.1 2-162.8 54.7-164.7 49z"/><path class="st12" d="M279.4 313.7c7.1 15.8 13.4 29.1 13.4 29.1 1.9 5.7 164.6-46.9 164.7-49 0-.7-5-15-11.6-32.6 0 .1-103.9 16.4-166.5 52.5zM301.5 297.1c-.5.2-1.1.3-1.7.3s-1.1-.1-1.7-.4c-.5-.2-1-.6-1.4-1s-.7-.9-.9-1.4L285.1 267c-.2-.5-.3-1.1-.3-1.7s.1-1.1.4-1.7c.2-.5.6-1 1-1.4s.9-.7 1.4-.9c.5-.2 1.1-.3 1.7-.3s1.1.1 1.7.4c.5.2 1 .6 1.4 1s.7.9.9 1.4l10.7 27.6c.2.5.3 1.1.3 1.7s-.1 1.1-.4 1.7-.6 1-1 1.4-.8.7-1.4.9zM319.5 290.6c-.5.2-1.1.3-1.7.3s-1.1-.1-1.7-.4c-.5-.2-1-.6-1.4-1s-.7-.9-.9-1.4l-10.6-27.6c-.2-.5-.3-1.1-.3-1.7s.1-1.1.4-1.7.6-1 1-1.4.9-.7 1.4-.9c.5-.2 1.1-.3 1.7-.3s1.1.1 1.7.4 1 .6 1.4 1 .7.9.9 1.4L322 285c.2.5.3 1.1.3 1.7s-.1 1.1-.4 1.6c-.2.5-.6 1-1 1.4s-.9.7-1.4.9zM337.4 284.1c-.5.2-1.1.3-1.7.3s-1.1-.1-1.7-.4-1-.6-1.4-1-.7-.9-.9-1.4L321 254c-.2-.5-.3-1.1-.3-1.7s.1-1.1.4-1.7c.2-.5.6-1 1-1.4s.9-.7 1.4-.9c.5-.2 1.1-.3 1.7-.3s1.1.1 1.7.4 1 .6 1.4 1 .7.9.9 1.4l10.7 27.6c.2.5.3 1.1.3 1.7s-.1 1.1-.4 1.7c-.2.5-.6 1-1 1.4-.3.4-.8.7-1.4.9z"/><path class="st4" d="M306.2 238.8c-.3 0-.5-.1-.7-.2s-.4-.4-.5-.6-.1-.3-.1-.5 0-.3.1-.5.2-.3.3-.4c.1-.1.3-.2.4-.3.4-.1 38.1-14.4 67.6-25.1.2-.1.3-.1.5-.1s.3.1.5.1c.2.1.3.2.4.3.1.1.2.3.3.4.1.2.1.3.1.5s-.1.3-.1.5c-.1.2-.2.3-.3.4-.1.1-.3.2-.4.3-29.5 10.7-67.2 24.9-67.6 25.1-.2.1-.3.1-.5.1zM390.4 207.8c-.3 0-.5-.1-.8-.2-.2-.2-.4-.4-.5-.6-.1-.3-.1-.7.1-1 .2-.3.4-.6.8-.7 8.6-3 14.4-4.9 17.2-5.6.3-.1.7 0 1 .1.3.2.5.5.6.8s0 .7-.1 1c-.2.3-.5.5-.8.6-2.7.7-8.4 2.6-17 5.6h-.5z"/><path class="st9" d="M233.9 483.1S330 422.9 334.3 411s1.1-42.6 3.9-47.9 39.1-17.7 51.4-29.4c12.3-11.7 29.5-25.9 32.6-25.8s13.8 5.5 16.3 9.7 1.7 15 1.7 15 12.2 5.5 13.1 9.6c.9 4.2-1.4 12.9-1.4 12.9s8.1 7.5 9.5 11.6c1.5 4.1-3.3 10.2-3.4 11.8-.1 1.5 9.5 11.6 1.4 26.3-8.2 14.1-19.8 25.9-33.9 34.2-11.5 6.4-32.8 12.1-36.5 14.6s-42.2 38.6-42.2 38.6l-112.9-9.1z"/><path class="st10" d="M437 397.8c-.2 0-.3 0-.4-.1-.1-.1-.3-.2-.3-.3-.2-.2-.2-.5-.2-.7 0-.3.2-.5.4-.7 4.7-3.5 11.7-12.8 11.8-12.9.2-.2.4-.3.7-.4.3 0 .5 0 .7.2s.3.4.4.7c0 .3 0 .5-.2.7-.3.4-7.3 9.6-12.2 13.3-.3.2-.5.2-.7.2zM437.1 368.1c-.1 0-.3 0-.4-.1-.1-.1-.2-.1-.3-.2s-.2-.2-.2-.3c0-.1-.1-.3-.1-.4s0-.3.1-.4c0-.1.1-.2.2-.3l5.8-5.6c.2-.2.4-.2.7-.2s.5.1.7.3c.2.2.3.4.3.7s-.1.5-.2.7l-5.8 5.6c-.3.1-.6.2-.8.2zM349.6 481.2c-.3 0-.5-.1-.7-.3-.1-.1-.2-.2-.2-.3s-.1-.2-.1-.4 0-.3.1-.4c0-.1.1-.2.2-.3l15.5-14.6c.2-.2.4-.2.7-.2.3 0 .5.1.7.3s.3.4.3.7-.1.5-.2.7L350.4 481c-.3.1-.5.2-.8.2zM372.3 459.8c-.3 0-.5-.1-.7-.3s-.3-.4-.3-.7.1-.5.3-.7l5.3-5c.1-.1.2-.2.3-.2.1-.1.3-.1.4-.1.1 0 .3 0 .4.1.1.1.2.1.3.2.1.1.2.2.2.3s.1.2.1.4c0 .1 0 .3-.1.4s-.1.2-.2.3l-5.3 5c-.1.1-.2.2-.3.2s-.2.1-.4.1z"/><path class="st4" d="M432.7 168.5c-.3 0-.6-.1-.8-.3-.2-.1-.5-.3-.6-.6-.1-.2-.2-.4-.2-.6v-.7l.3-.6c.1-.2.3-.3.5-.4.5-.2 52.4-26.4 90.5-75.6.3-.4.8-.6 1.2-.7.5-.1 1 0 1.4.3.2.1.4.2.5.4l.3.6c0 .2.1.4 0 .7 0 .2-.1.4-.3.6-38.6 49.8-91.2 76.3-91.7 76.5-.2.4-.7.5-1.1.4zM590.6 312l-.4-.1c-48.5-18.6-113.9-12.2-114.5-12.1h-.7l-.6-.3c-.2-.1-.3-.3-.4-.5-.1-.2-.2-.4-.2-.6s0-.5.1-.7l.3-.6c.1-.2.3-.3.5-.4s.4-.2.6-.2c.7 0 66.8-6.5 116.1 12.3.4.2.7.5.9.9s.2.9 0 1.3c-.1.3-.4.6-.7.8s-.6.2-1 .2zM563 320.8h-.4c-25.1-9-54.2-7.7-54.5-7.7-.2 0-.4 0-.7-.1l-.6-.3c-.2-.1-.3-.3-.4-.5-.1-.2-.1-.4-.2-.6 0-.2 0-.4.1-.6l.3-.6c.1-.2.3-.3.5-.4s.4-.1.6-.2c.3 0 30.1-1.3 55.8 7.9l.6.3c.2.1.3.3.4.5.1.2.1.4.2.6 0 .2 0 .4-.1.6-.1.3-.4.6-.7.8-.2.2-.6.3-.9.3zM246.4 259.9c-.3 0-.6-.1-.8-.3-.2-.2-.4-.4-.5-.7-.8-1.9-7.6-18.3-1.1-24.8 5.9-6 71.9-28.6 79.4-31.2.4-.1.9-.1 1.2.1.4.2.7.5.8.9s.1.8-.1 1.2c-.2.4-.5.7-.9.9-29.2 9.9-74.1 26.2-78.1 30.3-4.1 4.2 0 16.6 1.9 21.1.2.4.2.9 0 1.3s-.5.7-.9.9c-.3.3-.6.4-.9.3zM253.9 455.9c-.2 0-.5-.1-.7-.2-.2-.1-.4-.3-.5-.5-.2-.4-.3-.8-.2-1.3.1-.4.3-.8.7-1.1 0 0 6-4 14.3-9.6l.6-.3h.7c.2 0 .4.1.6.2.2.1.3.3.5.5l.3.6v.7c0 .2-.1.4-.2.6-.1.2-.3.3-.5.5-8.4 5.6-14.4 9.7-14.4 9.7-.4.1-.8.2-1.2.2zM283.2 436.1c-.2 0-.5-.1-.7-.2-.2-.1-.4-.3-.5-.5-.2-.4-.3-.8-.3-1.2.1-.4.3-.8.7-1.1 32.7-22.3 37.6-26.7 38.2-27.6.6-1.4 1-12.3 1.3-21 .4-11.2.8-22.8 1.9-26.5.1-.4.4-.8.8-1s.8-.3 1.3-.1c.4.1.8.4 1 .8s.3.8.1 1.3c-1 3.3-1.4 15.2-1.8 25.7-.4 13-.7 20.4-1.6 22.4-.4.9-1.3 2.9-39.3 28.8-.3.1-.7.2-1.1.2zM470.8 416.3c-.2 0-.5-.1-.7-.2s-.4-.3-.5-.4l-.3-.6c-.1-.2-.1-.4 0-.7 0-.2.1-.4.2-.6.1-.2 11.1-19.8 2.1-33.7-.1-.2-.2-.5-.3-.8 0-.3 0-.5.1-.8.2-.6 5.6-14.2-5.6-21.2-.4-.2-.6-.6-.7-1-.1-.4 0-.9.2-1.3s.6-.6 1-.7.9 0 1.3.2c11.9 7.5 8.4 21 7.2 24.5 9.4 15.5-1.9 35.5-2.4 36.4-.2.3-.4.5-.7.7-.3.2-.6.2-.9.2zM659.4 308.2c-.4 0-.8-.2-1.1-.6-.3-.3-.4-.7-.4-1.1 0-.5.8-51.5-7.6-81.1-.1-.4-.1-.9.2-1.3.2-.4.6-.7 1-.8.4-.1.9-.1 1.3.2.4.2.7.6.8 1 8.5 30.1 7.7 81.5 7.7 82 0 .2 0 .4-.1.6s-.2.4-.4.5c-.2.2-.3.3-.5.4s-.4.1-.6.1l-.3.1zM594.8 85.2c-.2 0-.5-.1-.7-.2-.2-.1-.4-.3-.5-.5-7.3-9.9-15.3-19.1-24.2-27.6-.2-.1-.3-.3-.4-.5-.1-.2-.1-.4-.2-.6 0-.2 0-.4.1-.6l.3-.6c.1-.2.3-.3.5-.4.2-.1.4-.1.6-.2.2 0 .4 0 .6.1l.6.3c9 8.6 17.2 18 24.6 28.1.3.4.4.8.3 1.2-.1.4-.3.8-.7 1.1-.1.3-.5.4-.9.4zM610.6 112.4c-.3 0-.6-.1-.8-.3s-.4-.4-.6-.7c-1.8-4.3-3.9-8.4-6.2-12.4-.1-.2-.2-.4-.2-.6v-.7l.3-.6c.1-.2.3-.3.5-.4.4-.2.8-.3 1.3-.2s.8.4 1 .8c2.4 4.1 4.5 8.4 6.4 12.8.1.2.1.4.1.6 0 .2 0 .4-.1.6-.1.2-.2.4-.4.5-.2.2-.3.3-.5.4-.2.2-.5.2-.8.2zM265.6 214c-.3 0-.6-.1-.9-.3-.3-.2-.4-.5-.5-.8-.1-.2-.1-.4-.1-.6s.1-.4.2-.6.2-.4.4-.5c.2-.1.4-.3.6-.3.3-.1 26.7-9.4 36.1-12.3.4-.1.9-.1 1.3.1s.7.6.8 1c.1.4.1.9-.1 1.3s-.6.7-1 .8c-9.4 2.9-35.7 12.2-36 12.3-.3-.1-.6-.1-.8-.1z"/><path class="st11" d="M414.1 178.7 394.5 108l-18.8 5.8-14-92.7 27.4-7.8 3.5 79.1 12.6 1.9 8.9 84.4zM230.5 219.3c-5.8-2.5-90.8-59.4-90.8-59.4l17.6-20.4L70.6 52l134.7 75.2-21.3 24.5 46.5 67.6zM601.6 448.7l64.5 96.1 12-16.5 76.5 76.9 14.3-49.4-94.4-71.4-12 20.6-60.9-56.3zM555.7 536l35 79.4 8-22.4 57.9 99.6-61.5-128.3-9.6 17.2-29.8-45.5zM277.5 548.5 242 590.4l13.7 8.9-31.9 57 57-60.7-16.9-12 13.6-35.1zM223.1 389.3l-111.7 49 28.4 26.9-103.5 59.2L195 478l-32.2-39.2 60.3-49.5zM619.1 377.1l76.3-80.5-16-21.2 108.3-69.2 29.5 36.7-83.6 41 13.5 22.6-128 70.6z"/></svg>